<svg viewBox="0 0 332 212" fill="none" xmlns="http://www.w3.org/2000/svg">
    <g clip-path="url(#clip0_1770_40766)">
        <path
            d="M-110.254 61.1287L-110.307 60.412L-15.638 53.4048L37.2163 -25.6503L37.391 -25.6632L132.06 -32.6701L184.916 -111.726L185.091 -111.739L279.76 -118.746L332.619 -197.804L332.793 -197.817L427.641 -204.839L427.694 -204.122L333.021 -197.113L280.163 -118.055L279.988 -118.042L185.319 -111.035L132.462 -31.979L132.288 -31.9665L37.6189 -24.9592L-15.2354 54.0959L-15.4101 54.1084L-110.254 61.1287Z"
            fill="url(#paint0_linear_1770_40766)" />
        <g opacity="0.9">
            <path
                d="M-110.254 76.1511L-110.308 75.4345L-15.6382 68.4268L37.2162 -10.6282L37.3908 -10.6411L132.06 -17.6481L184.916 -96.7042L185.09 -96.7171L279.759 -103.724L332.618 -182.782L332.793 -182.795L427.64 -189.817L427.693 -189.1L333.021 -182.091L280.162 -103.033L279.987 -103.02L185.319 -96.0131L132.462 -16.957L132.287 -16.9444L37.6187 -9.93709L-15.2356 69.118L-15.4103 69.1305L-110.254 76.1511Z"
                fill="url(#paint1_linear_1770_40766)" />
        </g>
        <g opacity="0.8">
            <path
                d="M-110.254 91.1722L-110.307 90.4556L-15.638 83.448L37.2163 4.39294L37.391 4.38037L132.06 -2.62692L184.916 -81.6827L185.091 -81.6956L279.76 -88.7033L332.619 -167.761L332.793 -167.773L427.641 -174.795L427.694 -174.079L333.021 -167.07L280.163 -88.0122L279.988 -87.9992L185.318 -80.9919L132.462 -1.93584L132.288 -1.92325L37.6189 5.08405L-15.2354 84.1387L-15.4101 84.1516L-110.254 91.1722Z"
                fill="url(#paint2_linear_1770_40766)" />
        </g>
        <g opacity="0.7">
            <path
                d="M-110.254 106.194L-110.307 105.477L-15.638 98.4695L37.2163 19.4148L37.391 19.4022L132.06 12.3949L184.916 -66.6612L185.091 -66.6738L279.76 -73.681L332.619 -152.739L332.793 -152.752L427.641 -159.774L427.694 -159.057L333.022 -152.047L280.163 -72.9899L279.988 -72.9774L185.318 -65.9701L132.462 13.0857L132.288 13.099L37.6189 20.1059L-15.2354 99.1606L-15.4101 99.1735L-110.254 106.194Z"
                fill="url(#paint3_linear_1770_40766)" />
        </g>
        <g opacity="0.6">
            <path
                d="M-110.254 121.213L-110.307 120.496L-15.638 113.489L37.2163 34.4337L37.391 34.4211L132.06 27.4138L184.916 -51.6423L185.091 -51.6548L279.76 -58.6621L332.619 -137.72L332.793 -137.733L427.641 -144.755L427.694 -144.038L333.022 -137.029L280.163 -57.971L279.988 -57.9585L185.318 -50.9512L132.462 28.1046L132.288 28.1179L37.6189 35.1248L-15.2354 114.18L-15.4101 114.192L-110.254 121.213Z"
                fill="url(#paint4_linear_1770_40766)" />
        </g>
        <g opacity="0.5">
            <path
                d="M-110.254 136.235L-110.308 135.518L-15.6382 128.511L37.2162 49.4557L37.3908 49.4427L132.06 42.4358L184.916 -36.6203L185.09 -36.6329L279.759 -43.6402L332.618 -122.698L332.793 -122.711L427.64 -129.733L427.693 -129.016L333.021 -122.007L280.162 -42.9494L279.987 -42.9365L185.318 -35.9292L132.462 43.1269L132.287 43.1398L37.6187 50.1468L-15.2356 129.201L-15.4103 129.214L-110.254 136.235Z"
                fill="url(#paint5_linear_1770_40766)" />
        </g>
        <g opacity="0.4">
            <path
                d="M-110.254 151.257L-110.307 150.54L-15.638 143.532L37.2163 64.4773L37.391 64.4644L132.06 57.4574L184.916 -21.5983L185.091 -21.6116L279.76 -28.6186L332.619 -107.676L332.793 -107.689L427.641 -114.711L427.694 -113.994L333.021 -106.985L280.163 -27.9278L279.988 -27.9149L185.319 -20.9076L132.462 58.1485L132.288 58.1615L37.6189 65.1684L-15.2354 144.223L-15.4101 144.236L-110.254 151.257Z"
                fill="url(#paint6_linear_1770_40766)" />
        </g>
        <g opacity="0.3">
            <path
                d="M-110.254 166.278L-110.307 165.561L-15.638 158.554L37.2163 79.4991L37.391 79.4862L132.06 72.4793L184.916 -6.57684L185.091 -6.58978L279.76 -13.5967L332.619 -92.6542L332.793 -92.6672L427.641 -99.6896L427.694 -98.9726L333.021 -91.9631L280.163 -12.9056L279.988 -12.8927L185.319 -5.88573L132.462 73.1704L132.288 73.1829L37.6189 80.1902L-15.2354 159.245L-15.4101 159.258L-110.254 166.278Z"
                fill="url(#paint7_linear_1770_40766)" />
        </g>
        <g opacity="0.2">
            <path
                d="M-110.254 181.3L-110.307 180.584L-15.638 173.576L37.2163 94.521L37.391 94.508L132.06 87.5011L184.916 8.44501L185.091 8.43207L279.76 1.42513L332.619 -77.6324L332.793 -77.6453L427.641 -84.6677L427.694 -83.9508L333.021 -76.9413L280.163 2.11588L279.988 2.12917L185.319 9.13609L132.462 88.1922L132.288 88.2048L37.6189 95.2121L-15.2354 174.267L-15.4101 174.28L-110.254 181.3Z"
                fill="url(#paint8_linear_1770_40766)" />
        </g>
        <g opacity="0.1">
            <path
                d="M-110.254 196.322L-110.307 195.605L-15.638 188.597L37.2163 109.542L37.391 109.53L132.06 102.523L184.916 23.4667L185.091 23.4538L279.76 16.4462L332.619 -62.611L332.793 -62.624L427.641 -69.646L427.694 -68.9294L333.021 -61.9203L280.163 17.1373L279.988 17.1506L185.318 24.1579L132.462 103.214L132.288 103.226L37.6189 110.233L-15.2354 189.289L-15.4101 189.301L-110.254 196.322Z"
                fill="url(#paint9_linear_1770_40766)" />
        </g>
        <g opacity="0.08">
            <path
                d="M-110.254 211.344L-110.307 210.627L-15.638 203.619L37.2163 124.564L37.391 124.552L132.06 117.544L184.916 38.4886L185.091 38.4757L279.76 31.4684L332.619 -47.5892L332.793 -47.6021L427.641 -54.6241L427.694 -53.9075L333.022 -46.8981L280.163 32.1595L279.988 32.1721L185.318 39.1793L132.462 118.235L132.288 118.248L37.6189 125.255L-15.2354 204.31L-15.4101 204.323L-110.254 211.344Z"
                fill="url(#paint10_linear_1770_40766)" />
        </g>
        <g opacity="0.05">
            <path
                d="M-110.254 226.366L-110.307 225.649L-15.638 218.641L37.2163 139.586L37.391 139.573L132.06 132.567L184.916 53.5104L185.091 53.4975L279.76 46.4906L332.619 -32.567L332.793 -32.5799L427.641 -39.6023L427.694 -38.8853L333.021 -31.8759L280.163 47.1817L279.988 47.1946L185.319 54.2015L132.462 133.258L132.288 133.271L37.6189 140.278L-15.2354 219.333L-15.4101 219.345L-110.254 226.366Z"
                fill="url(#paint11_linear_1770_40766)" />
        </g>
        <g opacity="0.03">
            <path
                d="M-110.254 241.387L-110.308 240.671L-15.6382 233.663L37.2162 154.608L37.3908 154.595L132.06 147.588L184.916 68.5319L185.09 68.5193L279.759 61.5121L332.618 -17.5455L332.793 -17.5584L427.64 -24.5808L427.693 -23.8638L333.021 -16.8547L280.162 62.2028L279.987 62.2157L185.318 69.223L132.462 148.279L132.287 148.292L37.6187 155.299L-15.2356 234.354L-15.4103 234.367L-110.254 241.387Z"
                fill="url(#paint12_linear_1770_40766)" />
        </g>
        <g opacity="0.02">
            <path
                d="M-110.254 256.403L-110.307 255.686L-15.638 248.679L37.2163 169.624L37.391 169.611L132.06 162.604L184.916 83.5479L185.091 83.535L279.76 76.5277L332.619 -2.52986L332.793 -2.5428L427.641 -9.56519L427.694 -8.84821L333.021 -1.83877L280.163 77.2184L279.988 77.2314L185.319 84.239L132.462 163.295L132.288 163.308L37.6189 170.315L-15.2354 249.369L-15.4101 249.382L-110.254 256.403Z"
                fill="url(#paint13_linear_1770_40766)" />
        </g>
    </g>
    <defs>
        <linearGradient id="paint0_linear_1770_40766" x1="-99.9295" y1="78.8445" x2="417.291" y2="-222.596"
            gradientUnits="userSpaceOnUse">
            <stop stop-color="#D4AF37" />
            <stop offset="1" stop-color="white" />
        </linearGradient>
        <linearGradient id="paint1_linear_1770_40766" x1="-99.9299" y1="93.8667" x2="417.291" y2="-207.574"
            gradientUnits="userSpaceOnUse">
            <stop stop-color="#D4AF37" />
            <stop offset="1" stop-color="white" />
        </linearGradient>
        <linearGradient id="paint2_linear_1770_40766" x1="-99.9297" y1="108.888" x2="417.291" y2="-192.553"
            gradientUnits="userSpaceOnUse">
            <stop stop-color="#D4AF37" />
            <stop offset="1" stop-color="white" />
        </linearGradient>
        <linearGradient id="paint3_linear_1770_40766" x1="-99.9296" y1="123.91" x2="417.291" y2="-177.531"
            gradientUnits="userSpaceOnUse">
            <stop stop-color="#D4AF37" />
            <stop offset="1" stop-color="white" />
        </linearGradient>
        <linearGradient id="paint4_linear_1770_40766" x1="-99.9295" y1="138.929" x2="417.291" y2="-162.512"
            gradientUnits="userSpaceOnUse">
            <stop stop-color="#D4AF37" />
            <stop offset="1" stop-color="white" />
        </linearGradient>
        <linearGradient id="paint5_linear_1770_40766" x1="-99.9298" y1="153.951" x2="417.291" y2="-147.49"
            gradientUnits="userSpaceOnUse">
            <stop stop-color="#D4AF37" />
            <stop offset="1" stop-color="white" />
        </linearGradient>
        <linearGradient id="paint6_linear_1770_40766" x1="-99.9296" y1="168.972" x2="417.291" y2="-132.469"
            gradientUnits="userSpaceOnUse">
            <stop stop-color="#D4AF37" />
            <stop offset="1" stop-color="white" />
        </linearGradient>
        <linearGradient id="paint7_linear_1770_40766" x1="-99.9295" y1="183.994" x2="417.291" y2="-117.447"
            gradientUnits="userSpaceOnUse">
            <stop stop-color="#D4AF37" />
            <stop offset="1" stop-color="white" />
        </linearGradient>
        <linearGradient id="paint8_linear_1770_40766" x1="-99.9297" y1="199.016" x2="417.291" y2="-102.425"
            gradientUnits="userSpaceOnUse">
            <stop stop-color="#D4AF37" />
            <stop offset="1" stop-color="white" />
        </linearGradient>
        <linearGradient id="paint9_linear_1770_40766" x1="-99.9297" y1="214.037" x2="417.291" y2="-87.4038"
            gradientUnits="userSpaceOnUse">
            <stop stop-color="#D4AF37" />
            <stop offset="1" stop-color="white" />
        </linearGradient>
        <linearGradient id="paint10_linear_1770_40766" x1="-99.9296" y1="229.059" x2="417.291" y2="-72.3818"
            gradientUnits="userSpaceOnUse">
            <stop stop-color="#D4AF37" />
            <stop offset="1" stop-color="white" />
        </linearGradient>
        <linearGradient id="paint11_linear_1770_40766" x1="-99.9296" y1="244.081" x2="417.291" y2="-57.3598"
            gradientUnits="userSpaceOnUse">
            <stop stop-color="#D4AF37" />
            <stop offset="1" stop-color="white" />
        </linearGradient>
        <linearGradient id="paint12_linear_1770_40766" x1="-99.9297" y1="259.103" x2="417.291" y2="-42.3383"
            gradientUnits="userSpaceOnUse">
            <stop stop-color="#D4AF37" />
            <stop offset="1" stop-color="white" />
        </linearGradient>
        <linearGradient id="paint13_linear_1770_40766" x1="-99.9296" y1="274.118" x2="417.291" y2="-27.3226"
            gradientUnits="userSpaceOnUse">
            <stop stop-color="#D4AF37" />
            <stop offset="1" stop-color="white" />
        </linearGradient>
        <clipPath id="clip0_1770_40766">
            <rect width="332" height="212" fill="white" />
        </clipPath>
    </defs>
</svg>