<svg viewBox="0 0 282 180" fill="none" xmlns="http://www.w3.org/2000/svg">
    <g clip-path="url(#clip0_1770_40809)">
        <path
            d="M375.464 128.098L375.509 128.707L295.137 134.656L250.265 201.779L250.116 201.79L169.745 207.739L124.871 274.862L124.723 274.873L44.3508 280.822L-0.525238 347.947L-0.673553 347.958L-81.1968 353.92L-81.2417 353.311L-0.866974 347.36L44.0088 280.235L44.1574 280.224L124.529 274.275L169.403 207.152L169.551 207.141L249.923 201.192L294.795 134.07L294.943 134.059L375.464 128.098Z"
            fill="url(#paint0_linear_1770_40809)" />
        <g opacity="0.9">
            <path
                d="M375.464 115.343L375.509 115.952L295.137 121.901L250.265 189.024L250.117 189.035L169.745 194.984L124.871 262.107L124.723 262.118L44.3511 268.067L-0.524994 335.192L-0.673309 335.203L-81.1966 341.165L-81.2414 340.556L-0.86673 334.605L44.009 267.481L44.1576 267.47L124.529 261.52L169.403 194.397L169.551 194.386L249.923 188.437L294.795 121.315L294.943 121.304L375.464 115.343Z"
                fill="url(#paint1_linear_1770_40809)" />
        </g>
        <g opacity="0.8">
            <path
                d="M375.464 102.59L375.509 103.198L295.137 109.148L250.265 176.27L250.116 176.281L169.745 182.23L124.871 249.353L124.723 249.364L44.3508 255.314L-0.525238 322.438L-0.673553 322.449L-81.1968 328.411L-81.2417 327.803L-0.866974 321.852L44.0088 254.727L44.1574 254.716L124.529 248.767L169.403 181.644L169.551 181.633L249.923 175.683L294.795 108.561L294.943 108.55L375.464 102.59Z"
                fill="url(#paint2_linear_1770_40809)" />
        </g>
        <g opacity="0.7">
            <path
                d="M375.464 89.8351L375.509 90.4439L295.137 96.3938L250.265 163.516L250.116 163.526L169.745 169.476L124.871 236.599L124.723 236.61L44.3508 242.559L-0.525238 309.684L-0.673553 309.695L-81.1968 315.657L-81.2417 315.048L-0.86731 309.097L44.0088 241.973L44.1574 241.962L124.529 236.012L169.403 168.889L169.551 168.878L249.923 162.929L294.795 95.807L294.943 95.796L375.464 89.8351Z"
                fill="url(#paint3_linear_1770_40809)" />
        </g>
        <g opacity="0.6">
            <path
                d="M375.464 77.0833L375.509 77.692L295.137 83.6416L250.265 150.764L250.116 150.774L169.745 156.724L124.871 223.847L124.723 223.858L44.3508 229.807L-0.525238 296.932L-0.673553 296.943L-81.1968 302.905L-81.2417 302.296L-0.86731 296.345L44.0088 229.221L44.1574 229.21L124.529 223.26L169.403 156.138L169.551 156.126L249.923 150.177L294.795 83.0548L294.943 83.0441L375.464 77.0833Z"
                fill="url(#paint4_linear_1770_40809)" />
        </g>
        <g opacity="0.5">
            <path
                d="M375.464 64.3289L375.509 64.9373L295.137 70.8872L250.265 138.009L250.117 138.02L169.745 143.97L124.871 211.093L124.723 211.103L44.3511 217.053L-0.524994 284.178L-0.673309 284.188L-81.1966 290.151L-81.2414 289.542L-0.867065 283.591L44.009 216.467L44.1576 216.456L124.53 210.506L169.403 143.383L169.551 143.372L249.923 137.423L294.795 70.3007L294.943 70.2897L375.464 64.3289Z"
                fill="url(#paint5_linear_1770_40809)" />
        </g>
        <g opacity="0.4">
            <path
                d="M375.464 51.5746L375.509 52.1833L295.137 58.1329L250.265 125.255L250.116 125.266L169.745 131.215L124.871 198.338L124.723 198.349L44.3508 204.299L-0.525238 271.423L-0.673553 271.434L-81.1968 277.396L-81.2417 276.788L-0.866974 270.836L44.0088 203.712L44.1574 203.701L124.529 197.752L169.403 130.629L169.551 130.618L249.923 124.668L294.795 57.5464L294.943 57.5355L375.464 51.5746Z"
                fill="url(#paint6_linear_1770_40809)" />
        </g>
        <g opacity="0.3">
            <path
                d="M375.464 38.8202L375.509 39.429L295.137 45.3785L250.265 112.501L250.116 112.512L169.745 118.461L124.871 185.584L124.723 185.595L44.3508 191.544L-0.525238 258.669L-0.673553 258.68L-81.1968 264.642L-81.2417 264.033L-0.866974 258.082L44.0088 190.958L44.1574 190.947L124.529 184.997L169.403 117.874L169.551 117.864L249.923 111.914L294.795 44.7917L294.943 44.7811L375.464 38.8202Z"
                fill="url(#paint7_linear_1770_40809)" />
        </g>
        <g opacity="0.2">
            <path
                d="M375.464 26.0658L375.509 26.6743L295.137 32.6241L250.265 99.7463L250.116 99.7573L169.745 105.707L124.871 172.83L124.723 172.841L44.3508 178.79L-0.525238 245.914L-0.673553 245.925L-81.1968 251.888L-81.2417 251.279L-0.866974 245.328L44.0088 178.204L44.1574 178.192L124.529 172.243L169.403 105.12L169.551 105.109L249.923 99.1596L294.795 32.0374L294.943 32.0267L375.464 26.0658Z"
                fill="url(#paint8_linear_1770_40809)" />
        </g>
        <g opacity="0.1">
            <path
                d="M375.464 13.3117L375.509 13.9202L295.137 19.87L250.265 86.9922L250.116 87.0029L169.745 92.9525L124.871 160.075L124.723 160.086L44.3508 166.036L-0.525238 233.16L-0.673553 233.171L-81.1968 239.133L-81.2417 238.525L-0.866974 232.574L44.0088 165.449L44.1574 165.438L124.529 159.489L169.403 92.3657L169.551 92.355L249.923 86.4054L294.795 19.2832L294.943 19.2726L375.464 13.3117Z"
                fill="url(#paint9_linear_1770_40809)" />
        </g>
        <g opacity="0.08">
            <path
                d="M375.464 0.557434L375.509 1.16618L295.137 7.11577L250.265 74.238L250.116 74.2486L169.745 80.1982L124.871 147.321L124.723 147.332L44.3508 153.282L-0.525238 220.406L-0.673553 220.417L-81.1968 226.379L-81.2417 225.771L-0.86731 219.819L44.0088 152.695L44.1574 152.684L124.529 146.735L169.403 79.6117L169.551 79.6005L249.923 73.6512L294.795 6.52928L294.943 6.5183L375.464 0.557434Z"
                fill="url(#paint10_linear_1770_40809)" />
        </g>
        <g opacity="0.05">
            <path
                d="M375.464 -12.1972L375.509 -11.5888L295.137 -5.63892L250.265 61.4833L250.116 61.4943L169.745 67.4435L124.871 134.567L124.723 134.578L44.3508 140.527L-0.525238 207.651L-0.673553 207.662L-81.1968 213.625L-81.2417 213.016L-0.866974 207.064L44.0088 139.94L44.1574 139.929L124.529 133.98L169.403 66.8568L169.551 66.8458L249.923 60.8965L294.795 -6.22571L294.943 -6.23637L375.464 -12.1972Z"
                fill="url(#paint11_linear_1770_40809)" />
        </g>
        <g opacity="0.03">
            <path
                d="M375.464 -24.9514L375.509 -24.343L295.137 -18.3931L250.265 48.7288L250.117 48.7401L169.745 54.6894L124.871 121.813L124.723 121.823L44.3511 127.773L-0.524994 194.897L-0.673309 194.908L-81.1966 200.87L-81.2414 200.262L-0.867065 194.311L44.009 127.186L44.1576 127.175L124.53 121.226L169.403 54.1026L169.551 54.0916L249.923 48.1423L294.795 -18.9799L294.943 -18.9905L375.464 -24.9514Z"
                fill="url(#paint12_linear_1770_40809)" />
        </g>
        <g opacity="0.02">
            <path
                d="M375.464 -37.7005L375.509 -37.0921L295.137 -31.1422L250.265 35.9797L250.116 35.991L169.745 41.9402L124.871 109.063L124.723 109.074L44.3508 115.024L-0.525238 182.148L-0.673553 182.159L-81.1968 188.121L-81.2417 187.513L-0.866974 181.561L44.0088 114.437L44.1574 114.426L124.529 108.476L169.403 41.3535L169.551 41.3425L249.923 35.3932L294.795 -31.7287L294.943 -31.7397L375.464 -37.7005Z"
                fill="url(#paint13_linear_1770_40809)" />
        </g>
    </g>
    <defs>
        <linearGradient id="paint0_linear_1770_40809" x1="366.698" y1="113.057" x2="-72.4313" y2="368.961"
            gradientUnits="userSpaceOnUse">
            <stop stop-color="#D4AF37" />
            <stop offset="1" stop-color="white" />
        </linearGradient>
        <linearGradient id="paint1_linear_1770_40809" x1="366.699" y1="100.302" x2="-72.431" y2="356.207"
            gradientUnits="userSpaceOnUse">
            <stop stop-color="#D4AF37" />
            <stop offset="1" stop-color="white" />
        </linearGradient>
        <linearGradient id="paint2_linear_1770_40809" x1="366.698" y1="87.548" x2="-72.4312" y2="343.453"
            gradientUnits="userSpaceOnUse">
            <stop stop-color="#D4AF37" />
            <stop offset="1" stop-color="white" />
        </linearGradient>
        <linearGradient id="paint3_linear_1770_40809" x1="366.698" y1="74.7936" x2="-72.4312" y2="330.698"
            gradientUnits="userSpaceOnUse">
            <stop stop-color="#D4AF37" />
            <stop offset="1" stop-color="white" />
        </linearGradient>
        <linearGradient id="paint4_linear_1770_40809" x1="366.698" y1="62.0417" x2="-72.4312" y2="317.947"
            gradientUnits="userSpaceOnUse">
            <stop stop-color="#D4AF37" />
            <stop offset="1" stop-color="white" />
        </linearGradient>
        <linearGradient id="paint5_linear_1770_40809" x1="366.699" y1="49.2874" x2="-72.431" y2="305.192"
            gradientUnits="userSpaceOnUse">
            <stop stop-color="#D4AF37" />
            <stop offset="1" stop-color="white" />
        </linearGradient>
        <linearGradient id="paint6_linear_1770_40809" x1="366.698" y1="36.5331" x2="-72.4312" y2="292.438"
            gradientUnits="userSpaceOnUse">
            <stop stop-color="#D4AF37" />
            <stop offset="1" stop-color="white" />
        </linearGradient>
        <linearGradient id="paint7_linear_1770_40809" x1="366.698" y1="23.7787" x2="-72.4313" y2="279.683"
            gradientUnits="userSpaceOnUse">
            <stop stop-color="#D4AF37" />
            <stop offset="1" stop-color="white" />
        </linearGradient>
        <linearGradient id="paint8_linear_1770_40809" x1="366.698" y1="11.0242" x2="-72.4313" y2="266.929"
            gradientUnits="userSpaceOnUse">
            <stop stop-color="#D4AF37" />
            <stop offset="1" stop-color="white" />
        </linearGradient>
        <linearGradient id="paint9_linear_1770_40809" x1="366.698" y1="-1.72982" x2="-72.4312" y2="254.175"
            gradientUnits="userSpaceOnUse">
            <stop stop-color="#D4AF37" />
            <stop offset="1" stop-color="white" />
        </linearGradient>
        <linearGradient id="paint10_linear_1770_40809" x1="366.698" y1="-14.4842" x2="-72.4312" y2="241.421"
            gradientUnits="userSpaceOnUse">
            <stop stop-color="#D4AF37" />
            <stop offset="1" stop-color="white" />
        </linearGradient>
        <linearGradient id="paint11_linear_1770_40809" x1="366.698" y1="-27.2388" x2="-72.4313" y2="228.666"
            gradientUnits="userSpaceOnUse">
            <stop stop-color="#D4AF37" />
            <stop offset="1" stop-color="white" />
        </linearGradient>
        <linearGradient id="paint12_linear_1770_40809" x1="366.699" y1="-39.9929" x2="-72.431" y2="215.912"
            gradientUnits="userSpaceOnUse">
            <stop stop-color="#D4AF37" />
            <stop offset="1" stop-color="white" />
        </linearGradient>
        <linearGradient id="paint13_linear_1770_40809" x1="366.698" y1="-52.7421" x2="-72.4313" y2="203.163"
            gradientUnits="userSpaceOnUse">
            <stop stop-color="#D4AF37" />
            <stop offset="1" stop-color="white" />
        </linearGradient>
        <clipPath id="clip0_1770_40809">
            <rect width="281.86" height="180" fill="white" transform="matrix(-1 0 0 -1 281.86 180)" />
        </clipPath>
    </defs>
</svg>