<svg viewBox="0 0 165 112" fill="none" xmlns="http://www.w3.org/2000/svg">
<path d="M49.5518 27.9411C49.5518 23.9072 50.1052 20.1924 51.23 16.7966C52.3369 13.4008 53.8902 10.4608 55.8898 7.95388C57.8715 5.44693 60.1925 3.48695 62.8527 2.09673C65.5129 0.706505 68.3694 0 71.4581 0C75.3502 0 78.8495 1.07115 81.9738 3.19067C85.0982 5.31018 87.562 8.29574 89.4009 12.1473C91.222 15.9989 92.1325 20.4886 92.1325 25.6165C92.1325 30.7444 91.6326 34.4592 90.6507 37.5815C89.6509 40.681 88.5083 42.9601 87.2228 44.4187C86.2051 45.4442 84.884 46.0596 83.2771 46.1963C81.6525 46.3559 80.1528 46.4242 78.778 46.4242V44.0996C82.5094 43.1196 85.2232 41.2964 86.9014 38.6755C88.5797 36.0318 89.4188 32.4537 89.4188 27.9639C89.4188 24.8644 88.9367 22.2207 87.9548 20.0784C86.9728 17.9361 85.6517 16.1812 83.9377 14.791C82.2416 13.4236 80.3135 12.4208 78.1532 11.8055C76.0107 11.1901 73.7791 10.8711 71.4581 10.8711C66.5484 10.8711 62.6741 11.6231 59.8354 13.1729C56.9967 14.6999 54.9792 16.751 53.7831 19.3491C52.5869 21.9472 51.9798 24.8188 51.9798 27.9639C51.9798 30.2886 52.1227 32.2941 52.4083 33.935C52.694 35.5987 53.0689 37.1029 53.5688 38.4476H64.3881C65.245 38.4476 66.0842 38.6071 66.9411 38.949C67.7981 39.2908 68.6015 39.9745 69.3514 41.0001C70.1012 42.0257 70.6904 43.5526 71.1546 45.5354C71.6009 47.5182 71.8152 50.1847 71.8152 53.4893H70.2976C70.2976 51.7344 69.7977 50.4581 68.7801 49.6833C67.7624 48.9084 66.352 48.521 64.5309 48.521H53.6402C52.2119 45.5126 51.1943 42.3447 50.5337 38.9717C49.891 35.5987 49.5518 31.9295 49.5518 27.9411Z" fill="#D4AF37"/>
<path d="M49.5518 27.9411C49.5518 23.9072 50.1052 20.1924 51.23 16.7966C52.3369 13.4008 53.8902 10.4608 55.8898 7.95388C57.8715 5.44693 60.1925 3.48695 62.8527 2.09673C65.5129 0.706505 68.3694 0 71.4581 0C75.3502 0 78.8495 1.07115 81.9738 3.19067C85.0982 5.31018 87.562 8.29574 89.4009 12.1473C91.222 15.9989 92.1325 20.4886 92.1325 25.6165C92.1325 30.7444 91.6326 34.4592 90.6507 37.5815C89.6509 40.681 88.5083 42.9601 87.2228 44.4187C86.2051 45.4442 84.884 46.0596 83.2771 46.1963C81.6525 46.3559 80.1528 46.4242 78.778 46.4242V44.0996C82.5094 43.1196 85.2232 41.2964 86.9014 38.6755C88.5797 36.0318 89.4188 32.4537 89.4188 27.9639C89.4188 24.8644 88.9367 22.2207 87.9548 20.0784C86.9728 17.9361 85.6517 16.1812 83.9377 14.791C82.2416 13.4236 80.3135 12.4208 78.1532 11.8055C76.0107 11.1901 73.7791 10.8711 71.4581 10.8711C66.5484 10.8711 62.6741 11.6231 59.8354 13.1729C56.9967 14.6999 54.9792 16.751 53.7831 19.3491C52.5869 21.9472 51.9798 24.8188 51.9798 27.9639C51.9798 30.2886 52.1227 32.2941 52.4083 33.935C52.694 35.5987 53.0689 37.1029 53.5688 38.4476H64.3881C65.245 38.4476 66.0842 38.6071 66.9411 38.949C67.7981 39.2908 68.6015 39.9745 69.3514 41.0001C70.1012 42.0257 70.6904 43.5526 71.1546 45.5354C71.6009 47.5182 71.8152 50.1847 71.8152 53.4893H70.2976C70.2976 51.7344 69.7977 50.4581 68.7801 49.6833C67.7624 48.9084 66.352 48.521 64.5309 48.521H53.6402C52.2119 45.5126 51.1943 42.3447 50.5337 38.9717C49.891 35.5987 49.5518 31.9295 49.5518 27.9411Z" fill="white"/>
<path d="M115.448 39.8378C115.448 43.8717 114.895 47.5865 113.77 50.9823C112.663 54.3781 111.11 57.3181 109.11 59.825C107.129 62.332 104.808 64.292 102.148 65.6822C99.4874 67.0724 96.6308 67.7789 93.5421 67.7789C89.65 67.7789 86.1507 66.7078 83.0264 64.5883C79.902 62.4687 77.4382 59.4832 75.5993 55.6316C73.7782 51.78 72.8677 47.2903 72.8677 42.1624C72.8677 37.0345 73.3676 33.3197 74.3495 30.1974C75.3493 27.0979 76.492 24.8188 77.7774 23.3603C78.7951 22.3347 80.1162 21.7193 81.723 21.5826C83.3477 21.4231 84.8474 21.3547 86.2221 21.3547V23.6793C82.4907 24.6593 79.777 26.4826 78.0988 29.1035C76.4205 31.7472 75.5814 35.3253 75.5814 39.815C75.5814 42.9145 76.0635 45.5582 77.0454 47.7005C78.0274 49.8428 79.3485 51.5977 81.0625 52.9879C82.7586 54.3553 84.6867 55.3581 86.847 55.9734C88.9895 56.5888 91.2211 56.9079 93.5421 56.9079C98.4518 56.9079 102.326 56.1558 105.165 54.606C108.003 53.0791 110.021 51.0279 111.217 48.4298C112.413 45.8317 113.02 42.9601 113.02 39.815C113.02 37.4904 112.878 35.4848 112.592 33.8439C112.306 32.1802 111.931 30.676 111.431 29.3314H100.612C99.7552 29.3314 98.916 29.1718 98.0591 28.83C97.2021 28.4881 96.3987 27.8044 95.6488 26.7788C94.899 25.7533 94.3098 24.2263 93.8456 22.2435C93.3993 20.2607 93.185 17.5943 93.185 14.2896H94.7026C94.7026 16.0445 95.2025 17.3208 96.2201 18.0956C97.2378 18.8705 98.6482 19.258 100.469 19.258H111.36C112.788 22.2663 113.806 25.4342 114.466 28.8072C115.109 32.1802 115.448 35.8494 115.448 39.8378Z" fill="#D4AF37"/>
<path d="M11.337 111.954C9.69449 111.954 8.19479 111.59 6.82006 110.838C5.44534 110.108 4.24915 109.083 3.2315 107.761C2.21384 106.439 1.41043 104.912 0.856971 103.157C0.285656 101.402 0 99.5108 0 97.4597C0 94.8843 0.428484 92.5597 1.28546 90.5086C2.14243 88.4346 3.35647 86.8165 4.92759 85.6086C6.4987 84.4007 8.31976 83.8082 10.3908 83.8082C12.4618 83.8082 13.9793 84.1272 15.2469 84.7882C16.5146 85.4491 17.4251 86.2012 18.0143 87.0672C18.4249 87.7281 18.6748 88.617 18.7462 89.6881C18.8177 90.7593 18.8355 91.7621 18.8355 92.6737H17.8893C17.4965 90.2123 16.7467 88.4119 15.6754 87.2951C14.6042 86.1784 13.1581 85.6314 11.3192 85.6314C10.0516 85.6314 8.9982 85.9505 8.12337 86.5886C7.24855 87.2268 6.53441 88.1156 5.98095 89.2551C5.42749 90.3718 5.01685 91.6481 4.7669 93.0839C4.51695 94.4969 4.39198 95.9783 4.39198 97.5052C4.39198 100.741 4.69549 103.317 5.32036 105.186C5.94524 107.054 6.7665 108.399 7.81986 109.197C8.87322 109.994 10.0337 110.382 11.3192 110.382C12.2654 110.382 13.0688 110.291 13.7473 110.108C14.4257 109.926 15.0327 109.675 15.5683 109.334V102.177C15.5683 101.608 15.6397 101.061 15.7647 100.491C15.9075 99.921 16.1753 99.3969 16.6038 98.8955C17.0323 98.3941 17.6393 98.0066 18.4427 97.7104C19.2461 97.4141 20.3352 97.2773 21.6742 97.2773V98.2801C20.9601 98.2801 20.4423 98.622 20.1388 99.2829C19.8175 99.9438 19.6746 100.901 19.6746 102.109V109.311C18.4606 110.245 17.1573 110.929 15.8004 111.362C14.4257 111.795 12.9438 112 11.3192 112L11.337 111.954Z" fill="white"/>
<path d="M30.7257 111.567C29.1724 111.567 27.8334 111.134 26.6908 110.268C25.5481 109.402 24.6912 108.217 24.0663 106.713C23.4593 105.208 23.1558 103.545 23.1558 101.721C23.1558 99.8983 23.4593 98.2118 24.0663 96.7076C24.6733 95.2034 25.5481 94.0411 26.6908 93.1751C27.8334 92.309 29.1724 91.876 30.7257 91.876C32.2789 91.876 33.6537 92.309 34.7784 93.1751C35.9032 94.0411 36.7602 95.2262 37.3851 96.7076C38.0099 98.189 38.2956 99.8755 38.2956 101.721C38.2956 103.568 37.9921 105.208 37.3851 106.713C36.778 108.217 35.9032 109.402 34.7784 110.268C33.6537 111.134 32.2968 111.567 30.7257 111.567ZM30.7257 109.744C31.4577 109.744 32.0826 109.402 32.5646 108.695C33.0645 107.989 33.4216 107.032 33.6715 105.824C33.9215 104.616 34.0286 103.226 34.0286 101.699C34.0286 100.172 33.9036 98.7587 33.6715 97.5508C33.4216 96.3429 33.0645 95.3857 32.5646 94.702C32.0647 93.9955 31.4577 93.6537 30.7257 93.6537C29.9937 93.6537 29.3688 93.9955 28.8868 94.702C28.4047 95.4085 28.0298 96.3429 27.7798 97.5508C27.5299 98.7587 27.4228 100.149 27.4228 101.699C27.4228 103.248 27.5477 104.593 27.7798 105.824C28.0298 107.054 28.3869 108.012 28.8868 108.695C29.3867 109.379 29.9937 109.744 30.7257 109.744Z" fill="white"/>
<path d="M41.438 111.157V89.8249C41.438 88.617 41.3131 87.637 41.0453 86.9077C40.7775 86.1784 40.1704 85.7909 39.2242 85.7909H38.9028V84.5831H42.6878C43.4198 84.5831 43.9911 84.7426 44.4017 85.0617C44.8124 85.3807 45.098 85.9277 45.2766 86.6798C45.4372 87.4319 45.5265 88.4802 45.5265 89.8249V111.157H41.438Z" fill="white"/>
<path d="M55.3273 111.567C53.8633 111.567 52.6314 111.134 51.6495 110.268C50.6675 109.402 49.9355 108.217 49.4356 106.713C48.9357 105.208 48.7036 103.545 48.7036 101.721C48.7036 99.8983 48.9536 98.2118 49.4356 96.7076C49.9177 95.2034 50.6854 94.0411 51.6852 93.1751C52.685 92.309 53.9526 91.876 55.4701 91.876C56.1843 91.876 56.827 92.0127 57.3804 92.2634C57.9339 92.5141 58.3981 92.7876 58.7909 93.0839V89.8704C58.7909 88.6625 58.6659 87.6825 58.3981 86.9533C58.1303 86.224 57.5411 85.8365 56.5949 85.8365H56.2735V84.6286H60.0585C60.7905 84.6286 61.3618 84.7882 61.7724 85.1072C62.1831 85.4263 62.4687 85.9733 62.6473 86.7254C62.8079 87.4774 62.8972 88.5258 62.8972 89.8704V111.202H60.2192L59.1122 109.402H58.9516C58.6838 109.949 58.2374 110.45 57.6125 110.906C56.9877 111.385 56.2378 111.613 55.3273 111.613V111.567ZM55.97 109.744C56.4699 109.744 56.9163 109.607 57.2912 109.311C57.6661 109.014 57.9875 108.65 58.2374 108.24C58.4874 107.829 58.6838 107.465 58.8087 107.123V94.8616C58.5231 94.5653 58.1303 94.2918 57.684 94.0411C57.2198 93.7904 56.702 93.6537 56.1307 93.6537C55.3451 93.6537 54.7381 93.9955 54.2739 94.702C53.8097 95.4085 53.4884 96.3429 53.2741 97.5508C53.0777 98.7587 52.9706 100.149 52.9706 101.699C52.9706 103.248 53.0599 104.593 53.2563 105.824C53.4527 107.054 53.7562 108.012 54.2025 108.695C54.6489 109.402 55.238 109.744 55.97 109.744Z" fill="white"/>
<path d="M73.1985 111.567C71.7345 111.567 70.449 111.134 69.3599 110.291C68.2709 109.447 67.4318 108.262 66.8426 106.781C66.2534 105.3 65.9678 103.613 65.9678 101.721C65.9678 99.5792 66.2713 97.7787 66.8783 96.3201C67.4853 94.8616 68.3244 93.7448 69.3599 92.9927C70.4133 92.2406 71.5916 91.876 72.895 91.876C74.1983 91.876 75.3766 92.2179 76.43 92.8788C77.4833 93.5397 78.3046 94.4969 78.9116 95.7048C79.5186 96.9127 79.8221 98.3257 79.8221 99.921L79.6972 102.451H70.2169C70.2169 105.117 70.5383 106.986 71.181 108.103C71.8237 109.22 72.6629 109.767 73.6805 109.767C74.7696 109.767 75.6623 109.447 76.3407 108.809C77.0191 108.171 77.644 107.374 78.1796 106.439L79.1616 107.374C78.8581 107.966 78.4653 108.581 77.9832 109.242C77.4833 109.903 76.8584 110.45 76.0907 110.906C75.323 111.362 74.3589 111.59 73.1985 111.59V111.567ZM70.1991 100.628H75.5551C75.5551 97.9611 75.3052 96.1378 74.8053 95.1578C74.3054 94.155 73.6627 93.6764 72.8771 93.6764C72.4129 93.6764 71.9844 93.8816 71.5738 94.3146C71.1632 94.7476 70.8418 95.4541 70.574 96.4569C70.3062 97.4597 70.1991 98.8499 70.1991 100.628Z" fill="white"/>
<path d="M83.3574 111.157V97.4824C83.3574 96.2746 83.2324 95.2946 82.9825 94.5653C82.7325 93.836 82.1255 93.4485 81.1793 93.4485H80.8579V92.2406H83.9823C84.6964 92.2406 85.2499 92.3546 85.6605 92.5825C86.0712 92.8104 86.3925 93.1978 86.6246 93.722C86.9995 93.2662 87.5351 92.8332 88.2493 92.4458C88.9456 92.0355 89.9454 91.8532 91.2308 91.8532C92.5163 91.8532 93.6589 92.1039 94.5337 92.6281C95.4086 93.1522 96.087 93.9271 96.5333 95.0211C96.9797 96.115 97.2118 97.528 97.2118 99.2601V111.18H93.1233V99.2373C93.1233 97.9155 92.9983 96.8671 92.7305 96.0922C92.4627 95.3174 92.1235 94.7476 91.6772 94.4057C91.2308 94.0639 90.7309 93.8815 90.1418 93.8815C89.5526 93.8815 89.0348 93.9727 88.5885 94.155C88.1422 94.3374 87.7672 94.5881 87.4637 94.8843V111.18H83.3753L83.3574 111.157Z" fill="white"/>
<path d="M110.083 111.157V89.5514C110.083 88.3435 109.958 87.3635 109.69 86.6342C109.423 85.9049 108.816 85.5175 107.887 85.5175H107.352V84.5831H110.44C111.172 84.5831 111.744 84.7198 112.154 84.9933C112.565 85.2668 112.85 85.7454 113.029 86.4519C113.19 87.1584 113.279 88.1839 113.279 89.5286V109.493H124.366V111.134H110.083V111.157Z" fill="white"/>
<path d="M127.115 111.157V97.1862C127.115 95.9783 126.99 94.9983 126.722 94.269C126.454 93.5397 125.847 93.1523 124.901 93.1523H124.365V92.2179H127.418C128.15 92.2179 128.722 92.3546 129.132 92.6281C129.543 92.9016 129.828 93.3802 130.007 94.0867C130.168 94.7932 130.257 95.8188 130.257 97.1634V111.134H127.097L127.115 111.157ZM128.543 89.916C127.972 89.916 127.507 89.6425 127.15 89.0956C126.793 88.5486 126.615 87.9105 126.615 87.1812C126.615 86.5886 126.758 86.1328 127.043 85.7909C127.329 85.4491 127.686 85.2896 128.132 85.2896C128.704 85.2896 129.168 85.5631 129.525 86.0872C129.882 86.6114 130.061 87.2495 130.061 87.9788C130.061 88.5714 129.918 89.05 129.632 89.3918C129.346 89.7337 128.989 89.916 128.543 89.916Z" fill="white"/>
<path d="M135.042 111.157V97.1862C135.042 95.9783 134.917 94.9983 134.649 94.269C134.381 93.5397 133.774 93.1523 132.828 93.1523H132.292V92.2178H135.185C135.97 92.2178 136.559 92.3546 136.97 92.6281C137.381 92.9015 137.684 93.289 137.863 93.7904C138.291 93.3346 138.863 92.9015 139.577 92.4685C140.309 92.0355 141.184 91.8304 142.201 91.8304C143.219 91.8304 144.129 92.0355 144.951 92.4685C145.772 92.9015 146.45 93.6308 146.95 94.6792C147.45 95.7276 147.7 97.209 147.7 99.1006V111.134H144.558V99.1006C144.558 97.7559 144.397 96.6848 144.076 95.9099C143.754 95.1122 143.344 94.5425 142.844 94.2006C142.344 93.8588 141.791 93.6764 141.201 93.6764C140.577 93.6764 140.005 93.8587 139.487 94.2462C138.97 94.6336 138.541 95.0439 138.184 95.5225V111.134H135.006L135.042 111.157Z" fill="white"/>
<path d="M163.268 111.567C162.447 111.567 161.661 111.339 160.893 110.86C160.126 110.382 159.394 109.561 158.68 108.354L155.091 102.268V111.157H151.931V89.5514C151.931 88.3435 151.806 87.3635 151.538 86.6342C151.27 85.9049 150.663 85.5175 149.735 85.5175H149.164V84.5831H152.252C152.984 84.5831 153.556 84.7198 153.966 84.9933C154.377 85.2668 154.662 85.7454 154.841 86.4519C155.002 87.1584 155.091 88.1839 155.091 89.5286V101.266L159.001 94.9527C159.519 94.1323 160.108 93.4486 160.715 92.97C161.34 92.4686 162.161 92.2179 163.214 92.2179H164.071V93.2207C163.5 93.2207 162.964 93.3802 162.447 93.6765C161.929 93.9955 161.465 94.4513 161.036 95.1123L157.662 100.514L161.661 107.123C162.268 108.126 162.839 108.878 163.339 109.379C163.857 109.881 164.411 110.222 165 110.336V111.134C164.839 111.248 164.589 111.339 164.25 111.407C163.911 111.476 163.589 111.521 163.25 111.521L163.268 111.567Z" fill="white"/>
<path d="M11.337 111.954C9.69449 111.954 8.19479 111.59 6.82006 110.838C5.44534 110.108 4.24915 109.083 3.2315 107.761C2.21384 106.439 1.41043 104.912 0.856971 103.157C0.285656 101.402 0 99.5108 0 97.4597C0 94.8843 0.428484 92.5597 1.28546 90.5086C2.14243 88.4346 3.35647 86.8165 4.92759 85.6086C6.4987 84.4007 8.31976 83.8082 10.3908 83.8082C12.4618 83.8082 13.9793 84.1272 15.2469 84.7882C16.5146 85.4491 17.4251 86.2012 18.0143 87.0672C18.4249 87.7281 18.6748 88.617 18.7462 89.6881C18.8177 90.7593 18.8355 91.7621 18.8355 92.6737H17.8893C17.4965 90.2123 16.7467 88.4119 15.6754 87.2951C14.6042 86.1784 13.1581 85.6314 11.3192 85.6314C10.0516 85.6314 8.9982 85.9505 8.12337 86.5886C7.24855 87.2268 6.53441 88.1156 5.98095 89.2551C5.42749 90.3718 5.01685 91.6481 4.7669 93.0839C4.51695 94.4969 4.39198 95.9783 4.39198 97.5052C4.39198 100.741 4.69549 103.317 5.32036 105.186C5.94524 107.054 6.7665 108.399 7.81986 109.197C8.87322 109.994 10.0337 110.382 11.3192 110.382C12.2654 110.382 13.0688 110.291 13.7473 110.108C14.4257 109.926 15.0327 109.675 15.5683 109.334V102.177C15.5683 101.608 15.6397 101.061 15.7647 100.491C15.9075 99.921 16.1753 99.3969 16.6038 98.8955C17.0323 98.3941 17.6393 98.0066 18.4427 97.7104C19.2461 97.4141 20.3352 97.2773 21.6742 97.2773V98.2801C20.9601 98.2801 20.4423 98.622 20.1388 99.2829C19.8175 99.9438 19.6746 100.901 19.6746 102.109V109.311C18.4606 110.245 17.1573 110.929 15.8004 111.362C14.4257 111.795 12.9438 112 11.3192 112L11.337 111.954Z" fill="white"/>
<path d="M30.7257 111.567C29.1724 111.567 27.8334 111.134 26.6908 110.268C25.5481 109.402 24.6912 108.217 24.0663 106.713C23.4593 105.208 23.1558 103.545 23.1558 101.721C23.1558 99.8983 23.4593 98.2118 24.0663 96.7076C24.6733 95.2034 25.5481 94.0411 26.6908 93.1751C27.8334 92.309 29.1724 91.876 30.7257 91.876C32.2789 91.876 33.6537 92.309 34.7784 93.1751C35.9032 94.0411 36.7602 95.2262 37.3851 96.7076C38.0099 98.189 38.2956 99.8755 38.2956 101.721C38.2956 103.568 37.9921 105.208 37.3851 106.713C36.778 108.217 35.9032 109.402 34.7784 110.268C33.6537 111.134 32.2968 111.567 30.7257 111.567ZM30.7257 109.744C31.4577 109.744 32.0826 109.402 32.5646 108.695C33.0645 107.989 33.4216 107.032 33.6715 105.824C33.9215 104.616 34.0286 103.226 34.0286 101.699C34.0286 100.172 33.9036 98.7587 33.6715 97.5508C33.4216 96.3429 33.0645 95.3857 32.5646 94.702C32.0647 93.9955 31.4577 93.6537 30.7257 93.6537C29.9937 93.6537 29.3688 93.9955 28.8868 94.702C28.4047 95.4085 28.0298 96.3429 27.7798 97.5508C27.5299 98.7587 27.4228 100.149 27.4228 101.699C27.4228 103.248 27.5477 104.593 27.7798 105.824C28.0298 107.054 28.3869 108.012 28.8868 108.695C29.3867 109.379 29.9937 109.744 30.7257 109.744Z" fill="white"/>
<path d="M41.438 111.157V89.8249C41.438 88.617 41.3131 87.637 41.0453 86.9077C40.7775 86.1784 40.1704 85.7909 39.2242 85.7909H38.9028V84.5831H42.6878C43.4198 84.5831 43.9911 84.7426 44.4017 85.0617C44.8124 85.3807 45.098 85.9277 45.2766 86.6798C45.4372 87.4319 45.5265 88.4802 45.5265 89.8249V111.157H41.438Z" fill="white"/>
<path d="M55.3273 111.567C53.8633 111.567 52.6314 111.134 51.6495 110.268C50.6675 109.402 49.9355 108.217 49.4356 106.713C48.9357 105.208 48.7036 103.545 48.7036 101.721C48.7036 99.8983 48.9536 98.2118 49.4356 96.7076C49.9177 95.2034 50.6854 94.0411 51.6852 93.1751C52.685 92.309 53.9526 91.876 55.4701 91.876C56.1843 91.876 56.827 92.0127 57.3804 92.2634C57.9339 92.5141 58.3981 92.7876 58.7909 93.0839V89.8704C58.7909 88.6625 58.6659 87.6825 58.3981 86.9533C58.1303 86.224 57.5411 85.8365 56.5949 85.8365H56.2735V84.6286H60.0585C60.7905 84.6286 61.3618 84.7882 61.7724 85.1072C62.1831 85.4263 62.4687 85.9733 62.6473 86.7254C62.8079 87.4774 62.8972 88.5258 62.8972 89.8704V111.202H60.2192L59.1122 109.402H58.9516C58.6838 109.949 58.2374 110.45 57.6125 110.906C56.9877 111.385 56.2378 111.613 55.3273 111.613V111.567ZM55.97 109.744C56.4699 109.744 56.9163 109.607 57.2912 109.311C57.6661 109.014 57.9875 108.65 58.2374 108.24C58.4874 107.829 58.6838 107.465 58.8087 107.123V94.8616C58.5231 94.5653 58.1303 94.2918 57.684 94.0411C57.2198 93.7904 56.702 93.6537 56.1307 93.6537C55.3451 93.6537 54.7381 93.9955 54.2739 94.702C53.8097 95.4085 53.4884 96.3429 53.2741 97.5508C53.0777 98.7587 52.9706 100.149 52.9706 101.699C52.9706 103.248 53.0599 104.593 53.2563 105.824C53.4527 107.054 53.7562 108.012 54.2025 108.695C54.6489 109.402 55.238 109.744 55.97 109.744Z" fill="white"/>
<path d="M73.1985 111.567C71.7345 111.567 70.449 111.134 69.3599 110.291C68.2709 109.447 67.4318 108.262 66.8426 106.781C66.2534 105.3 65.9678 103.613 65.9678 101.721C65.9678 99.5792 66.2713 97.7787 66.8783 96.3201C67.4853 94.8616 68.3244 93.7448 69.3599 92.9927C70.4133 92.2406 71.5916 91.876 72.895 91.876C74.1983 91.876 75.3766 92.2179 76.43 92.8788C77.4833 93.5397 78.3046 94.4969 78.9116 95.7048C79.5186 96.9127 79.8221 98.3257 79.8221 99.921L79.6972 102.451H70.2169C70.2169 105.117 70.5383 106.986 71.181 108.103C71.8237 109.22 72.6629 109.767 73.6805 109.767C74.7696 109.767 75.6623 109.447 76.3407 108.809C77.0191 108.171 77.644 107.374 78.1796 106.439L79.1616 107.374C78.8581 107.966 78.4653 108.581 77.9832 109.242C77.4833 109.903 76.8584 110.45 76.0907 110.906C75.323 111.362 74.3589 111.59 73.1985 111.59V111.567ZM70.1991 100.628H75.5551C75.5551 97.9611 75.3052 96.1378 74.8053 95.1578C74.3054 94.155 73.6627 93.6764 72.8771 93.6764C72.4129 93.6764 71.9844 93.8816 71.5738 94.3146C71.1632 94.7476 70.8418 95.4541 70.574 96.4569C70.3062 97.4597 70.1991 98.8499 70.1991 100.628Z" fill="white"/>
<path d="M83.3574 111.157V97.4824C83.3574 96.2746 83.2324 95.2946 82.9825 94.5653C82.7325 93.836 82.1255 93.4485 81.1793 93.4485H80.8579V92.2406H83.9823C84.6964 92.2406 85.2499 92.3546 85.6605 92.5825C86.0712 92.8104 86.3925 93.1978 86.6246 93.722C86.9995 93.2662 87.5351 92.8332 88.2493 92.4458C88.9456 92.0355 89.9454 91.8532 91.2308 91.8532C92.5163 91.8532 93.6589 92.1039 94.5337 92.6281C95.4086 93.1522 96.087 93.9271 96.5333 95.0211C96.9797 96.115 97.2118 97.528 97.2118 99.2601V111.18H93.1233V99.2373C93.1233 97.9155 92.9983 96.8671 92.7305 96.0922C92.4627 95.3174 92.1235 94.7476 91.6772 94.4057C91.2308 94.0639 90.7309 93.8815 90.1418 93.8815C89.5526 93.8815 89.0348 93.9727 88.5885 94.155C88.1422 94.3374 87.7672 94.5881 87.4637 94.8843V111.18H83.3753L83.3574 111.157Z" fill="white"/>
<path d="M110.083 111.157V89.5514C110.083 88.3435 109.958 87.3635 109.69 86.6342C109.423 85.9049 108.816 85.5175 107.887 85.5175H107.352V84.5831H110.44C111.172 84.5831 111.744 84.7198 112.154 84.9933C112.565 85.2668 112.85 85.7454 113.029 86.4519C113.19 87.1584 113.279 88.1839 113.279 89.5286V109.493H124.366V111.134H110.083V111.157Z" fill="#D4AF37"/>
<path d="M127.115 111.157V97.1862C127.115 95.9783 126.99 94.9983 126.722 94.269C126.454 93.5397 125.847 93.1523 124.901 93.1523H124.365V92.2179H127.418C128.15 92.2179 128.722 92.3546 129.132 92.6281C129.543 92.9016 129.828 93.3802 130.007 94.0867C130.168 94.7932 130.257 95.8188 130.257 97.1634V111.134H127.097L127.115 111.157ZM128.543 89.916C127.972 89.916 127.507 89.6425 127.15 89.0956C126.793 88.5486 126.615 87.9105 126.615 87.1812C126.615 86.5886 126.758 86.1328 127.043 85.7909C127.329 85.4491 127.686 85.2896 128.132 85.2896C128.704 85.2896 129.168 85.5631 129.525 86.0872C129.882 86.6114 130.061 87.2495 130.061 87.9788C130.061 88.5714 129.918 89.05 129.632 89.3918C129.346 89.7337 128.989 89.916 128.543 89.916Z" fill="#D4AF37"/>
<path d="M135.042 111.157V97.1862C135.042 95.9783 134.917 94.9983 134.649 94.269C134.381 93.5397 133.774 93.1523 132.828 93.1523H132.292V92.2178H135.185C135.97 92.2178 136.559 92.3546 136.97 92.6281C137.381 92.9015 137.684 93.289 137.863 93.7904C138.291 93.3346 138.863 92.9015 139.577 92.4685C140.309 92.0355 141.184 91.8304 142.201 91.8304C143.219 91.8304 144.129 92.0355 144.951 92.4685C145.772 92.9015 146.45 93.6308 146.95 94.6792C147.45 95.7276 147.7 97.209 147.7 99.1006V111.134H144.558V99.1006C144.558 97.7559 144.397 96.6848 144.076 95.9099C143.754 95.1122 143.344 94.5425 142.844 94.2006C142.344 93.8588 141.791 93.6764 141.201 93.6764C140.577 93.6764 140.005 93.8587 139.487 94.2462C138.97 94.6336 138.541 95.0439 138.184 95.5225V111.134H135.006L135.042 111.157Z" fill="#D4AF37"/>
<path d="M163.268 111.567C162.447 111.567 161.661 111.339 160.893 110.86C160.126 110.382 159.394 109.561 158.68 108.354L155.091 102.268V111.157H151.931V89.5514C151.931 88.3435 151.806 87.3635 151.538 86.6342C151.27 85.9049 150.663 85.5175 149.735 85.5175H149.164V84.5831H152.252C152.984 84.5831 153.556 84.7198 153.966 84.9933C154.377 85.2668 154.662 85.7454 154.841 86.4519C155.002 87.1584 155.091 88.1839 155.091 89.5286V101.266L159.001 94.9527C159.519 94.1323 160.108 93.4486 160.715 92.97C161.34 92.4686 162.161 92.2179 163.214 92.2179H164.071V93.2207C163.5 93.2207 162.964 93.3802 162.447 93.6765C161.929 93.9955 161.465 94.4513 161.036 95.1123L157.662 100.514L161.661 107.123C162.268 108.126 162.839 108.878 163.339 109.379C163.857 109.881 164.411 110.222 165 110.336V111.134C164.839 111.248 164.589 111.339 164.25 111.407C163.911 111.476 163.589 111.521 163.25 111.521L163.268 111.567Z" fill="#D4AF37"/>
</svg>
