<svg viewBox="0 0 396 260" fill="none" xmlns="http://www.w3.org/2000/svg">
    <path
        d="M27.1635 213.285C23.228 213.285 19.6347 212.601 16.3409 211.189C13.047 209.82 10.181 207.895 7.74267 205.414C5.30437 202.933 3.42218 200.067 2.0533 196.773C0.684434 193.479 0 189.929 0 186.079C0 181.245 1.02665 176.881 3.07996 173.032C5.13326 169.182 8.04212 166.102 11.8065 163.834C15.5709 161.567 19.9342 160.455 24.8963 160.455C29.8585 160.455 33.4946 161.054 36.5317 162.294C39.5689 163.535 41.7506 164.947 43.1622 166.572C44.1889 167.813 44.745 169.481 44.9161 171.492C45.0872 173.502 45.13 175.384 45.13 177.095H42.8628C41.9217 172.475 40.125 169.096 37.5584 167C34.9918 164.904 31.5268 163.877 27.1208 163.877C24.0836 163.877 21.5597 164.476 19.4636 165.674C17.3675 166.872 15.6565 168.54 14.3304 170.679C13.0043 172.818 12.0204 175.17 11.4215 177.865C10.8226 180.518 10.5232 183.298 10.5232 186.164C10.5232 192.239 11.2504 197.072 12.7476 200.58C14.2448 204.088 16.2126 206.612 18.7364 208.109C21.2603 209.606 24.0408 210.333 27.1208 210.333C29.3879 210.333 31.3129 210.162 32.9385 209.82C34.564 209.478 36.0184 209.007 37.3017 208.366V194.934C37.3017 193.864 37.4728 192.837 37.8151 191.768C38.1573 190.699 38.7989 189.715 39.8256 188.774C40.8522 187.833 42.3067 187.105 44.2316 186.549C46.1566 185.993 48.766 185.736 51.9743 185.736V187.619C50.2632 187.619 49.0227 188.26 48.2955 189.501C47.5255 190.741 47.1405 192.538 47.1405 194.805V208.323C44.2316 210.077 41.1089 211.36 37.8578 212.173C34.564 212.986 31.0135 213.371 27.1208 213.371L27.1635 213.285Z"
        fill="#2E2E2E" />
    <path
        d="M73.6195 212.561C69.8979 212.561 66.6896 211.748 63.9519 210.122C61.2569 208.497 59.1608 206.272 57.7064 203.449C56.252 200.626 55.5248 197.503 55.5248 194.081C55.5248 190.658 56.252 187.493 57.7064 184.67C59.1608 181.889 61.2569 179.665 63.9519 178.039C66.6896 176.414 69.8979 175.601 73.6195 175.601C77.3412 175.601 80.635 176.414 83.33 178.039C86.0249 179.665 88.0782 181.889 89.5754 184.67C91.0726 187.45 91.7571 190.616 91.7571 194.081C91.7571 197.546 91.0299 200.626 89.5754 203.449C88.121 206.272 86.0249 208.497 83.33 210.122C80.635 211.748 77.3839 212.561 73.6195 212.561ZM73.6195 209.138C75.3734 209.138 76.8706 208.497 78.0256 207.171C79.2234 205.844 80.0789 204.048 80.6778 201.781C81.2767 199.471 81.5333 196.904 81.5333 194.038C81.5333 191.172 81.2339 188.52 80.6778 186.252C80.1217 183.985 79.2234 182.189 78.0256 180.905C76.8278 179.579 75.3734 178.937 73.6195 178.937C71.8657 178.937 70.3685 179.579 69.2135 180.905C68.0157 182.231 67.1602 183.985 66.5613 186.252C65.9624 188.52 65.7058 191.129 65.7058 194.038C65.7058 196.947 66.0052 199.471 66.5613 201.781C67.1174 204.091 68.0157 205.887 69.2135 207.171C70.4113 208.497 71.8657 209.138 73.6195 209.138Z"
        fill="#2E2E2E" />
    <path
        d="M99.2859 211.788V171.748C99.2859 169.481 98.9864 167.642 98.3448 166.273C97.7031 164.904 96.2487 164.177 94.0243 164.177H93.2543V161.909H102.323C104.077 161.909 105.446 162.209 106.43 162.808C107.414 163.407 108.098 164.433 108.526 165.845C108.911 167.257 109.125 169.224 109.125 171.748V211.788H99.3286H99.2859Z"
        fill="#2E2E2E" />
    <path
        d="M132.566 212.557C129.058 212.557 126.107 211.744 123.754 210.118C121.401 208.493 119.647 206.268 118.45 203.445C117.252 200.622 116.653 197.499 116.653 194.077C116.653 190.655 117.252 187.489 118.45 184.666C119.647 181.885 121.444 179.661 123.84 178.035C126.278 176.41 129.272 175.597 132.908 175.597C134.62 175.597 136.159 175.854 137.486 176.324C138.812 176.795 139.924 177.308 140.865 177.864V171.833C140.865 169.565 140.566 167.726 139.924 166.357C139.282 164.988 137.828 164.261 135.603 164.261H134.833V161.994H143.902C145.656 161.994 147.025 162.293 148.009 162.892C148.993 163.491 149.677 164.518 150.105 165.929C150.49 167.341 150.704 169.309 150.704 171.833V211.872H144.287L141.635 208.493H141.25C140.608 209.519 139.539 210.461 138.042 211.316C136.544 212.214 134.748 212.642 132.566 212.642V212.557ZM134.063 209.134C135.261 209.134 136.331 208.878 137.229 208.322C138.127 207.766 138.897 207.081 139.496 206.311C140.095 205.541 140.566 204.857 140.865 204.215V181.201C140.138 180.645 139.239 180.131 138.127 179.661C137.015 179.19 135.774 178.934 134.448 178.934C132.566 178.934 131.112 179.575 130 180.901C128.887 182.227 128.117 183.981 127.604 186.249C127.133 188.516 126.877 191.125 126.877 194.034C126.877 196.943 127.091 199.467 127.561 201.777C128.032 204.087 128.759 205.883 129.828 207.167C130.898 208.45 132.31 209.134 134.063 209.134Z"
        fill="#2E2E2E" />
    <path
        d="M175.387 212.561C171.879 212.561 168.799 211.748 166.19 210.165C163.58 208.582 161.57 206.358 160.158 203.577C158.746 200.797 158.062 197.631 158.062 194.081C158.062 190.06 158.789 186.68 160.244 183.942C161.698 181.205 163.709 179.109 166.19 177.697C168.714 176.285 171.537 175.601 174.66 175.601C177.782 175.601 180.606 176.242 183.129 177.483C185.653 178.724 187.621 180.52 189.075 182.787C190.53 185.055 191.257 187.707 191.257 190.701L190.958 195.45H168.243C168.243 200.455 169.013 203.962 170.553 206.058C172.093 208.154 174.103 209.181 176.542 209.181C179.151 209.181 181.29 208.582 182.916 207.384C184.541 206.187 186.038 204.689 187.322 202.936L189.674 204.689C188.947 205.802 188.006 206.957 186.851 208.197C185.653 209.438 184.156 210.464 182.317 211.32C180.477 212.176 178.167 212.603 175.387 212.603V212.561ZM168.2 192.027H181.033C181.033 187.022 180.434 183.6 179.237 181.761C178.039 179.879 176.499 178.98 174.617 178.98C173.505 178.98 172.478 179.365 171.494 180.178C170.51 180.991 169.74 182.317 169.099 184.199C168.457 186.081 168.2 188.691 168.2 192.027Z"
        fill="#2E2E2E" />
    <path
        d="M199.684 211.788V186.122C199.684 183.854 199.384 182.015 198.786 180.646C198.187 179.277 196.732 178.55 194.465 178.55H193.695V176.283H201.181C202.892 176.283 204.218 176.497 205.202 176.924C206.186 177.352 206.956 178.079 207.512 179.063C208.41 178.208 209.694 177.395 211.405 176.668C213.073 175.898 215.469 175.556 218.549 175.556C221.629 175.556 224.366 176.026 226.462 177.01C228.558 177.994 230.184 179.448 231.253 181.502C232.323 183.555 232.879 186.207 232.879 189.458V211.831H223.083V189.415C223.083 186.934 222.784 184.967 222.142 183.512C221.5 182.058 220.687 180.988 219.618 180.347C218.549 179.705 217.308 179.363 215.939 179.363C214.57 179.363 213.287 179.534 212.218 179.876C211.148 180.218 210.25 180.689 209.523 181.245V211.831H199.727L199.684 211.788Z"
        fill="#2E2E2E" />
    <path
        d="M263.722 211.788V171.235C263.722 168.968 263.422 167.128 262.781 165.759C262.139 164.391 260.685 163.663 258.46 163.663H257.177V161.909H264.577C266.331 161.909 267.7 162.166 268.684 162.679C269.668 163.193 270.352 164.091 270.78 165.417C271.165 166.743 271.379 168.668 271.379 171.192V208.665H297.944V211.745H263.722V211.788Z"
        fill="#2E2E2E" />
    <path
        d="M304.574 211.787V185.565C304.574 183.297 304.274 181.458 303.633 180.089C302.991 178.72 301.537 177.993 299.269 177.993H297.986V176.239H305.301C307.055 176.239 308.424 176.496 309.408 177.009C310.391 177.522 311.076 178.421 311.504 179.747C311.889 181.073 312.103 182.998 312.103 185.522V211.744H304.531L304.574 211.787ZM307.996 171.919C306.627 171.919 305.515 171.405 304.659 170.379C303.804 169.352 303.376 168.154 303.376 166.785C303.376 165.673 303.718 164.818 304.403 164.176C305.087 163.534 305.943 163.235 307.012 163.235C308.381 163.235 309.493 163.748 310.349 164.732C311.204 165.716 311.632 166.914 311.632 168.282C311.632 169.395 311.29 170.293 310.605 170.935C309.921 171.576 309.065 171.919 307.996 171.919Z"
        fill="#2E2E2E" />
    <path
        d="M323.567 211.786V185.563C323.567 183.296 323.267 181.457 322.626 180.088C321.984 178.719 320.53 177.992 318.263 177.992H316.979V176.238H323.909C325.791 176.238 327.203 176.494 328.187 177.008C329.171 177.521 329.898 178.248 330.326 179.189C331.352 178.334 332.721 177.521 334.432 176.708C336.186 175.896 338.282 175.511 340.721 175.511C343.159 175.511 345.341 175.896 347.308 176.708C349.276 177.521 350.902 178.89 352.099 180.858C353.297 182.826 353.896 185.606 353.896 189.157V211.743H346.367V189.157C346.367 186.633 345.982 184.622 345.212 183.168C344.442 181.671 343.458 180.601 342.261 179.959C341.063 179.318 339.737 178.976 338.325 178.976C336.828 178.976 335.459 179.318 334.218 180.045C332.978 180.772 331.951 181.542 331.096 182.441V211.743H323.481L323.567 211.786Z"
        fill="#2E2E2E" />
    <path
        d="M391.198 212.558C389.23 212.558 387.348 212.13 385.508 211.232C383.669 210.333 381.915 208.793 380.204 206.526L371.606 195.105V211.788H364.034V171.235C364.034 168.968 363.735 167.128 363.093 165.759C362.452 164.391 360.997 163.663 358.773 163.663H357.404V161.909H364.804C366.558 161.909 367.927 162.166 368.911 162.679C369.895 163.193 370.579 164.091 371.007 165.417C371.392 166.743 371.606 168.668 371.606 171.192V193.222L380.974 181.373C382.215 179.833 383.626 178.55 385.081 177.652C386.578 176.71 388.546 176.24 391.069 176.24H393.123V178.122C391.754 178.122 390.471 178.422 389.23 178.978C387.99 179.576 386.877 180.432 385.851 181.673L377.766 191.811L387.348 204.216C388.802 206.099 390.171 207.51 391.369 208.451C392.609 209.392 393.936 210.034 395.347 210.248V211.745C394.962 211.959 394.363 212.13 393.551 212.258C392.738 212.387 391.968 212.472 391.155 212.472L391.198 212.558Z"
        fill="#2E2E2E" />
    <path
        d="M27.1635 213.285C23.228 213.285 19.6347 212.601 16.3409 211.189C13.047 209.82 10.181 207.895 7.74267 205.414C5.30437 202.933 3.42218 200.067 2.0533 196.773C0.684434 193.479 0 189.929 0 186.079C0 181.245 1.02665 176.881 3.07996 173.032C5.13326 169.182 8.04212 166.102 11.8065 163.834C15.5709 161.567 19.9342 160.455 24.8963 160.455C29.8585 160.455 33.4946 161.054 36.5317 162.294C39.5689 163.535 41.7506 164.947 43.1622 166.572C44.1889 167.813 44.745 169.481 44.9161 171.492C45.0872 173.502 45.13 175.384 45.13 177.095H42.8628C41.9217 172.475 40.125 169.096 37.5584 167C34.9918 164.904 31.5268 163.877 27.1208 163.877C24.0836 163.877 21.5597 164.476 19.4636 165.674C17.3675 166.872 15.6565 168.54 14.3304 170.679C13.0043 172.818 12.0204 175.17 11.4215 177.865C10.8226 180.518 10.5232 183.298 10.5232 186.164C10.5232 192.239 11.2504 197.072 12.7476 200.58C14.2448 204.088 16.2126 206.612 18.7364 208.109C21.2603 209.606 24.0408 210.333 27.1208 210.333C29.3879 210.333 31.3129 210.162 32.9385 209.82C34.564 209.478 36.0184 209.007 37.3017 208.366V194.934C37.3017 193.864 37.4728 192.837 37.8151 191.768C38.1573 190.699 38.7989 189.715 39.8256 188.774C40.8522 187.833 42.3067 187.105 44.2316 186.549C46.1566 185.993 48.766 185.736 51.9743 185.736V187.619C50.2632 187.619 49.0227 188.26 48.2955 189.501C47.5255 190.741 47.1405 192.538 47.1405 194.805V208.323C44.2316 210.077 41.1089 211.36 37.8578 212.173C34.564 212.986 31.0135 213.371 27.1208 213.371L27.1635 213.285Z"
        fill="#D4AF37" />
    <path
        d="M73.6195 212.561C69.8979 212.561 66.6896 211.748 63.9519 210.122C61.2569 208.497 59.1608 206.272 57.7064 203.449C56.252 200.626 55.5248 197.503 55.5248 194.081C55.5248 190.658 56.252 187.493 57.7064 184.67C59.1608 181.889 61.2569 179.665 63.9519 178.039C66.6896 176.414 69.8979 175.601 73.6195 175.601C77.3412 175.601 80.635 176.414 83.33 178.039C86.0249 179.665 88.0782 181.889 89.5754 184.67C91.0726 187.45 91.7571 190.616 91.7571 194.081C91.7571 197.546 91.0299 200.626 89.5754 203.449C88.121 206.272 86.0249 208.497 83.33 210.122C80.635 211.748 77.3839 212.561 73.6195 212.561ZM73.6195 209.138C75.3734 209.138 76.8706 208.497 78.0256 207.171C79.2234 205.844 80.0789 204.048 80.6778 201.781C81.2767 199.471 81.5333 196.904 81.5333 194.038C81.5333 191.172 81.2339 188.52 80.6778 186.252C80.1217 183.985 79.2234 182.189 78.0256 180.905C76.8278 179.579 75.3734 178.937 73.6195 178.937C71.8657 178.937 70.3685 179.579 69.2135 180.905C68.0157 182.231 67.1602 183.985 66.5613 186.252C65.9624 188.52 65.7058 191.129 65.7058 194.038C65.7058 196.947 66.0052 199.471 66.5613 201.781C67.1174 204.091 68.0157 205.887 69.2135 207.171C70.4113 208.497 71.8657 209.138 73.6195 209.138Z"
        fill="#D4AF37" />
    <path
        d="M99.2859 211.788V171.748C99.2859 169.481 98.9864 167.642 98.3448 166.273C97.7031 164.904 96.2487 164.177 94.0243 164.177H93.2543V161.909H102.323C104.077 161.909 105.446 162.209 106.43 162.808C107.414 163.407 108.098 164.433 108.526 165.845C108.911 167.257 109.125 169.224 109.125 171.748V211.788H99.3286H99.2859Z"
        fill="#D4AF37" />
    <path
        d="M132.566 212.557C129.058 212.557 126.107 211.744 123.754 210.118C121.401 208.493 119.647 206.268 118.45 203.445C117.252 200.622 116.653 197.499 116.653 194.077C116.653 190.655 117.252 187.489 118.45 184.666C119.647 181.885 121.444 179.661 123.84 178.035C126.278 176.41 129.272 175.597 132.908 175.597C134.62 175.597 136.159 175.854 137.486 176.324C138.812 176.795 139.924 177.308 140.865 177.864V171.833C140.865 169.565 140.566 167.726 139.924 166.357C139.282 164.988 137.828 164.261 135.603 164.261H134.833V161.994H143.902C145.656 161.994 147.025 162.293 148.009 162.892C148.993 163.491 149.677 164.518 150.105 165.929C150.49 167.341 150.704 169.309 150.704 171.833V211.872H144.287L141.635 208.493H141.25C140.608 209.519 139.539 210.461 138.042 211.316C136.544 212.214 134.748 212.642 132.566 212.642V212.557ZM134.063 209.134C135.261 209.134 136.331 208.878 137.229 208.322C138.127 207.766 138.897 207.081 139.496 206.311C140.095 205.541 140.566 204.857 140.865 204.215V181.201C140.138 180.645 139.239 180.131 138.127 179.661C137.015 179.19 135.774 178.934 134.448 178.934C132.566 178.934 131.112 179.575 130 180.901C128.887 182.227 128.117 183.981 127.604 186.249C127.133 188.516 126.877 191.125 126.877 194.034C126.877 196.943 127.091 199.467 127.561 201.777C128.032 204.087 128.759 205.883 129.828 207.167C130.898 208.45 132.31 209.134 134.063 209.134Z"
        fill="#D4AF37" />
    <path
        d="M175.387 212.561C171.879 212.561 168.799 211.748 166.19 210.165C163.58 208.582 161.57 206.358 160.158 203.577C158.746 200.797 158.062 197.631 158.062 194.081C158.062 190.06 158.789 186.68 160.244 183.942C161.698 181.205 163.709 179.109 166.19 177.697C168.714 176.285 171.537 175.601 174.66 175.601C177.782 175.601 180.606 176.242 183.129 177.483C185.653 178.724 187.621 180.52 189.075 182.787C190.53 185.055 191.257 187.707 191.257 190.701L190.958 195.45H168.243C168.243 200.455 169.013 203.962 170.553 206.058C172.093 208.154 174.103 209.181 176.542 209.181C179.151 209.181 181.29 208.582 182.916 207.384C184.541 206.187 186.038 204.689 187.322 202.936L189.674 204.689C188.947 205.802 188.006 206.957 186.851 208.197C185.653 209.438 184.156 210.464 182.317 211.32C180.477 212.176 178.167 212.603 175.387 212.603V212.561ZM168.2 192.027H181.033C181.033 187.022 180.434 183.6 179.237 181.761C178.039 179.879 176.499 178.98 174.617 178.98C173.505 178.98 172.478 179.365 171.494 180.178C170.51 180.991 169.74 182.317 169.099 184.199C168.457 186.081 168.2 188.691 168.2 192.027Z"
        fill="#D4AF37" />
    <path
        d="M199.684 211.788V186.122C199.684 183.854 199.384 182.015 198.786 180.646C198.187 179.277 196.732 178.55 194.465 178.55H193.695V176.283H201.181C202.892 176.283 204.218 176.497 205.202 176.924C206.186 177.352 206.956 178.079 207.512 179.063C208.41 178.208 209.694 177.395 211.405 176.668C213.073 175.898 215.469 175.556 218.549 175.556C221.629 175.556 224.366 176.026 226.462 177.01C228.558 177.994 230.184 179.448 231.253 181.502C232.323 183.555 232.879 186.207 232.879 189.458V211.831H223.083V189.415C223.083 186.934 222.784 184.967 222.142 183.512C221.5 182.058 220.687 180.988 219.618 180.347C218.549 179.705 217.308 179.363 215.939 179.363C214.57 179.363 213.287 179.534 212.218 179.876C211.148 180.218 210.25 180.689 209.523 181.245V211.831H199.727L199.684 211.788Z"
        fill="#D4AF37" />
    <path
        d="M263.722 211.788V171.235C263.722 168.968 263.422 167.128 262.781 165.759C262.139 164.391 260.685 163.663 258.46 163.663H257.177V161.909H264.577C266.331 161.909 267.7 162.166 268.684 162.679C269.668 163.193 270.352 164.091 270.78 165.417C271.165 166.743 271.379 168.668 271.379 171.192V208.665H297.944V211.745H263.722V211.788Z"
        fill="#2E2E2E" />
    <path
        d="M304.574 211.787V185.565C304.574 183.297 304.274 181.458 303.633 180.089C302.991 178.72 301.537 177.993 299.269 177.993H297.986V176.239H305.301C307.055 176.239 308.424 176.496 309.408 177.009C310.391 177.522 311.076 178.421 311.504 179.747C311.889 181.073 312.103 182.998 312.103 185.522V211.744H304.531L304.574 211.787ZM307.996 171.919C306.627 171.919 305.515 171.405 304.659 170.379C303.804 169.352 303.376 168.154 303.376 166.785C303.376 165.673 303.718 164.818 304.403 164.176C305.087 163.534 305.943 163.235 307.012 163.235C308.381 163.235 309.493 163.748 310.349 164.732C311.204 165.716 311.632 166.914 311.632 168.282C311.632 169.395 311.29 170.293 310.605 170.935C309.921 171.576 309.065 171.919 307.996 171.919Z"
        fill="#2E2E2E" />
    <path
        d="M323.567 211.786V185.563C323.567 183.296 323.267 181.457 322.626 180.088C321.984 178.719 320.53 177.992 318.263 177.992H316.979V176.238H323.909C325.791 176.238 327.203 176.494 328.187 177.008C329.171 177.521 329.898 178.248 330.326 179.189C331.352 178.334 332.721 177.521 334.432 176.708C336.186 175.896 338.282 175.511 340.721 175.511C343.159 175.511 345.341 175.896 347.308 176.708C349.276 177.521 350.902 178.89 352.099 180.858C353.297 182.826 353.896 185.606 353.896 189.157V211.743H346.367V189.157C346.367 186.633 345.982 184.622 345.212 183.168C344.442 181.671 343.458 180.601 342.261 179.959C341.063 179.318 339.737 178.976 338.325 178.976C336.828 178.976 335.459 179.318 334.218 180.045C332.978 180.772 331.951 181.542 331.096 182.441V211.743H323.481L323.567 211.786Z"
        fill="#2E2E2E" />
    <path
        d="M391.198 212.558C389.23 212.558 387.348 212.13 385.508 211.232C383.669 210.333 381.915 208.793 380.204 206.526L371.606 195.105V211.788H364.034V171.235C364.034 168.968 363.735 167.128 363.093 165.759C362.452 164.391 360.997 163.663 358.773 163.663H357.404V161.909H364.804C366.558 161.909 367.927 162.166 368.911 162.679C369.895 163.193 370.579 164.091 371.007 165.417C371.392 166.743 371.606 168.668 371.606 171.192V193.222L380.974 181.373C382.215 179.833 383.626 178.55 385.081 177.652C386.578 176.71 388.546 176.24 391.069 176.24H393.123V178.122C391.754 178.122 390.471 178.422 389.23 178.978C387.99 179.576 386.877 180.432 385.851 181.673L377.766 191.811L387.348 204.216C388.802 206.099 390.171 207.51 391.369 208.451C392.609 209.392 393.936 210.034 395.347 210.248V211.745C394.962 211.959 394.363 212.13 393.551 212.258C392.738 212.387 391.968 212.472 391.155 212.472L391.198 212.558Z"
        fill="#2E2E2E" />
    <path
        d="M117.638 52.4451C117.638 44.8735 118.964 37.9008 121.659 31.527C124.311 25.1531 128.032 19.6348 132.823 14.9293C137.572 10.2238 143.133 6.54495 149.507 3.93552C155.88 1.3261 162.725 0 170.125 0C179.451 0 187.835 2.01054 195.321 5.98884C202.807 9.96714 208.71 15.571 213.116 22.8004C217.48 30.0297 219.661 38.4569 219.661 48.0818C219.661 57.7067 218.463 64.6795 216.111 70.54C213.715 76.3577 210.977 80.6354 207.897 83.3732C205.459 85.2982 202.294 86.4532 198.444 86.7098C194.551 87.0093 190.958 87.1376 187.664 87.1376V82.7743C196.604 80.9349 203.106 77.5127 207.127 72.5933C211.149 67.6311 213.159 60.915 213.159 52.4879C213.159 46.6702 212.004 41.708 209.651 37.6869C207.299 33.6658 204.133 30.372 200.026 27.7625C195.963 25.1959 191.343 23.3137 186.167 22.1587C181.033 21.0037 175.686 20.4048 170.125 20.4048C158.361 20.4048 149.079 21.8165 142.277 24.7253C135.476 27.5914 130.642 31.4414 127.776 36.318C124.91 41.1946 123.455 46.5846 123.455 52.4879C123.455 56.8512 123.797 60.6156 124.482 63.6956C125.166 66.8183 126.065 69.6416 127.262 72.1655H153.185C155.239 72.1655 157.249 72.465 159.303 73.1066C161.356 73.7483 163.281 75.0316 165.077 76.9566C166.874 78.8816 168.286 81.7476 169.398 85.4693C170.467 89.1909 170.981 94.1959 170.981 100.399H167.345C167.345 97.1047 166.147 94.7092 163.709 93.2548C161.27 91.8003 157.891 91.0731 153.528 91.0731H127.433C124.011 85.4265 121.573 79.4804 119.99 73.1494C118.45 66.8183 117.638 59.9312 117.638 52.4451Z"
        fill="#D4AF37" />
    <path
        d="M275.528 74.7745C275.528 82.3461 274.202 89.3189 271.507 95.6927C268.854 102.067 265.133 107.585 260.342 112.29C255.593 116.996 250.032 120.675 243.659 123.284C237.285 125.894 230.44 127.22 223.04 127.22C213.715 127.22 205.33 125.209 197.844 121.231C190.358 117.253 184.455 111.649 180.049 104.419C175.686 97.1899 173.504 88.7628 173.504 79.1378C173.504 69.5129 174.702 62.5402 177.054 56.6797C179.45 50.862 182.188 46.5842 185.268 43.8465C187.706 41.9215 190.872 40.7665 194.721 40.5098C198.614 40.2104 202.207 40.082 205.501 40.082V44.4453C196.561 46.2848 190.059 49.707 186.038 54.6264C182.017 59.5886 180.006 66.3046 180.006 74.7318C180.006 80.5495 181.161 85.5117 183.514 89.5327C185.867 93.5538 189.032 96.8477 193.139 99.4571C197.203 102.024 201.822 103.906 206.999 105.061C212.132 106.216 217.479 106.815 223.04 106.815C234.804 106.815 244.086 105.403 250.888 102.494C257.69 99.6282 262.523 95.7783 265.389 90.9016C268.255 86.025 269.71 80.635 269.71 74.7318C269.71 70.3685 269.368 66.604 268.683 63.5241C267.999 60.4013 267.101 57.578 265.903 55.0541H239.98C237.926 55.0541 235.916 54.7547 233.863 54.113C231.809 53.4714 229.884 52.1881 228.088 50.2631C226.291 48.3381 224.879 45.472 223.767 41.7504C222.698 38.0287 222.184 33.0238 222.184 26.821H225.82C225.82 30.1149 227.018 32.5104 229.457 33.9649C231.895 35.4193 235.274 36.1465 239.638 36.1465H265.732C269.154 41.7931 271.592 47.7392 273.175 54.0703C274.715 60.4013 275.528 67.2885 275.528 74.7745Z"
        fill="#2E2E2E" />
    <path
        d="M91.1157 259.532V241.224C91.1157 240.197 90.9873 239.384 90.6879 238.785C90.3885 238.144 89.7468 237.844 88.7202 237.844H88.0357V237.16H102.452C103.222 237.16 103.863 237.288 104.248 237.545C104.633 237.801 104.933 238.144 105.104 238.571C105.275 238.999 105.318 239.427 105.318 239.855V242.379H104.633C104.633 241.01 104.248 240.026 103.521 239.427C102.794 238.785 101.724 238.486 100.398 238.486H94.1101V247.298H103.264V248.667H94.1101V258.163H100.056C101.596 258.163 102.794 257.864 103.692 257.308C104.591 256.752 105.275 255.768 105.831 254.442L106.515 254.613L105.318 257.821C105.147 258.335 104.847 258.762 104.419 259.062C103.992 259.361 103.436 259.532 102.794 259.532H91.1157Z"
        fill="#2E2E2E" />
    <path
        d="M110.579 259.53V244.943H108.227V243.574H110.579V242.547C110.579 240.964 110.879 239.767 111.478 238.954C112.077 238.141 112.804 237.542 113.745 237.243C114.686 236.943 115.584 236.772 116.525 236.772C117.21 236.772 117.809 236.772 118.322 236.9C118.793 236.986 119.178 237.114 119.434 237.285C119.691 237.457 119.905 237.67 120.076 237.927C120.247 238.184 120.418 238.483 120.632 238.825L119.605 239.681C119.263 239.168 118.835 238.783 118.279 238.526C117.723 238.269 117.124 238.141 116.397 238.141C115.627 238.141 114.985 238.44 114.472 239.082C113.959 239.724 113.702 240.879 113.702 242.547V243.574H118.45V244.943H113.702V259.53H110.665H110.579Z"
        fill="#2E2E2E" />
    <path
        d="M122.001 259.53V244.943H119.648V243.574H122.001V242.547C122.001 240.964 122.3 239.767 122.899 238.954C123.498 238.141 124.225 237.542 125.166 237.243C126.107 236.943 127.006 236.772 127.947 236.772C128.631 236.772 129.23 236.772 129.743 236.9C130.214 236.986 130.599 237.114 130.856 237.285C131.112 237.457 131.326 237.67 131.497 237.927C131.668 238.184 131.839 238.483 132.053 238.825L131.027 239.681C130.684 239.168 130.257 238.783 129.701 238.526C129.144 238.269 128.546 238.141 127.818 238.141C127.048 238.141 126.407 238.44 125.893 239.082C125.38 239.724 125.123 240.879 125.123 242.547V243.574H129.872V244.943H125.123V259.53H122.086H122.001Z"
        fill="#2E2E2E" />
    <path
        d="M138.898 259.873C137.315 259.873 135.989 259.488 134.877 258.761C133.765 258.033 132.909 257.007 132.353 255.723C131.754 254.44 131.455 253.071 131.455 251.574C131.455 250.077 131.754 248.622 132.353 247.382C132.952 246.141 133.765 245.115 134.877 244.387C135.989 243.66 137.315 243.275 138.898 243.275C140.481 243.275 141.807 243.66 142.919 244.387C144.031 245.115 144.887 246.141 145.443 247.382C146.042 248.622 146.341 250.034 146.341 251.574C146.341 253.114 146.042 254.483 145.443 255.723C144.844 257.007 143.988 257.991 142.919 258.761C141.807 259.488 140.481 259.873 138.898 259.873ZM138.898 258.504C139.753 258.504 140.523 258.205 141.122 257.563C141.764 256.921 142.234 256.108 142.577 255.039C142.919 253.97 143.09 252.815 143.09 251.531C143.09 250.248 142.919 249.05 142.577 248.024C142.234 246.997 141.721 246.141 141.122 245.542C140.481 244.901 139.753 244.601 138.898 244.601C138.042 244.601 137.315 244.901 136.673 245.542C136.032 246.184 135.518 246.997 135.176 248.024C134.834 249.05 134.663 250.248 134.663 251.531C134.663 252.815 134.834 253.97 135.176 255.039C135.518 256.108 136.032 256.921 136.673 257.563C137.315 258.205 138.042 258.504 138.898 258.504Z"
        fill="#2E2E2E" />
    <path
        d="M150.619 259.531V247.681C150.619 246.655 150.491 245.842 150.191 245.243C149.892 244.601 149.25 244.302 148.224 244.302H147.881V243.617H150.576C151.432 243.617 152.074 243.746 152.544 244.002C152.972 244.259 153.314 244.644 153.485 245.157C153.87 244.772 154.426 244.345 155.153 243.917C155.881 243.489 156.736 243.275 157.72 243.275C158.062 243.275 158.405 243.275 158.79 243.404C159.175 243.489 159.474 243.617 159.731 243.789C159.987 243.96 160.201 244.174 160.372 244.43C160.543 244.687 160.715 244.986 160.928 245.329L159.56 246.355C159.303 246.013 158.961 245.756 158.447 245.585C157.977 245.414 157.421 245.329 156.822 245.329C156.137 245.329 155.538 245.5 154.94 245.799C154.341 246.099 153.913 246.526 153.571 247.04V259.573H150.534L150.619 259.531Z"
        fill="#2E2E2E" />
    <path
        d="M168.499 259.874C167.302 259.874 166.318 259.532 165.591 258.804C164.821 258.12 164.436 257.008 164.436 255.468V244.945H162.083V243.576H164.436V240.538L166.147 238.485H167.516V243.576H171.579V244.945H167.516V255.468C167.516 256.494 167.729 257.264 168.114 257.735C168.499 258.248 169.098 258.505 169.911 258.505C170.51 258.505 170.981 258.419 171.366 258.291C171.751 258.163 172.093 257.992 172.435 257.82L172.777 258.505C172.435 258.762 171.922 259.061 171.28 259.403C170.638 259.703 169.74 259.874 168.542 259.874H168.499Z"
        fill="#2E2E2E" />
    <path
        d="M175.386 259.532V241.224C175.386 240.197 175.258 239.384 174.958 238.785C174.659 238.144 174.017 237.844 172.991 237.844H172.306V237.16H175.343C176.156 237.16 176.755 237.245 177.183 237.459C177.611 237.673 177.953 238.058 178.124 238.657C178.295 239.256 178.381 240.111 178.381 241.224V259.532H175.343H175.386Z"
        fill="#2E2E2E" />
    <path
        d="M189.632 259.873C188.049 259.873 186.723 259.488 185.696 258.761C184.627 258.033 183.857 257.007 183.343 255.723C182.83 254.44 182.531 253.071 182.531 251.574C182.531 250.077 182.787 248.622 183.343 247.382C183.899 246.141 184.669 245.115 185.696 244.387C186.723 243.66 187.92 243.275 189.332 243.275C190.872 243.275 192.155 243.575 193.139 244.131C194.123 244.687 194.893 245.542 195.364 246.655C195.834 247.767 196.091 249.136 196.091 250.719L196.005 252.087H185.739C185.739 253.927 186.124 255.467 186.937 256.707C187.749 257.948 188.862 258.547 190.316 258.547C191.428 258.547 192.327 258.29 193.096 257.82C193.824 257.349 194.508 256.665 195.064 255.809L195.749 256.322C195.235 257.178 194.679 257.862 194.08 258.376C193.439 258.889 192.797 259.274 192.027 259.531C191.3 259.787 190.487 259.873 189.632 259.873ZM185.739 250.719H192.84C192.84 248.751 192.54 247.254 191.942 246.184C191.343 245.115 190.444 244.601 189.247 244.601C188.562 244.601 187.963 244.858 187.45 245.414C186.937 245.97 186.509 246.655 186.167 247.596C185.824 248.537 185.696 249.564 185.696 250.719H185.739Z"
        fill="#2E2E2E" />
    <path
        d="M205.288 259.873C203.919 259.873 202.807 259.745 201.952 259.531C201.096 259.274 200.454 258.975 200.027 258.547C199.599 258.119 199.342 257.648 199.299 257.092C199.214 256.536 199.214 255.852 199.214 254.996H199.898C200.069 256.108 200.54 256.964 201.31 257.606C202.08 258.247 203.192 258.547 204.647 258.547C205.93 258.547 206.871 258.333 207.47 257.862C208.069 257.392 208.368 256.836 208.368 256.151C208.368 255.467 208.112 254.911 207.598 254.44C207.085 253.97 206.315 253.542 205.288 253.114L203.278 252.259C201.994 251.745 200.968 251.104 200.283 250.419C199.556 249.692 199.214 248.794 199.214 247.681C199.214 246.27 199.727 245.157 200.797 244.43C201.866 243.66 203.192 243.275 204.775 243.275C206.058 243.275 207.128 243.404 207.94 243.617C208.796 243.874 209.395 244.174 209.823 244.601C210.25 245.029 210.507 245.5 210.55 246.056C210.593 246.612 210.635 247.296 210.635 248.152H209.951C209.78 247.04 209.309 246.184 208.539 245.542C207.769 244.901 206.743 244.601 205.374 244.601C204.262 244.601 203.406 244.815 202.85 245.286C202.294 245.756 201.994 246.312 201.994 246.997C201.994 247.596 202.251 248.109 202.722 248.622C203.192 249.093 203.877 249.521 204.732 249.906L206.743 250.761C208.197 251.36 209.267 252.002 210.037 252.686C210.764 253.371 211.149 254.312 211.149 255.51C211.149 256.921 210.593 258.033 209.438 258.761C208.325 259.531 206.914 259.916 205.203 259.916L205.288 259.873Z"
        fill="#2E2E2E" />
    <path
        d="M220.388 259.873C219.02 259.873 217.907 259.745 217.052 259.531C216.196 259.274 215.555 258.975 215.127 258.547C214.699 258.119 214.442 257.648 214.4 257.092C214.314 256.536 214.314 255.852 214.314 254.996H214.999C215.17 256.108 215.64 256.964 216.41 257.606C217.18 258.247 218.292 258.547 219.747 258.547C221.03 258.547 221.971 258.333 222.57 257.862C223.169 257.392 223.468 256.836 223.468 256.151C223.468 255.467 223.212 254.911 222.698 254.44C222.185 253.97 221.415 253.542 220.388 253.114L218.378 252.259C217.095 251.745 216.068 251.104 215.384 250.419C214.656 249.692 214.314 248.794 214.314 247.681C214.314 246.27 214.827 245.157 215.897 244.43C216.966 243.66 218.292 243.275 219.875 243.275C221.158 243.275 222.228 243.404 223.041 243.617C223.896 243.874 224.495 244.174 224.923 244.601C225.351 245.029 225.607 245.5 225.65 246.056C225.693 246.612 225.736 247.296 225.736 248.152H225.051C224.88 247.04 224.41 246.184 223.64 245.542C222.87 244.901 221.843 244.601 220.474 244.601C219.362 244.601 218.506 244.815 217.95 245.286C217.394 245.756 217.095 246.312 217.095 246.997C217.095 247.596 217.351 248.109 217.822 248.622C218.292 249.093 218.977 249.521 219.832 249.906L221.843 250.761C223.297 251.36 224.367 252.002 225.137 252.686C225.864 253.371 226.249 254.312 226.249 255.51C226.249 256.921 225.693 258.033 224.538 258.761C223.426 259.531 222.014 259.916 220.303 259.916L220.388 259.873Z"
        fill="#2E2E2E" />
    <path
        d="M239.809 259.532V241.224C239.809 240.197 239.681 239.384 239.382 238.785C239.082 238.144 238.441 237.844 237.414 237.844H236.729V237.16H250.247C251.017 237.16 251.659 237.288 252.044 237.545C252.429 237.801 252.728 238.144 252.899 238.571C253.07 238.999 253.113 239.427 253.113 239.855V242.379H252.429C252.429 241.01 252.044 240.026 251.317 239.427C250.589 238.785 249.52 238.486 248.194 238.486H242.804V247.469H250.461V248.838H242.804V259.532H239.767H239.809Z"
        fill="#2E2E2E" />
    <path
        d="M257.134 259.532V241.224C257.134 240.197 257.006 239.384 256.706 238.785C256.407 238.144 255.765 237.844 254.738 237.844H254.054V237.16H257.091C257.904 237.16 258.503 237.245 258.931 237.459C259.358 237.673 259.701 238.058 259.872 238.657C260.043 239.256 260.128 240.111 260.128 241.224V259.532H257.091H257.134Z"
        fill="#2E2E2E" />
    <path
        d="M271.721 259.873C270.138 259.873 268.812 259.488 267.7 258.761C266.587 258.033 265.732 257.007 265.176 255.723C264.577 254.44 264.277 253.071 264.277 251.574C264.277 250.077 264.577 248.622 265.176 247.382C265.775 246.141 266.587 245.115 267.7 244.387C268.812 243.66 270.138 243.275 271.721 243.275C273.303 243.275 274.63 243.66 275.742 244.387C276.854 245.115 277.709 246.141 278.266 247.382C278.864 248.622 279.164 250.034 279.164 251.574C279.164 253.114 278.864 254.483 278.266 255.723C277.667 257.007 276.811 257.991 275.742 258.761C274.63 259.488 273.303 259.873 271.721 259.873ZM271.721 258.504C272.576 258.504 273.346 258.205 273.945 257.563C274.587 256.921 275.057 256.108 275.4 255.039C275.742 253.97 275.913 252.815 275.913 251.531C275.913 250.248 275.742 249.05 275.4 248.024C275.057 246.997 274.544 246.141 273.945 245.542C273.303 244.901 272.576 244.601 271.721 244.601C270.865 244.601 270.138 244.901 269.496 245.542C268.855 246.184 268.341 246.997 267.999 248.024C267.657 249.05 267.486 250.248 267.486 251.531C267.486 252.815 267.657 253.97 267.999 255.039C268.341 256.108 268.855 256.921 269.496 257.563C270.138 258.205 270.865 258.504 271.721 258.504Z"
        fill="#2E2E2E" />
    <path
        d="M288.576 259.872L283.656 247.509C283.143 246.226 282.63 245.37 282.116 244.857C281.603 244.343 280.918 244.087 280.106 244.044V243.36C280.106 243.36 280.277 243.36 280.448 243.36C280.619 243.36 280.747 243.36 280.918 243.36C281.09 243.36 281.218 243.36 281.303 243.36C282.416 243.36 283.442 243.659 284.426 244.215C285.41 244.771 286.223 245.926 286.907 247.595L289.773 254.696L292.639 247.423C292.297 246.653 291.955 246.012 291.656 245.541C291.313 245.071 290.971 244.729 290.586 244.472C290.201 244.215 289.773 244.087 289.26 244.087V243.402C289.26 243.402 289.517 243.402 289.816 243.402C290.116 243.402 290.287 243.402 290.458 243.402C291.57 243.402 292.597 243.702 293.581 244.258C294.564 244.814 295.377 245.969 296.062 247.637L298.928 254.738L303.334 243.745H305.045L298.457 260H297.773L293.538 249.477L289.303 260H288.618L288.576 259.872Z"
        fill="#2E2E2E" />
</svg>