<svg viewBox="0 0 213 140" fill="none" xmlns="http://www.w3.org/2000/svg">
    <path
        d="M14.6265 114.846C12.5074 114.846 10.5726 114.478 8.79895 113.718C7.02534 112.981 5.48206 111.944 4.16913 110.608C2.8562 109.272 1.84271 107.729 1.10563 105.955C0.368541 104.181 0 102.27 0 100.197C0 97.5937 0.552812 95.2443 1.65844 93.1712C2.76407 91.0981 4.33037 89.4397 6.35735 88.2189C8.38434 86.9981 10.7338 86.3992 13.4057 86.3992C16.0777 86.3992 18.0355 86.7217 19.6709 87.3896C21.3063 88.0576 22.4811 88.8178 23.2412 89.6931C23.794 90.361 24.0935 91.2594 24.1856 92.342C24.2777 93.4246 24.3008 94.4381 24.3008 95.3594H23.08C22.5732 92.8718 21.6058 91.0521 20.2238 89.9234C18.8417 88.7947 16.976 88.2419 14.6035 88.2419C12.9681 88.2419 11.6091 88.5644 10.4804 89.2093C9.35176 89.8543 8.4304 90.7526 7.71635 91.9043C7.0023 93.056 6.47252 94.3229 6.15005 95.774C5.82757 97.2022 5.66634 98.6994 5.66634 100.243C5.66634 103.513 6.05791 106.116 6.8641 108.005C7.67028 109.894 8.72984 111.253 10.0888 112.059C11.4478 112.865 12.945 113.257 14.6035 113.257C15.8243 113.257 16.8608 113.165 17.7361 112.981C18.6114 112.796 19.3945 112.543 20.0856 112.197V104.965C20.0856 104.389 20.1777 103.836 20.362 103.26C20.5462 102.684 20.8917 102.154 21.4446 101.648C21.9974 101.141 22.7805 100.749 23.817 100.45C24.8536 100.151 26.2586 100.012 27.9862 100.012V101.026C27.0648 101.026 26.3968 101.371 26.0053 102.039C25.5907 102.707 25.3833 103.675 25.3833 104.896V112.174C23.817 113.119 22.1356 113.81 20.385 114.247C18.6114 114.685 16.6996 114.892 14.6035 114.892L14.6265 114.846Z"
        fill="#2E2E2E" />
    <path
        d="M39.6413 114.456C37.6373 114.456 35.9098 114.018 34.4356 113.143C32.9845 112.268 31.8558 111.07 31.0727 109.55C30.2895 108.03 29.8979 106.348 29.8979 104.505C29.8979 102.663 30.2895 100.958 31.0727 99.4379C31.8558 97.9407 32.9845 96.7429 34.4356 95.8676C35.9098 94.9923 37.6373 94.5547 39.6413 94.5547C41.6452 94.5547 43.4188 94.9923 44.87 95.8676C46.3211 96.7429 47.4267 97.9407 48.2329 99.4379C49.0391 100.935 49.4077 102.64 49.4077 104.505C49.4077 106.371 49.0161 108.03 48.2329 109.55C47.4498 111.07 46.3211 112.268 44.87 113.143C43.4188 114.018 41.6683 114.456 39.6413 114.456ZM39.6413 112.613C40.5857 112.613 41.3919 112.268 42.0138 111.554C42.6587 110.84 43.1194 109.872 43.4419 108.652C43.7644 107.408 43.9026 106.026 43.9026 104.482C43.9026 102.939 43.7413 101.511 43.4419 100.29C43.1424 99.0694 42.6587 98.1019 42.0138 97.4109C41.3688 96.6969 40.5857 96.3513 39.6413 96.3513C38.6969 96.3513 37.8907 96.6969 37.2688 97.4109C36.6238 98.125 36.1632 99.0694 35.8407 100.29C35.5182 101.511 35.38 102.916 35.38 104.482C35.38 106.049 35.5413 107.408 35.8407 108.652C36.1401 109.895 36.6238 110.863 37.2688 111.554C37.9137 112.268 38.6969 112.613 39.6413 112.613Z"
        fill="#2E2E2E" />
    <path
        d="M53.4617 114.04V92.4802C53.4617 91.2594 53.3005 90.2689 52.955 89.5319C52.6095 88.7948 51.8263 88.4032 50.6285 88.4032H50.2139V87.1824H55.0971C56.0415 87.1824 56.7786 87.3436 57.3084 87.6661C57.8382 87.9886 58.2067 88.5414 58.437 89.3015C58.6443 90.0616 58.7595 91.1212 58.7595 92.4802V114.04H53.4847H53.4617Z"
        fill="#2E2E2E" />
    <path
        d="M71.382 114.454C69.4932 114.454 67.9038 114.016 66.637 113.141C65.3701 112.266 64.4257 111.068 63.7808 109.548C63.1358 108.028 62.8134 106.346 62.8134 104.503C62.8134 102.661 63.1358 100.956 63.7808 99.4358C64.4257 97.9386 65.3932 96.7409 66.683 95.8656C67.996 94.9903 69.6084 94.5526 71.5662 94.5526C72.4876 94.5526 73.3168 94.6908 74.0309 94.9442C74.7449 95.1976 75.3438 95.474 75.8505 95.7734V92.5256C75.8505 91.3048 75.6893 90.3143 75.3438 89.5773C74.9983 88.8402 74.2151 88.4486 73.0174 88.4486H72.6028V87.2278H77.4859C78.4303 87.2278 79.1674 87.389 79.6972 87.7115C80.227 88.034 80.5955 88.5868 80.8259 89.3469C81.0332 90.107 81.1483 91.1666 81.1483 92.5256V114.086H77.6932L76.2651 112.266H76.0578C75.7123 112.819 75.1365 113.325 74.3303 113.786C73.5241 114.27 72.5567 114.5 71.382 114.5V114.454ZM72.1881 112.611C72.8331 112.611 73.4089 112.473 73.8927 112.174C74.3764 111.874 74.791 111.506 75.1135 111.091C75.4359 110.676 75.6893 110.308 75.8505 109.962V97.5701C75.459 97.2706 74.9753 96.9942 74.3764 96.7409C73.7775 96.4875 73.1095 96.3493 72.3955 96.3493C71.382 96.3493 70.5988 96.6948 69.9999 97.4088C69.401 98.1229 68.9864 99.0673 68.71 100.288C68.4567 101.509 68.3185 102.914 68.3185 104.48C68.3185 106.047 68.4336 107.406 68.687 108.649C68.9404 109.893 69.3319 110.861 69.9078 111.552C70.4836 112.243 71.2438 112.611 72.1881 112.611Z"
        fill="#2E2E2E" />
    <path
        d="M94.439 114.456C92.5502 114.456 90.8918 114.018 89.4867 113.166C88.0817 112.314 86.9991 111.116 86.2389 109.619C85.4788 108.122 85.1103 106.417 85.1103 104.505C85.1103 102.34 85.5019 100.521 86.285 99.0463C87.0682 97.5721 88.1508 96.4435 89.4867 95.6834C90.8457 94.9232 92.366 94.5547 94.0474 94.5547C95.7289 94.5547 97.2492 94.9002 98.6081 95.5682C99.9671 96.2362 101.027 97.2036 101.81 98.4244C102.593 99.6452 102.985 101.073 102.985 102.686L102.823 105.243H90.5923C90.5923 107.937 91.007 109.826 91.8362 110.955C92.6654 112.084 93.748 112.636 95.0609 112.636C96.466 112.636 97.6177 112.314 98.493 111.669C99.3683 111.024 100.174 110.218 100.865 109.273L102.132 110.218C101.741 110.817 101.234 111.439 100.612 112.107C99.9671 112.775 99.161 113.327 98.1705 113.788C97.18 114.249 95.9362 114.479 94.439 114.479V114.456ZM90.5693 103.4H97.4795C97.4795 100.705 97.157 98.862 96.5121 97.8716C95.8671 96.8581 95.0379 96.3744 94.0244 96.3744C93.4255 96.3744 92.8727 96.5817 92.3429 97.0193C91.8131 97.457 91.3985 98.171 91.053 99.1845C90.7075 100.198 90.5693 101.603 90.5693 103.4Z"
        fill="#2E2E2E" />
    <path
        d="M107.522 114.04V100.22C107.522 98.9989 107.361 98.0084 107.038 97.2713C106.716 96.5342 105.933 96.1427 104.712 96.1427H104.297V94.9218H108.328C109.25 94.9218 109.964 95.037 110.493 95.2674C111.023 95.4977 111.438 95.8893 111.737 96.4191C112.221 95.9584 112.912 95.5207 113.833 95.1292C114.732 94.7146 116.022 94.5303 117.68 94.5303C119.338 94.5303 120.813 94.7836 121.941 95.3134C123.07 95.8432 123.945 96.6264 124.521 97.732C125.097 98.8376 125.396 100.266 125.396 102.016V114.063H120.122V101.993C120.122 100.657 119.96 99.5978 119.615 98.8146C119.269 98.0315 118.832 97.4556 118.256 97.1101C117.68 96.7646 117.012 96.5803 116.275 96.5803C115.538 96.5803 114.847 96.6724 114.271 96.8567C113.695 97.041 113.211 97.2944 112.82 97.5938V114.063H107.545L107.522 114.04Z"
        fill="#2E2E2E" />
    <path
        d="M142.004 114.04V92.2038C142.004 90.983 141.843 89.9925 141.497 89.2554C141.152 88.5184 140.369 88.1268 139.171 88.1268H138.48V87.1824H142.465C143.409 87.1824 144.146 87.3206 144.676 87.597C145.206 87.8734 145.574 88.3571 145.805 89.0712C146.012 89.7852 146.127 90.8218 146.127 92.1808V112.359H160.431V114.017H142.004V114.04Z"
        fill="#2E2E2E" />
    <path
        d="M164.001 114.04V99.9198C164.001 98.699 163.84 97.7085 163.495 96.9714C163.149 96.2343 162.366 95.8428 161.145 95.8428H160.454V94.8984H164.393C165.337 94.8984 166.074 95.0366 166.604 95.313C167.134 95.5894 167.502 96.0731 167.733 96.7872C167.94 97.5012 168.055 98.5378 168.055 99.8968V114.017H163.978L164.001 114.04ZM165.844 92.5719C165.107 92.5719 164.508 92.2955 164.047 91.7427C163.587 91.1899 163.356 90.5449 163.356 89.8078C163.356 89.2089 163.541 88.7483 163.909 88.4027C164.278 88.0572 164.738 87.896 165.314 87.896C166.051 87.896 166.65 88.1724 167.111 88.7022C167.572 89.232 167.802 89.8769 167.802 90.614C167.802 91.2129 167.618 91.6966 167.249 92.0421C166.881 92.3876 166.42 92.5719 165.844 92.5719Z"
        fill="#2E2E2E" />
    <path
        d="M174.228 114.039V99.9191C174.228 98.6983 174.067 97.7078 173.722 96.9707C173.376 96.2337 172.593 95.8421 171.372 95.8421H170.681V94.8977H174.413C175.426 94.8977 176.186 95.0359 176.716 95.3123C177.246 95.5887 177.637 95.9803 177.868 96.487C178.421 96.0264 179.158 95.5887 180.079 95.1511C181.023 94.7134 182.152 94.5061 183.465 94.5061C184.778 94.5061 185.953 94.7134 187.012 95.1511C188.072 95.5887 188.947 96.3258 189.592 97.3854C190.237 98.4449 190.559 99.9422 190.559 101.854V114.016H186.505V101.854C186.505 100.495 186.298 99.4124 185.884 98.6292C185.469 97.823 184.939 97.2472 184.294 96.9016C183.649 96.5561 182.935 96.3719 182.175 96.3719C181.369 96.3719 180.632 96.5561 179.964 96.9477C179.296 97.3393 178.743 97.7539 178.282 98.2376V114.016H174.182L174.228 114.039Z"
        fill="#2E2E2E" />
    <path
        d="M210.645 114.455C209.585 114.455 208.572 114.224 207.581 113.741C206.591 113.257 205.647 112.428 204.725 111.207L200.095 105.057V114.04H196.018V92.2038C196.018 90.983 195.857 89.9925 195.512 89.2554C195.166 88.5184 194.383 88.1268 193.185 88.1268H192.448V87.1824H196.433C197.377 87.1824 198.115 87.3206 198.644 87.597C199.174 87.8734 199.543 88.3571 199.773 89.0712C199.98 89.7852 200.095 90.8218 200.095 92.1808V104.043L205.14 97.6629C205.808 96.8337 206.568 96.1426 207.351 95.6589C208.157 95.1522 209.217 94.8988 210.576 94.8988H211.681V95.9123C210.944 95.9123 210.253 96.0735 209.585 96.373C208.917 96.6954 208.319 97.1561 207.766 97.8241L203.412 103.283L208.572 109.963C209.355 110.977 210.092 111.737 210.737 112.243C211.405 112.75 212.119 113.096 212.879 113.211V114.017C212.672 114.132 212.349 114.224 211.912 114.293C211.474 114.363 211.06 114.409 210.622 114.409L210.645 114.455Z"
        fill="#2E2E2E" />
    <path
        d="M14.6265 114.846C12.5074 114.846 10.5726 114.478 8.79895 113.718C7.02534 112.981 5.48206 111.944 4.16913 110.608C2.8562 109.272 1.84271 107.729 1.10563 105.955C0.368541 104.181 0 102.27 0 100.197C0 97.5937 0.552812 95.2443 1.65844 93.1712C2.76407 91.0981 4.33037 89.4397 6.35735 88.2189C8.38434 86.9981 10.7338 86.3992 13.4057 86.3992C16.0777 86.3992 18.0355 86.7217 19.6709 87.3896C21.3063 88.0576 22.4811 88.8178 23.2412 89.6931C23.794 90.361 24.0935 91.2594 24.1856 92.342C24.2777 93.4246 24.3008 94.4381 24.3008 95.3594H23.08C22.5732 92.8718 21.6058 91.0521 20.2238 89.9234C18.8417 88.7947 16.976 88.2419 14.6035 88.2419C12.9681 88.2419 11.6091 88.5644 10.4804 89.2093C9.35176 89.8543 8.4304 90.7526 7.71635 91.9043C7.0023 93.056 6.47252 94.3229 6.15005 95.774C5.82757 97.2022 5.66634 98.6994 5.66634 100.243C5.66634 103.513 6.05791 106.116 6.8641 108.005C7.67028 109.894 8.72984 111.253 10.0888 112.059C11.4478 112.865 12.945 113.257 14.6035 113.257C15.8243 113.257 16.8608 113.165 17.7361 112.981C18.6114 112.796 19.3945 112.543 20.0856 112.197V104.965C20.0856 104.389 20.1777 103.836 20.362 103.26C20.5462 102.684 20.8917 102.154 21.4446 101.648C21.9974 101.141 22.7805 100.749 23.817 100.45C24.8536 100.151 26.2586 100.012 27.9862 100.012V101.026C27.0648 101.026 26.3968 101.371 26.0053 102.039C25.5907 102.707 25.3833 103.675 25.3833 104.896V112.174C23.817 113.119 22.1356 113.81 20.385 114.247C18.6114 114.685 16.6996 114.892 14.6035 114.892L14.6265 114.846Z"
        fill="#D4AF37" />
    <path
        d="M39.6413 114.456C37.6373 114.456 35.9098 114.018 34.4356 113.143C32.9845 112.268 31.8558 111.07 31.0727 109.55C30.2895 108.03 29.8979 106.348 29.8979 104.505C29.8979 102.663 30.2895 100.958 31.0727 99.4379C31.8558 97.9407 32.9845 96.7429 34.4356 95.8676C35.9098 94.9923 37.6373 94.5547 39.6413 94.5547C41.6452 94.5547 43.4188 94.9923 44.87 95.8676C46.3211 96.7429 47.4267 97.9407 48.2329 99.4379C49.0391 100.935 49.4077 102.64 49.4077 104.505C49.4077 106.371 49.0161 108.03 48.2329 109.55C47.4498 111.07 46.3211 112.268 44.87 113.143C43.4188 114.018 41.6683 114.456 39.6413 114.456ZM39.6413 112.613C40.5857 112.613 41.3919 112.268 42.0138 111.554C42.6587 110.84 43.1194 109.872 43.4419 108.652C43.7644 107.408 43.9026 106.026 43.9026 104.482C43.9026 102.939 43.7413 101.511 43.4419 100.29C43.1424 99.0694 42.6587 98.1019 42.0138 97.4109C41.3688 96.6969 40.5857 96.3513 39.6413 96.3513C38.6969 96.3513 37.8907 96.6969 37.2688 97.4109C36.6238 98.125 36.1632 99.0694 35.8407 100.29C35.5182 101.511 35.38 102.916 35.38 104.482C35.38 106.049 35.5413 107.408 35.8407 108.652C36.1401 109.895 36.6238 110.863 37.2688 111.554C37.9137 112.268 38.6969 112.613 39.6413 112.613Z"
        fill="#D4AF37" />
    <path
        d="M53.4617 114.04V92.4802C53.4617 91.2594 53.3005 90.2689 52.955 89.5319C52.6095 88.7948 51.8263 88.4032 50.6285 88.4032H50.2139V87.1824H55.0971C56.0415 87.1824 56.7786 87.3436 57.3084 87.6661C57.8382 87.9886 58.2067 88.5414 58.437 89.3015C58.6443 90.0616 58.7595 91.1212 58.7595 92.4802V114.04H53.4847H53.4617Z"
        fill="#D4AF37" />
    <path
        d="M71.382 114.454C69.4932 114.454 67.9038 114.016 66.637 113.141C65.3701 112.266 64.4257 111.068 63.7808 109.548C63.1358 108.028 62.8134 106.346 62.8134 104.503C62.8134 102.661 63.1358 100.956 63.7808 99.4358C64.4257 97.9386 65.3932 96.7409 66.683 95.8656C67.996 94.9903 69.6084 94.5526 71.5662 94.5526C72.4876 94.5526 73.3168 94.6908 74.0309 94.9442C74.7449 95.1976 75.3438 95.474 75.8505 95.7734V92.5256C75.8505 91.3048 75.6893 90.3143 75.3438 89.5773C74.9983 88.8402 74.2151 88.4486 73.0174 88.4486H72.6028V87.2278H77.4859C78.4303 87.2278 79.1674 87.389 79.6972 87.7115C80.227 88.034 80.5955 88.5868 80.8259 89.3469C81.0332 90.107 81.1483 91.1666 81.1483 92.5256V114.086H77.6932L76.2651 112.266H76.0578C75.7123 112.819 75.1365 113.325 74.3303 113.786C73.5241 114.27 72.5567 114.5 71.382 114.5V114.454ZM72.1881 112.611C72.8331 112.611 73.4089 112.473 73.8927 112.174C74.3764 111.874 74.791 111.506 75.1135 111.091C75.4359 110.676 75.6893 110.308 75.8505 109.962V97.5701C75.459 97.2706 74.9753 96.9942 74.3764 96.7409C73.7775 96.4875 73.1095 96.3493 72.3955 96.3493C71.382 96.3493 70.5988 96.6948 69.9999 97.4088C69.401 98.1229 68.9864 99.0673 68.71 100.288C68.4567 101.509 68.3185 102.914 68.3185 104.48C68.3185 106.047 68.4336 107.406 68.687 108.649C68.9404 109.893 69.3319 110.861 69.9078 111.552C70.4836 112.243 71.2438 112.611 72.1881 112.611Z"
        fill="#D4AF37" />
    <path
        d="M94.439 114.456C92.5502 114.456 90.8918 114.018 89.4867 113.166C88.0817 112.314 86.9991 111.116 86.2389 109.619C85.4788 108.122 85.1103 106.417 85.1103 104.505C85.1103 102.34 85.5019 100.521 86.285 99.0463C87.0682 97.5721 88.1508 96.4435 89.4867 95.6834C90.8457 94.9232 92.366 94.5547 94.0474 94.5547C95.7289 94.5547 97.2492 94.9002 98.6081 95.5682C99.9671 96.2362 101.027 97.2036 101.81 98.4244C102.593 99.6452 102.985 101.073 102.985 102.686L102.823 105.243H90.5923C90.5923 107.937 91.007 109.826 91.8362 110.955C92.6654 112.084 93.748 112.636 95.0609 112.636C96.466 112.636 97.6177 112.314 98.493 111.669C99.3683 111.024 100.174 110.218 100.865 109.273L102.132 110.218C101.741 110.817 101.234 111.439 100.612 112.107C99.9671 112.775 99.161 113.327 98.1705 113.788C97.18 114.249 95.9362 114.479 94.439 114.479V114.456ZM90.5693 103.4H97.4795C97.4795 100.705 97.157 98.862 96.5121 97.8716C95.8671 96.8581 95.0379 96.3744 94.0244 96.3744C93.4255 96.3744 92.8727 96.5817 92.3429 97.0193C91.8131 97.457 91.3985 98.171 91.053 99.1845C90.7075 100.198 90.5693 101.603 90.5693 103.4Z"
        fill="#D4AF37" />
    <path
        d="M107.522 114.04V100.22C107.522 98.9989 107.361 98.0084 107.038 97.2713C106.716 96.5342 105.933 96.1427 104.712 96.1427H104.297V94.9218H108.328C109.25 94.9218 109.964 95.037 110.493 95.2674C111.023 95.4977 111.438 95.8893 111.737 96.4191C112.221 95.9584 112.912 95.5207 113.833 95.1292C114.732 94.7146 116.022 94.5303 117.68 94.5303C119.338 94.5303 120.813 94.7836 121.941 95.3134C123.07 95.8432 123.945 96.6264 124.521 97.732C125.097 98.8376 125.396 100.266 125.396 102.016V114.063H120.122V101.993C120.122 100.657 119.96 99.5978 119.615 98.8146C119.269 98.0315 118.832 97.4556 118.256 97.1101C117.68 96.7646 117.012 96.5803 116.275 96.5803C115.538 96.5803 114.847 96.6724 114.271 96.8567C113.695 97.041 113.211 97.2944 112.82 97.5938V114.063H107.545L107.522 114.04Z"
        fill="#D4AF37" />
    <path
        d="M142.004 114.04V92.2038C142.004 90.983 141.843 89.9925 141.497 89.2554C141.152 88.5184 140.369 88.1268 139.171 88.1268H138.48V87.1824H142.465C143.409 87.1824 144.146 87.3206 144.676 87.597C145.206 87.8734 145.574 88.3571 145.805 89.0712C146.012 89.7852 146.127 90.8218 146.127 92.1808V112.359H160.431V114.017H142.004V114.04Z"
        fill="white" />
    <path
        d="M164.001 114.04V99.9198C164.001 98.699 163.84 97.7085 163.495 96.9714C163.149 96.2343 162.366 95.8428 161.145 95.8428H160.454V94.8984H164.393C165.337 94.8984 166.074 95.0366 166.604 95.313C167.134 95.5894 167.502 96.0731 167.733 96.7872C167.94 97.5012 168.055 98.5378 168.055 99.8968V114.017H163.978L164.001 114.04ZM165.844 92.5719C165.107 92.5719 164.508 92.2955 164.047 91.7427C163.587 91.1899 163.356 90.5449 163.356 89.8078C163.356 89.2089 163.541 88.7483 163.909 88.4027C164.278 88.0572 164.738 87.896 165.314 87.896C166.051 87.896 166.65 88.1724 167.111 88.7022C167.572 89.232 167.802 89.8769 167.802 90.614C167.802 91.2129 167.618 91.6966 167.249 92.0421C166.881 92.3876 166.42 92.5719 165.844 92.5719Z"
        fill="white" />
    <path
        d="M174.228 114.039V99.9191C174.228 98.6983 174.067 97.7078 173.722 96.9707C173.376 96.2337 172.593 95.8421 171.372 95.8421H170.681V94.8977H174.413C175.426 94.8977 176.186 95.0359 176.716 95.3123C177.246 95.5887 177.637 95.9803 177.868 96.487C178.421 96.0264 179.158 95.5887 180.079 95.1511C181.023 94.7134 182.152 94.5061 183.465 94.5061C184.778 94.5061 185.953 94.7134 187.012 95.1511C188.072 95.5887 188.947 96.3258 189.592 97.3854C190.237 98.4449 190.559 99.9422 190.559 101.854V114.016H186.505V101.854C186.505 100.495 186.298 99.4124 185.884 98.6292C185.469 97.823 184.939 97.2472 184.294 96.9016C183.649 96.5561 182.935 96.3719 182.175 96.3719C181.369 96.3719 180.632 96.5561 179.964 96.9477C179.296 97.3393 178.743 97.7539 178.282 98.2376V114.016H174.182L174.228 114.039Z"
        fill="white" />
    <path
        d="M210.645 114.455C209.585 114.455 208.572 114.224 207.581 113.741C206.591 113.257 205.647 112.428 204.725 111.207L200.095 105.057V114.04H196.018V92.2038C196.018 90.983 195.857 89.9925 195.512 89.2554C195.166 88.5184 194.383 88.1268 193.185 88.1268H192.448V87.1824H196.433C197.377 87.1824 198.115 87.3206 198.644 87.597C199.174 87.8734 199.543 88.3571 199.773 89.0712C199.98 89.7852 200.095 90.8218 200.095 92.1808V104.043L205.14 97.6629C205.808 96.8337 206.568 96.1426 207.351 95.6589C208.157 95.1522 209.217 94.8988 210.576 94.8988H211.681V95.9123C210.944 95.9123 210.253 96.0735 209.585 96.373C208.917 96.6954 208.319 97.1561 207.766 97.8241L203.412 103.283L208.572 109.963C209.355 110.977 210.092 111.737 210.737 112.243C211.405 112.75 212.119 113.096 212.879 113.211V114.017C212.672 114.132 212.349 114.224 211.912 114.293C211.474 114.363 211.06 114.409 210.622 114.409L210.645 114.455Z"
        fill="white" />
    <path
        d="M63.3433 28.2398C63.3433 24.1627 64.0573 20.4082 65.5084 16.9761C66.9365 13.544 68.9405 10.5726 71.5203 8.03889C74.0771 5.50514 77.0715 3.52421 80.5035 2.11914C83.9356 0.714057 87.621 0 91.6058 0C96.6272 0 101.142 1.0826 105.173 3.22477C109.204 5.36694 112.382 8.3844 114.755 12.2772C117.104 16.1699 118.279 20.7076 118.279 25.8903C118.279 31.073 117.634 34.8275 116.367 37.9832C115.077 41.1158 113.603 43.4192 111.945 44.8934C110.632 45.9299 108.927 46.5519 106.854 46.6901C104.758 46.8513 102.823 46.9204 101.05 46.9204V44.5709C105.864 43.5805 109.365 41.7378 111.53 39.0888C113.695 36.4169 114.778 32.8005 114.778 28.2628C114.778 25.1302 114.156 22.4582 112.889 20.293C111.622 18.1278 109.918 16.3542 107.707 14.9491C105.518 13.5671 103.031 12.5536 100.244 11.9317C97.4795 11.3097 94.6003 10.9873 91.6058 10.9873C85.2715 10.9873 80.2732 11.7474 76.6108 13.3137C72.9484 14.857 70.3456 16.93 68.8023 19.5559C67.259 22.1818 66.4759 25.0841 66.4759 28.2628C66.4759 30.6123 66.6601 32.6393 67.0287 34.2977C67.3972 35.9792 67.8809 37.4995 68.5259 38.8585H82.4844C83.5901 38.8585 84.6726 39.0197 85.7783 39.3652C86.8839 39.7108 87.9204 40.4018 88.8878 41.4383C89.8553 42.4748 90.6154 44.0181 91.2143 46.0221C91.7901 48.0261 92.0665 50.721 92.0665 54.061H90.1086C90.1086 52.2874 89.4637 50.9974 88.1508 50.2143C86.8378 49.4311 85.0182 49.0396 82.6687 49.0396H68.618C66.7753 45.9991 65.4624 42.7973 64.6101 39.3883C63.7809 35.9792 63.3433 32.2707 63.3433 28.2398Z"
        fill="#D4AF37" />
    <path
        d="M148.361 40.2633C148.361 44.3404 147.647 48.0949 146.196 51.527C144.768 54.9591 142.764 57.9305 140.184 60.4642C137.628 62.998 134.633 64.9789 131.201 66.384C127.769 67.7891 124.084 68.5031 120.099 68.5031C115.077 68.5031 110.563 67.4205 106.532 65.2784C102.501 63.1362 99.3222 60.1187 96.9497 56.226C94.6003 52.3332 93.4255 47.7955 93.4255 42.6128C93.4255 37.4302 94.0705 33.6756 95.3373 30.5199C96.6272 27.3873 98.1014 25.0839 99.7599 23.6097C101.073 22.5732 102.777 21.9513 104.85 21.813C106.946 21.6518 108.881 21.5827 110.655 21.5827V23.9322C105.841 24.9226 102.34 26.7654 100.174 29.4143C98.0093 32.0862 96.9267 35.7026 96.9267 40.2403C96.9267 43.3729 97.5486 46.0449 98.8155 48.2101C100.082 50.3753 101.787 52.1489 103.998 53.554C106.186 54.9361 108.674 55.9496 111.461 56.5715C114.225 57.1934 117.104 57.5159 120.099 57.5159C126.433 57.5159 131.431 56.7557 135.094 55.1894C138.756 53.6461 141.359 51.5731 142.902 48.9472C144.446 46.3213 145.229 43.419 145.229 40.2403C145.229 37.8908 145.044 35.8638 144.676 34.2054C144.307 32.5239 143.824 31.0036 143.179 29.6446H129.22C128.115 29.6446 127.032 29.4834 125.926 29.1379C124.821 28.7924 123.784 28.1013 122.817 27.0648C121.849 26.0283 121.089 24.485 120.49 22.481C119.915 20.4771 119.638 17.7821 119.638 14.4421H121.596C121.596 16.2158 122.241 17.5057 123.554 18.2888C124.867 19.072 126.686 19.4636 129.036 19.4636H143.087C144.929 22.5041 146.242 25.7058 147.094 29.1148C147.924 32.5239 148.361 36.2324 148.361 40.2633Z"
        fill="white" />
    <path
        d="M49.0623 139.749V129.89C49.0623 129.337 48.9932 128.9 48.8319 128.577C48.6707 128.232 48.3252 128.07 47.7724 128.07H47.4038V127.702H55.1662C55.5808 127.702 55.9263 127.771 56.1337 127.909C56.341 128.047 56.5022 128.232 56.5943 128.462C56.6865 128.692 56.7095 128.923 56.7095 129.153V130.512H56.341C56.341 129.775 56.1337 129.245 55.7421 128.923C55.3505 128.577 54.7747 128.416 54.0606 128.416H50.6746V133.161H55.6039V133.898H50.6746V139.012H53.8763C54.7056 139.012 55.3505 138.85 55.8342 138.551C56.3179 138.252 56.6865 137.722 56.9859 137.008L57.3545 137.1L56.7095 138.827C56.6174 139.104 56.4561 139.334 56.2258 139.495C55.9955 139.657 55.696 139.749 55.3505 139.749H49.0623Z"
        fill="white" />
    <path
        d="M59.5427 139.747V131.893H58.2759V131.156H59.5427V130.603C59.5427 129.751 59.704 129.106 60.0265 128.668C60.3489 128.23 60.7405 127.908 61.2473 127.747C61.754 127.585 62.2377 127.493 62.7445 127.493C63.113 127.493 63.4355 127.493 63.7119 127.562C63.9653 127.608 64.1726 127.677 64.3108 127.77C64.449 127.862 64.5641 127.977 64.6563 128.115C64.7484 128.253 64.8405 128.415 64.9557 128.599L64.4029 129.059C64.2186 128.783 63.9883 128.576 63.6888 128.438C63.3894 128.299 63.0669 128.23 62.6754 128.23C62.2607 128.23 61.9152 128.391 61.6388 128.737C61.3624 129.083 61.2242 129.704 61.2242 130.603V131.156H63.781V131.893H61.2242V139.747H59.5888H59.5427Z"
        fill="white" />
    <path
        d="M65.6927 139.747V131.893H64.4258V131.156H65.6927V130.603C65.6927 129.751 65.8539 129.106 66.1764 128.668C66.4989 128.23 66.8905 127.908 67.3972 127.747C67.904 127.585 68.3877 127.493 68.8944 127.493C69.263 127.493 69.5854 127.493 69.8618 127.562C70.1152 127.608 70.3225 127.677 70.4607 127.77C70.5989 127.862 70.7141 127.977 70.8062 128.115C70.8984 128.253 70.9905 128.415 71.1057 128.599L70.5529 129.059C70.3686 128.783 70.1382 128.576 69.8388 128.438C69.5394 128.299 69.2169 128.23 68.8253 128.23C68.4107 128.23 68.0652 128.391 67.7888 128.737C67.5124 129.083 67.3742 129.704 67.3742 130.603V131.156H69.9309V131.893H67.3742V139.747H65.7388H65.6927Z"
        fill="white" />
    <path
        d="M74.7912 139.932C73.9389 139.932 73.2249 139.725 72.626 139.333C72.0271 138.942 71.5664 138.389 71.267 137.698C70.9445 137.007 70.7833 136.27 70.7833 135.463C70.7833 134.657 70.9445 133.874 71.267 133.206C71.5894 132.538 72.0271 131.985 72.626 131.594C73.2249 131.202 73.9389 130.995 74.7912 130.995C75.6434 130.995 76.3575 131.202 76.9563 131.594C77.5552 131.985 78.0159 132.538 78.3153 133.206C78.6378 133.874 78.7991 134.634 78.7991 135.463C78.7991 136.293 78.6378 137.03 78.3153 137.698C77.9929 138.389 77.5322 138.919 76.9563 139.333C76.3575 139.725 75.6434 139.932 74.7912 139.932ZM74.7912 139.195C75.2518 139.195 75.6665 139.034 75.9889 138.688C76.3344 138.343 76.5878 137.905 76.7721 137.329C76.9563 136.753 77.0485 136.131 77.0485 135.44C77.0485 134.749 76.9563 134.104 76.7721 133.552C76.5878 132.999 76.3114 132.538 75.9889 132.216C75.6434 131.87 75.2518 131.709 74.7912 131.709C74.3305 131.709 73.9389 131.87 73.5934 132.216C73.2479 132.561 72.9715 132.999 72.7872 133.552C72.6029 134.104 72.5108 134.749 72.5108 135.44C72.5108 136.131 72.6029 136.753 72.7872 137.329C72.9715 137.905 73.2479 138.343 73.5934 138.688C73.9389 139.034 74.3305 139.195 74.7912 139.195Z"
        fill="white" />
    <path
        d="M81.1024 139.748V133.367C81.1024 132.815 81.0333 132.377 80.8721 132.054C80.7108 131.709 80.3653 131.548 79.8125 131.548H79.6282V131.179H81.0794C81.5401 131.179 81.8856 131.248 82.1389 131.386C82.3693 131.525 82.5535 131.732 82.6457 132.008C82.853 131.801 83.1524 131.571 83.544 131.34C83.9356 131.11 84.3962 130.995 84.926 130.995C85.1103 130.995 85.2946 130.995 85.5019 131.064C85.7092 131.11 85.8704 131.179 86.0086 131.271C86.1468 131.363 86.262 131.479 86.3541 131.617C86.4463 131.755 86.5384 131.916 86.6536 132.1L85.9165 132.653C85.7783 132.469 85.594 132.331 85.3176 132.239C85.0642 132.147 84.7648 132.1 84.4423 132.1C84.0738 132.1 83.7513 132.193 83.4288 132.354C83.1064 132.515 82.876 132.745 82.6917 133.022V139.771H81.0563L81.1024 139.748Z"
        fill="white" />
    <path
        d="M90.7305 139.933C90.0855 139.933 89.5557 139.748 89.1642 139.357C88.7496 138.988 88.5423 138.389 88.5423 137.56V131.894H87.2754V131.157H88.5423V129.521L89.4636 128.416H90.2007V131.157H92.3889V131.894H90.2007V137.56C90.2007 138.113 90.3159 138.527 90.5232 138.781C90.7305 139.057 91.053 139.195 91.4906 139.195C91.8131 139.195 92.0664 139.149 92.2737 139.08C92.4811 139.011 92.6653 138.919 92.8496 138.827L93.0339 139.195C92.8496 139.334 92.5732 139.495 92.2277 139.679C91.8822 139.84 91.3985 139.933 90.7535 139.933H90.7305Z"
        fill="white" />
    <path
        d="M94.4389 139.749V129.89C94.4389 129.337 94.3698 128.9 94.2086 128.577C94.0473 128.232 93.7018 128.07 93.149 128.07H92.7805V127.702H94.4159C94.8535 127.702 95.176 127.748 95.4063 127.863C95.6367 127.978 95.8209 128.186 95.9131 128.508C96.0052 128.831 96.0513 129.291 96.0513 129.89V139.749H94.4159H94.4389Z"
        fill="white" />
    <path
        d="M102.109 139.932C101.257 139.932 100.543 139.725 99.9901 139.333C99.4142 138.942 98.9996 138.389 98.7232 137.698C98.4468 137.007 98.2856 136.27 98.2856 135.463C98.2856 134.657 98.4238 133.874 98.7232 133.206C99.0227 132.538 99.4373 131.985 99.9901 131.594C100.543 131.202 101.188 130.995 101.948 130.995C102.777 130.995 103.468 131.156 103.998 131.456C104.528 131.755 104.942 132.216 105.196 132.815C105.449 133.413 105.587 134.151 105.587 135.003L105.541 135.74H100.013C100.013 136.73 100.22 137.56 100.658 138.228C101.096 138.896 101.695 139.218 102.478 139.218C103.077 139.218 103.56 139.08 103.975 138.826C104.367 138.573 104.735 138.205 105.035 137.744L105.403 138.02C105.127 138.481 104.827 138.849 104.505 139.126C104.159 139.402 103.814 139.61 103.399 139.748C103.008 139.886 102.57 139.932 102.109 139.932ZM100.013 135.003H103.837C103.837 133.943 103.676 133.137 103.353 132.561C103.031 131.985 102.547 131.709 101.902 131.709C101.533 131.709 101.211 131.847 100.934 132.147C100.658 132.446 100.428 132.815 100.243 133.321C100.059 133.828 99.9901 134.381 99.9901 135.003H100.013Z"
        fill="white" />
    <path
        d="M110.54 139.932C109.803 139.932 109.204 139.863 108.743 139.748C108.282 139.61 107.937 139.448 107.707 139.218C107.476 138.988 107.338 138.734 107.315 138.435C107.269 138.135 107.269 137.767 107.269 137.306H107.637C107.73 137.905 107.983 138.366 108.398 138.711C108.812 139.057 109.411 139.218 110.194 139.218C110.885 139.218 111.392 139.103 111.714 138.849C112.037 138.596 112.198 138.297 112.198 137.928C112.198 137.56 112.06 137.26 111.784 137.007C111.507 136.753 111.093 136.523 110.54 136.293L109.457 135.832C108.766 135.556 108.213 135.21 107.845 134.842C107.453 134.45 107.269 133.966 107.269 133.367C107.269 132.607 107.545 132.008 108.121 131.617C108.697 131.202 109.411 130.995 110.263 130.995C110.954 130.995 111.53 131.064 111.968 131.179C112.429 131.317 112.751 131.479 112.981 131.709C113.212 131.939 113.35 132.193 113.373 132.492C113.396 132.792 113.419 133.16 113.419 133.621H113.05C112.958 133.022 112.705 132.561 112.29 132.216C111.876 131.87 111.323 131.709 110.586 131.709C109.987 131.709 109.526 131.824 109.227 132.077C108.927 132.331 108.766 132.63 108.766 132.999C108.766 133.321 108.904 133.598 109.158 133.874C109.411 134.128 109.78 134.358 110.24 134.565L111.323 135.026C112.106 135.348 112.682 135.694 113.097 136.062C113.488 136.431 113.695 136.938 113.695 137.583C113.695 138.343 113.396 138.942 112.774 139.333C112.175 139.748 111.415 139.955 110.494 139.955L110.54 139.932Z"
        fill="white" />
    <path
        d="M118.671 139.932C117.934 139.932 117.335 139.863 116.874 139.748C116.413 139.61 116.068 139.448 115.837 139.218C115.607 138.988 115.469 138.734 115.446 138.435C115.4 138.135 115.4 137.767 115.4 137.306H115.768C115.861 137.905 116.114 138.366 116.528 138.711C116.943 139.057 117.542 139.218 118.325 139.218C119.016 139.218 119.523 139.103 119.845 138.849C120.168 138.596 120.329 138.297 120.329 137.928C120.329 137.56 120.191 137.26 119.914 137.007C119.638 136.753 119.223 136.523 118.671 136.293L117.588 135.832C116.897 135.556 116.344 135.21 115.976 134.842C115.584 134.45 115.4 133.966 115.4 133.367C115.4 132.607 115.676 132.008 116.252 131.617C116.828 131.202 117.542 130.995 118.394 130.995C119.085 130.995 119.661 131.064 120.099 131.179C120.559 131.317 120.882 131.479 121.112 131.709C121.343 131.939 121.481 132.193 121.504 132.492C121.527 132.792 121.55 133.16 121.55 133.621H121.181C121.089 133.022 120.836 132.561 120.421 132.216C120.007 131.87 119.454 131.709 118.717 131.709C118.118 131.709 117.657 131.824 117.358 132.077C117.058 132.331 116.897 132.63 116.897 132.999C116.897 133.321 117.035 133.598 117.289 133.874C117.542 134.128 117.911 134.358 118.371 134.565L119.454 135.026C120.237 135.348 120.813 135.694 121.227 136.062C121.619 136.431 121.826 136.938 121.826 137.583C121.826 138.343 121.527 138.942 120.905 139.333C120.306 139.748 119.546 139.955 118.625 139.955L118.671 139.932Z"
        fill="white" />
    <path
        d="M129.128 139.749V129.89C129.128 129.337 129.059 128.9 128.898 128.577C128.736 128.232 128.391 128.07 127.838 128.07H127.47V127.702H134.748C135.163 127.702 135.508 127.771 135.716 127.909C135.923 128.047 136.084 128.232 136.176 128.462C136.268 128.692 136.292 128.923 136.292 129.153V130.512H135.923C135.923 129.775 135.716 129.245 135.324 128.923C134.933 128.577 134.357 128.416 133.643 128.416H130.74V133.253H134.863V133.99H130.74V139.749H129.105H129.128Z"
        fill="white" />
    <path
        d="M138.457 139.749V129.89C138.457 129.337 138.388 128.9 138.226 128.577C138.065 128.232 137.72 128.07 137.167 128.07H136.798V127.702H138.434C138.871 127.702 139.194 127.748 139.424 127.863C139.655 127.978 139.839 128.186 139.931 128.508C140.023 128.831 140.069 129.291 140.069 129.89V139.749H138.434H138.457Z"
        fill="white" />
    <path
        d="M146.311 139.932C145.459 139.932 144.745 139.725 144.146 139.333C143.547 138.942 143.087 138.389 142.787 137.698C142.465 137.007 142.303 136.27 142.303 135.463C142.303 134.657 142.465 133.874 142.787 133.206C143.11 132.538 143.547 131.985 144.146 131.594C144.745 131.202 145.459 130.995 146.311 130.995C147.164 130.995 147.878 131.202 148.476 131.594C149.075 131.985 149.536 132.538 149.835 133.206C150.158 133.874 150.319 134.634 150.319 135.463C150.319 136.293 150.158 137.03 149.835 137.698C149.513 138.389 149.052 138.919 148.476 139.333C147.878 139.725 147.164 139.932 146.311 139.932ZM146.311 139.195C146.772 139.195 147.187 139.034 147.509 138.688C147.855 138.343 148.108 137.905 148.292 137.329C148.476 136.753 148.569 136.131 148.569 135.44C148.569 134.749 148.476 134.104 148.292 133.552C148.108 132.999 147.832 132.538 147.509 132.216C147.164 131.87 146.772 131.709 146.311 131.709C145.851 131.709 145.459 131.87 145.114 132.216C144.768 132.561 144.492 132.999 144.307 133.552C144.123 134.104 144.031 134.749 144.031 135.44C144.031 136.131 144.123 136.753 144.307 137.329C144.492 137.905 144.768 138.343 145.114 138.688C145.459 139.034 145.851 139.195 146.311 139.195Z"
        fill="white" />
    <path
        d="M155.387 139.931L152.738 133.275C152.461 132.584 152.185 132.123 151.909 131.846C151.632 131.57 151.264 131.432 150.826 131.409V131.04C150.826 131.04 150.918 131.04 151.01 131.04C151.102 131.04 151.172 131.04 151.264 131.04C151.356 131.04 151.425 131.04 151.471 131.04C152.07 131.04 152.623 131.202 153.152 131.501C153.682 131.8 154.12 132.422 154.488 133.321L156.032 137.144L157.575 133.229C157.391 132.814 157.206 132.468 157.045 132.215C156.861 131.962 156.677 131.777 156.469 131.639C156.262 131.501 156.032 131.432 155.755 131.432V131.063C155.755 131.063 155.893 131.063 156.055 131.063C156.216 131.063 156.308 131.063 156.4 131.063C156.999 131.063 157.552 131.225 158.082 131.524C158.611 131.823 159.049 132.445 159.418 133.344L160.961 137.167L163.333 131.248H164.255L160.708 140.001H160.339L158.059 134.334L155.778 140.001H155.41L155.387 139.931Z"
        fill="white" />
</svg>