<svg width="24" height="24" viewBox="0 0 30 30" fill="none" xmlns="http://www.w3.org/2000/svg">
    <g clip-path="url(#clip0_1770_41338)">
        <path
            d="M18.6708 26.5766C18.1355 27.6387 17.7816 28.7913 17.646 30L28.975 27.8453C29.5103 26.7834 29.8639 25.6306 29.9997 24.4219L18.6708 26.5766Z"
            fill="currentColor" />
        <path
            d="M28.9751 21.3899C29.5104 20.328 29.8643 19.1752 29.9999 17.9665L21.175 19.6458V16.4175L28.9748 14.9345C29.5102 13.8726 29.864 12.7198 29.9996 11.5111L21.1747 13.189V1.57905C19.8225 2.25838 18.6216 3.16263 17.6454 4.22926V13.8604L14.116 14.5316V0C12.7638 0.679089 11.5628 1.58358 10.5866 2.65021V15.2026L2.68965 16.7041C2.15431 17.7659 1.80017 18.9187 1.66434 20.1274L10.5866 18.4309V22.4964L1.02465 24.3144C0.489303 25.3763 0.135433 26.5291 -0.000137329 27.7378L10.0086 25.8347C10.8233 25.6831 11.5236 25.2521 11.9789 24.659L13.8144 22.2241C14.005 21.9722 14.116 21.668 14.116 21.3409V17.7597L17.6454 17.0885V23.5451L28.9751 21.3899Z"
            fill="currentColor" />
    </g>
    <defs>
        <clipPath id="clip0_1770_41338">
            <rect width="30" height="30" fill="red" />
        </clipPath>
    </defs>
</svg>