<svg viewBox="0 0 63 50" fill="none" xmlns="http://www.w3.org/2000/svg">
    <path
        d="M0.0237691 20.606C0.0237691 17.6272 0.546642 14.894 1.60031 12.3905C2.64606 9.88708 4.1117 7.71636 5.98137 5.86253C7.85104 4.00871 10.0376 2.57476 12.5332 1.54486C15.0287 0.514952 17.7302 0 20.6298 0C24.2899 0 27.5935 0.784312 30.5327 2.34501C33.4719 3.90572 35.8011 6.11605 37.5123 8.95225C39.2314 11.7964 40.0871 15.1079 40.0871 18.8789C40.0871 22.65 39.6196 25.407 38.6848 27.6965C37.75 29.9861 36.6725 31.6656 35.4525 32.7351C34.5018 33.4957 33.258 33.9393 31.729 34.0502C30.2 34.1611 28.7898 34.2245 27.4905 34.2245V32.5054C31.0001 31.7765 33.5511 30.4456 35.1277 28.4967C36.7121 26.5478 37.5044 23.9176 37.5044 20.5981C37.5044 18.3085 37.0449 16.3676 36.1338 14.791C35.2148 13.2065 33.9552 11.9073 32.3549 10.9011C30.7545 9.88708 28.9403 9.15823 26.9201 8.69873C24.8999 8.23924 22.8005 8.00949 20.6219 8.00949C16.0031 8.00949 12.3589 8.57197 9.68903 9.69695C7.0192 10.8219 5.11784 12.3351 3.99286 14.2444C2.86789 16.1537 2.3054 18.2689 2.3054 20.5981C2.3054 22.3172 2.44008 23.7829 2.70944 25.0029C2.9788 26.223 3.33531 27.3321 3.7948 28.3224H13.9829C14.7831 28.3224 15.5833 28.4491 16.3834 28.6947C17.1836 28.9403 17.9362 29.4473 18.6413 30.2079C19.3464 30.9684 19.9089 32.0855 20.3287 33.559C20.7486 35.0247 20.9546 36.9815 20.9546 39.4295H19.5207C19.5207 38.1302 19.0453 37.1954 18.0867 36.625C17.136 36.0546 15.7972 35.7694 14.078 35.7694H3.83441C2.49554 33.559 1.52901 31.2061 0.918992 28.7264C0.308971 26.2467 0 23.5373 0 20.5981L0.0237691 20.606Z"
        fill="#D4AF37" />
    <path
        d="M62.0324 29.394C62.0324 32.3728 61.5095 35.106 60.4559 37.6095C59.4101 40.1129 57.9445 42.2836 56.0748 44.1375C54.2051 45.9913 52.0186 47.4252 49.523 48.4551C47.0275 49.485 44.326 50 41.4264 50C37.7663 50 34.4627 49.2157 31.5235 47.655C28.5843 46.0943 26.2551 43.884 24.5439 41.0478C22.8247 38.2036 21.9691 34.8921 21.9691 31.1211C21.9691 27.35 22.4365 24.593 23.3714 22.3035C24.3062 20.0139 25.3836 18.3344 26.6037 17.2649C27.5544 16.5043 28.7982 16.0607 30.3272 15.9498C31.8562 15.8389 33.2664 15.7755 34.5656 15.7755V17.4946C31.056 18.2235 28.5051 19.5544 26.9285 21.5033C25.344 23.4522 24.5518 26.0824 24.5518 29.4019C24.5518 31.6915 25.0113 33.6324 25.9224 35.209C26.8414 36.7935 28.101 38.0927 29.7013 39.0989C31.3016 40.1129 33.1159 40.8418 35.1361 41.3013C37.1563 41.7608 39.2557 41.9905 41.4343 41.9905C46.053 41.9905 49.6973 41.428 52.3672 40.303C55.037 39.1781 56.9383 37.6649 58.0633 35.7556C59.1883 33.8463 59.7508 31.7311 59.7508 29.4019C59.7508 27.6828 59.6161 26.2171 59.3467 24.9971C59.0774 23.777 58.7209 22.6679 58.2614 21.6776H48.0732C47.2731 21.6776 46.4729 21.5509 45.6728 21.3053C44.8726 21.0597 44.12 20.5526 43.4149 19.7921C42.7098 19.0316 42.1473 17.9145 41.7274 16.441C41.3076 14.9753 41.1016 13.0185 41.1016 10.5705H42.5355C42.5355 11.8698 43.0109 12.8046 43.9695 13.375C44.9202 13.9454 46.259 14.2306 47.9782 14.2306H58.2218C59.5606 16.441 60.5272 18.7939 61.1372 21.2736C61.7472 23.7533 62.0562 26.4627 62.0562 29.4019L62.0324 29.394Z"
        fill="#2E2E2E" />
</svg>