<svg width="18" height="18" viewBox="0 0 18 18" fill="none" xmlns="http://www.w3.org/2000/svg">
<path fill-rule="evenodd" clip-rule="evenodd" d="M12.0267 13.9458C11.6601 13.9458 11.3629 14.2482 11.3629 14.6215C11.3629 14.9946 11.6601 15.2971 12.0267 15.2971H14.0178V17.3241C14.0178 17.6972 14.3149 17.9998 14.6815 17.9998C15.048 17.9998 15.3452 17.6972 15.3452 17.3241V15.2971H17.3363C17.7028 15.2971 18 14.9946 18 14.6215C18 14.2482 17.7028 13.9458 17.3363 13.9458H15.3452V11.9188C15.3452 11.5456 15.048 11.2432 14.6815 11.2432C14.3149 11.2432 14.0178 11.5456 14.0178 11.9188V13.9458L12.0267 13.9458Z" fill="currentColor"/>
<path d="M3.97508 9.92773C5.19348 9.92773 5.80267 9.92773 6.28425 10.1274C6.94631 10.402 7.47162 10.9368 7.74133 11.6108C7.9375 12.101 7.9375 12.7212 7.9375 13.9615C7.9375 15.2019 7.9375 15.822 7.74133 16.3123C7.47162 16.9863 6.94631 17.5211 6.28425 17.7956C5.80267 17.9953 5.19348 17.9953 3.97508 17.9953C2.75669 17.9953 2.14749 17.9953 1.66592 17.7956C1.00386 17.5211 0.478532 16.9863 0.208803 16.3123C0.0127001 15.822 0.0126996 15.2019 0.0126996 13.9615C0.0126996 12.7212 0.0127001 12.101 0.208803 11.6108C0.478532 10.9368 1.00386 10.402 1.66592 10.1274C2.14749 9.92773 2.75669 9.92773 3.97508 9.92773Z" fill="currentColor"/>
<path d="M14.0376 0C15.256 0 15.8652 -6.71207e-08 16.3468 0.199707C17.0088 0.474267 17.5342 1.00905 17.8038 1.68303C18 2.17328 18 2.79344 18 4.03379C18 5.27413 18 5.8943 17.8038 6.38454C17.5342 7.05854 17.0088 7.59332 16.3468 7.86791C15.8652 8.06755 15.256 8.06755 14.0376 8.06755C12.8192 8.06755 12.21 8.06755 11.7284 7.86791C11.0663 7.59332 10.541 7.05854 10.2714 6.38454C10.0752 5.8943 10.0752 5.27413 10.0752 4.03379C10.0752 2.79344 10.0752 2.17328 10.2714 1.68303C10.541 1.00905 11.0663 0.474267 11.7284 0.199707C12.21 -6.71207e-08 12.8192 0 14.0376 0Z" fill="currentColor"/>
<path d="M3.96729 0C5.18567 0 5.79486 -2.55059e-07 6.27645 0.199725C6.93847 0.474312 7.46386 1.00907 7.7335 1.68302C7.92969 2.17328 7.92969 2.79344 7.92969 4.03377C7.92969 5.27419 7.92969 5.89436 7.7335 6.38453C7.46386 7.05856 6.93847 7.59332 6.27645 7.86791C5.79486 8.06764 5.18567 8.06764 3.96729 8.06764C2.7489 8.06764 2.13971 8.06764 1.65813 7.86791C0.996018 7.59332 0.470719 7.05856 0.201079 6.38453C0.00488806 5.89436 0.0048871 5.27419 0.0048871 4.03377C0.0048871 2.79344 0.00488806 2.17328 0.201079 1.68302C0.470719 1.00907 0.996018 0.474312 1.65813 0.199725C2.13971 -2.55059e-07 2.7489 0 3.96729 0Z" fill="currentColor"/>
</svg>
