<svg width="18" height="18" viewBox="0 0 18 18" fill="none" xmlns="http://www.w3.org/2000/svg">
<path d="M14.0153 8.64711C13.5878 8.53461 13.0853 8.47461 12.4853 8.47461C11.6528 8.47461 11.3453 8.67711 10.9178 8.99961C10.8953 9.01461 10.8728 9.03711 10.8503 9.05961L10.1378 9.81711C9.54531 10.4546 8.45781 10.4546 7.85781 9.81711L7.14531 9.06711C7.12281 9.03711 7.10031 9.01461 7.07781 8.99961C6.64281 8.67711 6.33531 8.47461 5.51031 8.47461C4.91031 8.47461 4.40781 8.52711 3.98031 8.64711C2.19531 9.12711 2.19531 10.5446 2.19531 11.7896V12.4871C2.19531 14.3696 2.19531 16.4996 6.20781 16.4996H11.7878C14.4503 16.4996 15.8003 15.1496 15.8003 12.4871V11.7896C15.8003 10.5446 15.8003 9.12711 14.0153 8.64711Z" fill="currentColor"/>
<path d="M11.0938 1.5H6.90875C3.59375 1.5 3.59375 3.2625 3.59375 4.815V7.59C3.62375 7.575 3.66125 7.5675 3.69125 7.56C4.21625 7.4175 4.80875 7.35 5.51375 7.35C6.66875 7.35 7.21625 7.6875 7.75625 8.1C7.83125 8.1525 7.90625 8.22 7.97375 8.295L8.67875 9.0375C8.75375 9.12 8.87375 9.165 9.00125 9.165C9.12875 9.165 9.24875 9.12 9.31625 9.045L10.0363 8.2875C10.0963 8.2275 10.1637 8.16 10.2387 8.1075C10.7937 7.6875 11.3337 7.35 12.4887 7.35C13.1937 7.35 13.7863 7.4175 14.3112 7.56C14.3413 7.5675 14.3787 7.575 14.4087 7.59V4.815C14.4087 3.2625 14.4088 1.5 11.0938 1.5ZM10.1638 6.375H7.83875C7.55375 6.375 7.31375 6.135 7.31375 5.85C7.31375 5.5575 7.55375 5.325 7.83875 5.325H10.1638C10.4488 5.325 10.6888 5.5575 10.6888 5.85C10.6888 6.135 10.4488 6.375 10.1638 6.375ZM10.7487 4.2825H7.25375C6.96875 4.2825 6.73625 4.0425 6.73625 3.7575C6.73625 3.465 6.96875 3.2325 7.25375 3.2325H10.7487C11.0338 3.2325 11.2663 3.465 11.2663 3.7575C11.2663 4.0425 11.0338 4.2825 10.7487 4.2825Z" fill="currentColor"/>
</svg>
