<svg width="18" height="18" viewBox="0 0 18 18" fill="none" xmlns="http://www.w3.org/2000/svg">
<path d="M15 9V13.5C15 15.1575 13.6575 16.5 12 16.5H6C4.3425 16.5 3 15.1575 3 13.5V9C3 8.5875 3.3375 8.25 3.75 8.25H5.2275C5.64 8.25 5.9775 8.5875 5.9775 9V11.355C5.9775 11.91 6.285 12.42 6.7725 12.6825C6.99 12.8025 7.23 12.8625 7.4775 12.8625C7.7625 12.8625 8.0475 12.78 8.295 12.615L9.0075 12.15L9.6675 12.5925C10.125 12.9 10.71 12.9375 11.1975 12.675C11.6925 12.4125 12 11.91 12 11.3475V9C12 8.5875 12.3375 8.25 12.75 8.25H14.25C14.6625 8.25 15 8.5875 15 9Z" fill="currentColor"/>
<path d="M16.125 5.25V6C16.125 6.825 15.7275 7.5 14.625 7.5H3.375C2.2275 7.5 1.875 6.825 1.875 6V5.25C1.875 4.425 2.2275 3.75 3.375 3.75H14.625C15.7275 3.75 16.125 4.425 16.125 5.25Z" fill="currentColor"/>
<path d="M8.73204 3.75008H4.59204C4.33704 3.47258 4.34454 3.04508 4.61454 2.77508L5.67954 1.71008C5.95704 1.43258 6.41454 1.43258 6.69204 1.71008L8.73204 3.75008Z" fill="currentColor"/>
<path d="M13.4056 3.75008H9.26562L11.3056 1.71008C11.5831 1.43258 12.0406 1.43258 12.3181 1.71008L13.3831 2.77508C13.6531 3.04508 13.6606 3.47258 13.4056 3.75008Z" fill="currentColor"/>
<path d="M10.4756 8.25C10.8881 8.25 11.2256 8.5875 11.2256 9V11.3475C11.2256 11.9475 10.5581 12.3075 10.0631 11.97L9.38813 11.52C9.14063 11.355 8.81813 11.355 8.56313 11.52L7.85812 11.985C7.36312 12.315 6.70312 11.955 6.70312 11.3625V9C6.70312 8.5875 7.04062 8.25 7.45312 8.25H10.4756Z" fill="currentColor"/>
</svg>
