<svg width="18" height="20" viewBox="0 0 18 20" fill="none" xmlns="http://www.w3.org/2000/svg">
<path fill-rule="evenodd" clip-rule="evenodd" d="M17.9998 8.46589C17.9959 10.6468 17.9996 12.8277 17.9996 15.0086C17.9997 15.9054 17.9997 16.678 17.9073 17.2968C17.808 17.9599 17.5845 18.5955 17.0111 19.1111C16.4378 19.6266 15.7309 19.8277 14.9935 19.9168C14.3054 20.0001 13.4461 20 12.4489 20H5.55109C4.55382 20 3.69456 20.0001 3.00647 19.9168C2.26904 19.8277 1.56217 19.6266 0.988825 19.1111C0.41547 18.5955 0.191896 17.9599 0.0927537 17.2968C0.000237433 16.678 0.000293715 15.9054 0.000349963 15.0086C0.000349963 12.8277 0.00409635 10.6468 0.000170262 8.46589C-0.00111219 7.74447 -0.00225984 7.10395 0.281679 6.51842C0.565629 5.93289 1.08837 5.49779 1.67714 5.00776C2.86127 4.02219 4.04201 3.03331 5.22437 2.04602C5.90616 1.47667 6.4962 0.983928 7.02984 0.642272C7.60323 0.275134 8.23343 0 8.99998 0C9.76652 0 10.3967 0.275134 10.9701 0.642272C11.5038 0.983928 12.0938 1.47667 12.7755 2.04602C13.95 3.02677 15.1386 4.02214 16.3229 5.00776C16.9116 5.4978 17.4343 5.93289 17.7183 6.51842C18.0022 7.10395 18.0011 7.74448 17.9998 8.46589ZM8.99964 13.9304C8.37833 13.9304 7.87468 14.3833 7.87468 14.942V16.9652C7.87468 17.5239 7.37104 17.9768 6.74973 17.9768C6.12844 17.9768 5.62477 17.5239 5.62477 16.9652V14.942C5.62477 13.2659 7.1357 11.9072 8.99964 11.9072C10.8636 11.9072 12.3745 13.2659 12.3745 14.942V16.9652C12.3745 17.5239 11.8709 17.9768 11.2495 17.9768C10.6282 17.9768 10.1246 17.5239 10.1246 16.9652V14.942C10.1246 14.3833 9.62095 13.9304 8.99964 13.9304Z" fill="currentColor"/>
</svg>
