<svg width="18" height="18" viewBox="0 0 18 18" fill="none" xmlns="http://www.w3.org/2000/svg">
<path d="M14.5064 10.8675L13.7564 9.6225C13.5989 9.345 13.4564 8.82 13.4564 8.5125V6.615C13.4564 4.8525 12.4214 3.33 10.9289 2.6175C10.5389 1.9275 9.81892 1.5 8.99392 1.5C8.17642 1.5 7.44142 1.9425 7.05142 2.64C5.58892 3.3675 4.57642 4.875 4.57642 6.615V8.5125C4.57642 8.82 4.43392 9.345 4.27642 9.615L3.51892 10.8675C3.21892 11.37 3.15142 11.925 3.33892 12.435C3.51892 12.9375 3.94642 13.3275 4.50142 13.515C5.95642 14.01 7.48642 14.25 9.01642 14.25C10.5464 14.25 12.0764 14.01 13.5314 13.5225C14.0564 13.35 14.4614 12.9525 14.6564 12.435C14.8514 11.9175 14.7989 11.3475 14.5064 10.8675Z" fill="currentColor"/>
<path d="M11.1203 15.0075C10.8053 15.8775 9.97281 16.5 8.99781 16.5C8.40531 16.5 7.82031 16.26 7.40781 15.8325C7.16781 15.6075 6.98781 15.3075 6.88281 15C6.98031 15.015 7.07781 15.0225 7.18281 15.0375C7.35531 15.06 7.53531 15.0825 7.71531 15.0975C8.14281 15.135 8.57781 15.1575 9.01281 15.1575C9.44031 15.1575 9.86781 15.135 10.2878 15.0975C10.4453 15.0825 10.6028 15.075 10.7528 15.0525C10.8728 15.0375 10.9928 15.0225 11.1203 15.0075Z" fill="currentColor"/>
</svg>
