<svg width="19" height="20" viewBox="0 0 19 20" fill="none" xmlns="http://www.w3.org/2000/svg">
<path d="M16.6958 10.54C16.7363 10.24 16.7566 9.93 16.7566 9.6C16.7566 9.28 16.7363 8.96 16.6856 8.66L18.7424 7.08C18.8311 7.0079 18.8916 6.9077 18.9138 6.79647C18.936 6.68524 18.9184 6.56987 18.864 6.47L16.9187 3.15C16.8614 3.04957 16.77 2.97238 16.6605 2.93211C16.5511 2.89184 16.4308 2.8911 16.3209 2.93L13.8993 3.89C13.3928 3.51 12.8558 3.19 12.258 2.95L11.8932 0.410003C11.8753 0.295533 11.8163 0.19121 11.7271 0.115979C11.6379 0.0407481 11.5243 -0.000401505 11.4069 2.9534e-06H7.51622C7.27306 2.9534e-06 7.08055 0.170003 7.04002 0.410003L6.67527 2.95C6.07749 3.19 5.53036 3.52 5.0339 3.89L2.61236 2.93C2.38946 2.85 2.13616 2.93 2.01458 3.15L0.0793767 6.47C-0.0422066 6.68 -0.00167893 6.94 0.20096 7.08L2.25775 8.66C2.20709 8.96 2.16656 9.29 2.16656 9.6C2.16656 9.91 2.18682 10.24 2.23748 10.54L0.180696 12.12C0.0920659 12.1921 0.0315069 12.2923 0.00933709 12.4035C-0.0128328 12.5148 0.00475825 12.6301 0.0591129 12.73L2.00445 16.05C2.12603 16.27 2.37933 16.34 2.60223 16.27L5.02377 15.31C5.53036 15.69 6.06736 16.01 6.66514 16.25L7.02989 18.79C7.08055 19.03 7.27306 19.2 7.51622 19.2H11.4069C11.6501 19.2 11.8527 19.03 11.8831 18.79L12.2478 16.25C12.8456 16.01 13.3928 15.69 13.8892 15.31L16.3108 16.27C16.5337 16.35 16.787 16.27 16.9085 16.05L18.8539 12.73C18.9755 12.51 18.9248 12.26 18.7323 12.12L16.6958 10.54ZM9.46156 13.2C7.45543 13.2 5.81406 11.58 5.81406 9.6C5.81406 7.62 7.45543 6 9.46156 6C11.4677 6 13.1091 7.62 13.1091 9.6C13.1091 11.58 11.4677 13.2 9.46156 13.2Z" fill="currentColor"/>
</svg>
