<svg viewBox="0 0 183 40" fill="none" xmlns="http://www.w3.org/2000/svg">
    <path
        d="M0 16.4896C0 14.1089 0.416945 11.9166 1.26429 9.91257C2.09818 7.90854 3.26832 6.1735 4.77471 4.69402C6.26765 3.21453 8.01614 2.05783 10.0202 1.23739C12.0242 0.416947 14.1762 0 16.503 0C19.4351 0 22.0713 0.632145 24.425 1.88299C26.7788 3.13383 28.6348 4.89576 30.0202 7.1688C31.3921 9.44183 32.078 12.0915 32.078 15.1177C32.078 18.1439 31.7014 20.3362 30.9617 22.1789C30.2085 24.0081 29.3477 25.3531 28.3793 26.2139C27.6126 26.8191 26.6174 27.1822 25.4069 27.2629C24.1829 27.3571 23.0531 27.3974 22.0175 27.3974V26.0256C24.8285 25.4472 26.8729 24.3712 28.1372 22.8245C29.4015 21.2643 30.0336 19.1527 30.0336 16.503C30.0336 14.6738 29.6705 13.1137 28.9307 11.8494C28.191 10.5851 27.1957 9.54943 25.9045 8.72898C24.6268 7.92199 23.1742 7.3302 21.5467 6.96705C19.9328 6.6039 18.2515 6.4156 16.503 6.4156C12.8043 6.4156 9.88567 6.85945 7.74714 7.77404C5.60861 8.67518 4.08877 9.88567 3.18762 11.419C2.28648 12.9523 1.82919 14.6469 1.82919 16.503C1.82919 17.8749 1.93678 19.0585 2.15198 20.0269C2.36718 21.0087 2.64963 21.8964 3.02623 22.69H11.1769C11.8225 22.69 12.4546 22.7841 13.1002 22.9859C13.7458 23.1876 14.351 23.5911 14.9159 24.1964C15.4808 24.8016 15.9247 25.7028 16.2744 26.8729C16.6106 28.043 16.772 29.6167 16.772 31.5669H15.6288C15.6288 30.5313 15.2522 29.7781 14.4855 29.3208C13.7189 28.8635 12.6564 28.6348 11.2845 28.6348H3.08003C2.00404 26.8595 1.23739 24.9899 0.739743 22.9993C0.255547 21.0087 0 18.8433 0 16.4896Z"
        fill="#D4AF37" />
    <path
        d="M49.6437 23.5104C49.6437 25.8911 49.2267 28.0834 48.3794 30.0874C47.5455 32.0915 46.3754 33.8265 44.869 35.306C43.376 36.7855 41.6275 37.9422 39.6235 38.7626C37.6195 39.5831 35.4675 40 33.1407 40C30.2086 40 27.5724 39.3679 25.2187 38.117C22.8649 36.8662 21.0088 35.1043 19.6235 32.8312C18.2516 30.5582 17.5657 27.9086 17.5657 24.8823C17.5657 21.8561 17.9423 19.6638 18.682 17.8211C19.4352 15.9919 20.296 14.647 21.2644 13.7862C22.031 13.1809 23.0263 12.8178 24.2368 12.7371C25.4608 12.6429 26.5906 12.6026 27.6262 12.6026V13.9745C24.8152 14.5528 22.7708 15.6288 21.5065 17.1755C20.2422 18.7357 19.6101 20.8474 19.6101 23.497C19.6101 25.3262 19.9732 26.8864 20.713 28.1507C21.4527 29.4149 22.448 30.4506 23.7392 31.271C25.0169 32.078 26.4695 32.6698 28.0969 33.033C29.7109 33.3961 31.3922 33.5844 33.1407 33.5844C36.8394 33.5844 39.758 33.1406 41.8965 32.226C44.0351 31.3248 45.5549 30.1143 46.4561 28.5811C47.3572 27.0478 47.8145 25.3531 47.8145 23.497C47.8145 22.1251 47.7069 20.9415 47.4917 19.9731C47.2765 18.9913 46.9941 18.1036 46.6175 17.31H38.4668C37.8212 17.31 37.1891 17.2159 36.5435 17.0141C35.8979 16.8124 35.2926 16.4089 34.7277 15.8036C34.1629 15.1984 33.719 14.2973 33.3693 13.1271C33.0331 11.957 32.8717 10.3833 32.8717 8.43311H34.0149C34.0149 9.46875 34.3915 10.2219 35.1581 10.6792C35.9248 11.1365 36.9873 11.3652 38.3592 11.3652H46.5637C47.6396 13.1406 48.4063 15.0101 48.9039 17.0007C49.3881 18.9913 49.6437 21.1567 49.6437 23.5104Z"
        fill="currentColor" />
    <path
        d="M66.5407 21.2777C65.3033 21.2777 64.1735 21.0625 63.1379 20.6187C62.1022 20.1883 61.2011 19.5831 60.4344 18.803C59.6678 18.0229 59.076 17.1217 58.6456 16.0861C58.2152 15.0504 58 13.9341 58 12.7236C58 11.2038 58.3228 9.83187 58.9684 8.62138C59.614 7.41089 60.5286 6.44251 61.7122 5.72966C62.8958 5.01682 64.2677 4.66711 65.8278 4.66711C67.388 4.66711 68.5313 4.85542 69.4862 5.24547C70.4412 5.63551 71.1271 6.07936 71.571 6.59046C71.8937 6.9805 72.0686 7.50504 72.1224 8.13719C72.1762 8.76933 72.1896 9.36113 72.1896 9.89913H71.4768C71.1809 8.44654 70.616 7.384 69.809 6.72495C69.002 6.06591 67.9126 5.74311 66.5272 5.74311C65.5723 5.74311 64.7787 5.93141 64.1197 6.30801C63.4607 6.68461 62.9227 7.20915 62.5057 7.88164C62.0888 8.55414 61.7794 9.29388 61.5911 10.1412C61.4028 10.9751 61.3087 11.8494 61.3087 12.7505C61.3087 14.6604 61.5373 16.1802 62.0081 17.2831C62.4788 18.386 63.0975 19.1796 63.8911 19.6503C64.6846 20.1211 65.5588 20.3497 66.5272 20.3497C67.2401 20.3497 67.8453 20.2959 68.3564 20.1883C68.8675 20.0807 69.3248 19.9328 69.7283 19.731V15.5077C69.7283 15.1715 69.7821 14.8487 69.8897 14.5124C69.9973 14.1762 70.1991 13.8668 70.5219 13.5709C70.8447 13.275 71.302 13.0464 71.9072 12.8716C72.5124 12.6967 73.3329 12.616 74.3416 12.616V13.2078C73.8036 13.2078 73.4136 13.4096 73.1849 13.7996C72.9428 14.1896 72.8218 14.7545 72.8218 15.4674V19.7176C71.9072 20.269 70.9254 20.6725 69.9032 20.928C68.8675 21.1836 67.7512 21.3046 66.5272 21.3046L66.5407 21.2777Z"
        fill="#003E58" />
    <path
        d="M81.1473 21.0491C79.9772 21.0491 78.9684 20.7936 78.1076 20.2825C77.2603 19.7714 76.6012 19.072 76.144 18.1843C75.6867 17.2966 75.458 16.3148 75.458 15.2388C75.458 14.1628 75.6867 13.1675 76.144 12.2798C76.6012 11.4055 77.2603 10.7061 78.1076 10.195C78.9684 9.68395 79.9772 9.42841 81.1473 9.42841C82.3175 9.42841 83.3531 9.68395 84.2004 10.195C85.0478 10.7061 85.6934 11.4055 86.1641 12.2798C86.6349 13.154 86.8501 14.1493 86.8501 15.2388C86.8501 16.3282 86.6214 17.2966 86.1641 18.1843C85.7068 19.072 85.0478 19.7714 84.2004 20.2825C83.3531 20.7936 82.3309 21.0491 81.1473 21.0491ZM81.1473 19.9731C81.6988 19.9731 82.1695 19.7714 82.5327 19.3544C82.9093 18.9375 83.1783 18.3726 83.3666 17.6597C83.5548 16.9334 83.6355 16.1265 83.6355 15.2253C83.6355 14.3242 83.5414 13.4903 83.3666 12.7774C83.1917 12.0646 82.9093 11.4997 82.5327 11.0962C82.1561 10.6792 81.6988 10.4775 81.1473 10.4775C80.5959 10.4775 80.1251 10.6792 79.762 11.0962C79.3854 11.5131 79.1164 12.0646 78.9281 12.7774C78.7398 13.4903 78.6591 14.3107 78.6591 15.2253C78.6591 16.1399 78.7532 16.9334 78.9281 17.6597C79.1029 18.386 79.3854 18.9509 79.762 19.3544C80.1386 19.7714 80.5959 19.9731 81.1473 19.9731Z"
        fill="#003E58" />
    <path
        d="M89.2172 20.8069V8.21781C89.2172 7.50497 89.1231 6.92662 88.9213 6.49622C88.7196 6.06583 88.2623 5.83717 87.5629 5.83717H87.3208V5.12433H90.1722C90.7236 5.12433 91.154 5.21848 91.4634 5.40678C91.7727 5.59507 91.9879 5.91787 92.1224 6.36172C92.2435 6.80556 92.3107 7.42427 92.3107 8.21781V20.8069H89.2307H89.2172Z"
        fill="#003E58" />
    <path
        d="M99.6813 21.049C98.5785 21.049 97.6504 20.7935 96.9107 20.2824C96.1709 19.7713 95.6195 19.0719 95.2429 18.1842C94.8663 17.2965 94.678 16.3147 94.678 15.2387C94.678 14.1627 94.8663 13.1674 95.2429 12.2797C95.6195 11.4054 96.1844 10.7061 96.9376 10.195C97.7042 9.68386 98.6457 9.42831 99.7889 9.42831C100.327 9.42831 100.811 9.50901 101.228 9.65696C101.645 9.80491 101.995 9.96631 102.291 10.1412V8.24472C102.291 7.53187 102.196 6.95353 101.995 6.52313C101.793 6.09273 101.336 5.86409 100.636 5.86409H100.394V5.15125H103.246C103.797 5.15125 104.227 5.24539 104.537 5.43369C104.846 5.62199 105.061 5.94479 105.196 6.38863C105.317 6.83248 105.384 7.45117 105.384 8.24472V20.8338H103.367L102.533 19.7713H102.412C102.21 20.0941 101.874 20.39 101.403 20.659C100.932 20.9414 100.367 21.0759 99.6813 21.0759V21.049ZM100.152 19.973C100.529 19.973 100.865 19.8923 101.147 19.7175C101.43 19.5426 101.672 19.3274 101.86 19.0853C102.049 18.8432 102.196 18.628 102.291 18.4263V11.1902C102.062 11.0154 101.78 10.854 101.43 10.7061C101.08 10.5581 100.69 10.4774 100.273 10.4774C99.6813 10.4774 99.224 10.6792 98.8743 11.0961C98.5246 11.513 98.2825 12.0645 98.1211 12.7773C97.9732 13.4902 97.8925 14.3106 97.8925 15.2252C97.8925 16.1398 97.9598 16.9334 98.1077 17.6596C98.2557 18.3859 98.4843 18.9508 98.8205 19.3543C99.1568 19.7578 99.6006 19.973 100.152 19.973Z"
        fill="#003E58" />
    <path
        d="M113.144 21.0491C112.042 21.0491 111.073 20.7936 110.253 20.2959C109.432 19.7983 108.8 19.0989 108.356 18.2246C107.912 17.3504 107.697 16.3551 107.697 15.2388C107.697 13.9745 107.926 12.9119 108.383 12.0511C108.841 11.1903 109.473 10.5313 110.253 10.0874C111.046 9.6436 111.934 9.42841 112.916 9.42841C113.898 9.42841 114.785 9.63015 115.579 10.0202C116.372 10.4102 116.991 10.9751 117.448 11.688C117.906 12.4008 118.134 13.2347 118.134 14.1762L118.04 15.6692H110.898C110.898 17.2428 111.14 18.3457 111.625 19.0047C112.109 19.6638 112.741 19.9866 113.508 19.9866C114.328 19.9866 115.001 19.7983 115.512 19.4217C116.023 19.0451 116.494 18.5743 116.897 18.0229L117.637 18.5743C117.408 18.924 117.112 19.2872 116.749 19.6772C116.372 20.0673 115.902 20.3901 115.323 20.6591C114.745 20.9281 114.019 21.0626 113.144 21.0626V21.0491ZM110.885 14.5932H114.92C114.92 13.0195 114.732 11.9435 114.355 11.3652C113.978 10.7734 113.494 10.4909 112.902 10.4909C112.553 10.4909 112.23 10.612 111.921 10.8675C111.611 11.1231 111.369 11.54 111.167 12.1318C110.966 12.7236 110.885 13.5441 110.885 14.5932Z"
        fill="#003E58" />
    <path
        d="M120.784 20.807V12.737C120.784 12.0242 120.69 11.4459 120.502 11.0155C120.313 10.5851 119.856 10.3564 119.143 10.3564H118.901V9.64356H121.255C121.793 9.64356 122.21 9.71081 122.519 9.84531C122.828 9.97981 123.071 10.2085 123.245 10.5178C123.528 10.2488 123.931 9.99327 124.469 9.76462C124.994 9.52252 125.747 9.41492 126.716 9.41492C127.684 9.41492 128.545 9.56286 129.204 9.87221C129.863 10.1816 130.374 10.6389 130.71 11.2845C131.046 11.93 131.221 12.7639 131.221 13.7861V20.8204H128.141V13.7727C128.141 12.9926 128.047 12.3739 127.845 11.9166C127.644 11.4593 127.388 11.123 127.052 10.9213C126.716 10.7196 126.325 10.612 125.895 10.612C125.465 10.612 125.061 10.6658 124.725 10.7734C124.389 10.881 124.106 11.0289 123.878 11.2038V20.8204H120.798L120.784 20.807Z"
        fill="#003E58" />
    <path
        d="M140.919 20.8069V8.05641C140.919 7.34356 140.825 6.76522 140.623 6.33482C140.421 5.90442 139.964 5.67578 139.264 5.67578H138.861V5.12433H141.188C141.739 5.12433 142.17 5.20503 142.479 5.36643C142.788 5.52783 143.003 5.81027 143.138 6.22722C143.259 6.64417 143.326 7.24941 143.326 8.04295V19.8251H151.679V20.7935H140.919V20.8069Z"
        fill="#003E58" />
    <path
        d="M153.763 20.807V12.5622C153.763 11.8494 153.669 11.271 153.468 10.8406C153.266 10.4102 152.808 10.1816 152.096 10.1816H151.692V9.63015H153.992C154.544 9.63015 154.974 9.71085 155.283 9.87225C155.593 10.0336 155.808 10.3161 155.942 10.733C156.063 11.15 156.131 11.7552 156.131 12.5488V20.7936H153.75L153.763 20.807ZM154.839 8.27172C154.409 8.27172 154.059 8.11032 153.79 7.78752C153.521 7.46473 153.387 7.08812 153.387 6.65773C153.387 6.30803 153.494 6.03903 153.71 5.83728C153.925 5.63553 154.194 5.54138 154.53 5.54138C154.96 5.54138 155.31 5.70279 155.579 6.01214C155.848 6.32148 155.983 6.69807 155.983 7.12847C155.983 7.47817 155.875 7.76062 155.66 7.96237C155.445 8.16412 155.176 8.27172 154.839 8.27172Z"
        fill="#003E58" />
    <path
        d="M159.735 20.807V12.5622C159.735 11.8494 159.641 11.271 159.439 10.8406C159.237 10.4102 158.78 10.1816 158.067 10.1816H157.664V9.63014H159.843C160.434 9.63014 160.878 9.71083 161.188 9.87223C161.497 10.0336 161.726 10.2623 161.86 10.5582C162.183 10.2892 162.613 10.0336 163.151 9.77808C163.703 9.52254 164.362 9.40149 165.129 9.40149C165.895 9.40149 166.581 9.52254 167.2 9.77808C167.818 10.0336 168.33 10.464 168.706 11.0827C169.083 11.7014 169.271 12.5757 169.271 13.692V20.7936H166.904V13.692C166.904 12.8985 166.783 12.2663 166.541 11.809C166.299 11.3383 165.989 11.002 165.613 10.8003C165.236 10.5985 164.819 10.4909 164.375 10.4909C163.905 10.4909 163.474 10.5985 163.084 10.8272C162.694 11.0558 162.371 11.2979 162.102 11.5804V20.7936H159.708L159.735 20.807Z"
        fill="#003E58" />
    <path
        d="M180.999 21.049C180.381 21.049 179.789 20.9145 179.211 20.6321C178.632 20.3496 178.081 19.8654 177.543 19.1526L174.839 15.5615V20.8069H172.459V8.05641C172.459 7.34356 172.365 6.76522 172.163 6.33482C171.961 5.90442 171.504 5.67578 170.804 5.67578H170.374V5.12433H172.701C173.252 5.12433 173.683 5.20503 173.992 5.36643C174.301 5.52783 174.517 5.81027 174.651 6.22722C174.772 6.64417 174.839 7.24941 174.839 8.04295V14.9697L177.785 11.244C178.175 10.7598 178.619 10.3563 179.076 10.0739C179.547 9.77799 180.166 9.63004 180.959 9.63004H181.605V10.2218C181.174 10.2218 180.771 10.316 180.381 10.4908C179.991 10.6791 179.641 10.9481 179.318 11.3382L176.776 14.5258L179.789 18.4263C180.246 19.0181 180.677 19.4619 181.053 19.7578C181.443 20.0537 181.86 20.2555 182.304 20.3227V20.7935C182.183 20.8607 181.995 20.9145 181.739 20.9549C181.484 20.9952 181.242 21.0221 180.986 21.0221L180.999 21.049Z"
        fill="#003E58" />
    <path
        d="M66.5407 21.2777C65.3033 21.2777 64.1735 21.0625 63.1379 20.6187C62.1022 20.1883 61.2011 19.5831 60.4344 18.803C59.6678 18.0229 59.076 17.1217 58.6456 16.0861C58.2152 15.0504 58 13.9341 58 12.7236C58 11.2038 58.3228 9.83187 58.9684 8.62138C59.614 7.41089 60.5286 6.44251 61.7122 5.72966C62.8958 5.01682 64.2677 4.66711 65.8278 4.66711C67.388 4.66711 68.5313 4.85542 69.4862 5.24547C70.4412 5.63551 71.1271 6.07936 71.571 6.59046C71.8937 6.9805 72.0686 7.50504 72.1224 8.13719C72.1762 8.76933 72.1896 9.36113 72.1896 9.89913H71.4768C71.1809 8.44654 70.616 7.384 69.809 6.72495C69.002 6.06591 67.9126 5.74311 66.5272 5.74311C65.5723 5.74311 64.7787 5.93141 64.1197 6.30801C63.4607 6.68461 62.9227 7.20915 62.5057 7.88164C62.0888 8.55414 61.7794 9.29388 61.5911 10.1412C61.4028 10.9751 61.3087 11.8494 61.3087 12.7505C61.3087 14.6604 61.5373 16.1802 62.0081 17.2831C62.4788 18.386 63.0975 19.1796 63.8911 19.6503C64.6846 20.1211 65.5588 20.3497 66.5272 20.3497C67.2401 20.3497 67.8453 20.2959 68.3564 20.1883C68.8675 20.0807 69.3248 19.9328 69.7283 19.731V15.5077C69.7283 15.1715 69.7821 14.8487 69.8897 14.5124C69.9973 14.1762 70.1991 13.8668 70.5219 13.5709C70.8447 13.275 71.302 13.0464 71.9072 12.8716C72.5124 12.6967 73.3329 12.616 74.3416 12.616V13.2078C73.8036 13.2078 73.4136 13.4096 73.1849 13.7996C72.9428 14.1896 72.8218 14.7545 72.8218 15.4674V19.7176C71.9072 20.269 70.9254 20.6725 69.9032 20.928C68.8675 21.1836 67.7512 21.3046 66.5272 21.3046L66.5407 21.2777Z"
        fill="#D4AF37" />
    <path
        d="M81.1473 21.0491C79.9772 21.0491 78.9684 20.7936 78.1076 20.2825C77.2603 19.7714 76.6012 19.072 76.144 18.1843C75.6867 17.2966 75.458 16.3148 75.458 15.2388C75.458 14.1628 75.6867 13.1675 76.144 12.2798C76.6012 11.4055 77.2603 10.7061 78.1076 10.195C78.9684 9.68395 79.9772 9.42841 81.1473 9.42841C82.3175 9.42841 83.3531 9.68395 84.2004 10.195C85.0478 10.7061 85.6934 11.4055 86.1641 12.2798C86.6349 13.154 86.8501 14.1493 86.8501 15.2388C86.8501 16.3282 86.6214 17.2966 86.1641 18.1843C85.7068 19.072 85.0478 19.7714 84.2004 20.2825C83.3531 20.7936 82.3309 21.0491 81.1473 21.0491ZM81.1473 19.9731C81.6988 19.9731 82.1695 19.7714 82.5327 19.3544C82.9093 18.9375 83.1783 18.3726 83.3666 17.6597C83.5548 16.9334 83.6355 16.1265 83.6355 15.2253C83.6355 14.3242 83.5414 13.4903 83.3666 12.7774C83.1917 12.0646 82.9093 11.4997 82.5327 11.0962C82.1561 10.6792 81.6988 10.4775 81.1473 10.4775C80.5959 10.4775 80.1251 10.6792 79.762 11.0962C79.3854 11.5131 79.1164 12.0646 78.9281 12.7774C78.7398 13.4903 78.6591 14.3107 78.6591 15.2253C78.6591 16.1399 78.7532 16.9334 78.9281 17.6597C79.1029 18.386 79.3854 18.9509 79.762 19.3544C80.1386 19.7714 80.5959 19.9731 81.1473 19.9731Z"
        fill="#D4AF37" />
    <path
        d="M89.2172 20.8069V8.21781C89.2172 7.50497 89.1231 6.92662 88.9213 6.49622C88.7196 6.06583 88.2623 5.83717 87.5629 5.83717H87.3208V5.12433H90.1722C90.7236 5.12433 91.154 5.21848 91.4634 5.40678C91.7727 5.59507 91.9879 5.91787 92.1224 6.36172C92.2435 6.80556 92.3107 7.42427 92.3107 8.21781V20.8069H89.2307H89.2172Z"
        fill="#D4AF37" />
    <path
        d="M99.6813 21.049C98.5785 21.049 97.6504 20.7935 96.9107 20.2824C96.1709 19.7713 95.6195 19.0719 95.2429 18.1842C94.8663 17.2965 94.678 16.3147 94.678 15.2387C94.678 14.1627 94.8663 13.1674 95.2429 12.2797C95.6195 11.4054 96.1844 10.7061 96.9376 10.195C97.7042 9.68386 98.6457 9.42831 99.7889 9.42831C100.327 9.42831 100.811 9.50901 101.228 9.65696C101.645 9.80491 101.995 9.96631 102.291 10.1412V8.24472C102.291 7.53187 102.196 6.95353 101.995 6.52313C101.793 6.09273 101.336 5.86409 100.636 5.86409H100.394V5.15125H103.246C103.797 5.15125 104.227 5.24539 104.537 5.43369C104.846 5.62199 105.061 5.94479 105.196 6.38863C105.317 6.83248 105.384 7.45117 105.384 8.24472V20.8338H103.367L102.533 19.7713H102.412C102.21 20.0941 101.874 20.39 101.403 20.659C100.932 20.9414 100.367 21.0759 99.6813 21.0759V21.049ZM100.152 19.973C100.529 19.973 100.865 19.8923 101.147 19.7175C101.43 19.5426 101.672 19.3274 101.86 19.0853C102.049 18.8432 102.196 18.628 102.291 18.4263V11.1902C102.062 11.0154 101.78 10.854 101.43 10.7061C101.08 10.5581 100.69 10.4774 100.273 10.4774C99.6813 10.4774 99.224 10.6792 98.8743 11.0961C98.5246 11.513 98.2825 12.0645 98.1211 12.7773C97.9732 13.4902 97.8925 14.3106 97.8925 15.2252C97.8925 16.1398 97.9598 16.9334 98.1077 17.6596C98.2557 18.3859 98.4843 18.9508 98.8205 19.3543C99.1568 19.7578 99.6006 19.973 100.152 19.973Z"
        fill="#D4AF37" />
    <path
        d="M113.144 21.0491C112.042 21.0491 111.073 20.7936 110.253 20.2959C109.432 19.7983 108.8 19.0989 108.356 18.2246C107.912 17.3504 107.697 16.3551 107.697 15.2388C107.697 13.9745 107.926 12.9119 108.383 12.0511C108.841 11.1903 109.473 10.5313 110.253 10.0874C111.046 9.6436 111.934 9.42841 112.916 9.42841C113.898 9.42841 114.785 9.63015 115.579 10.0202C116.372 10.4102 116.991 10.9751 117.448 11.688C117.906 12.4008 118.134 13.2347 118.134 14.1762L118.04 15.6692H110.898C110.898 17.2428 111.14 18.3457 111.625 19.0047C112.109 19.6638 112.741 19.9866 113.508 19.9866C114.328 19.9866 115.001 19.7983 115.512 19.4217C116.023 19.0451 116.494 18.5743 116.897 18.0229L117.637 18.5743C117.408 18.924 117.112 19.2872 116.749 19.6772C116.372 20.0673 115.902 20.3901 115.323 20.6591C114.745 20.9281 114.019 21.0626 113.144 21.0626V21.0491ZM110.885 14.5932H114.92C114.92 13.0195 114.732 11.9435 114.355 11.3652C113.978 10.7734 113.494 10.4909 112.902 10.4909C112.553 10.4909 112.23 10.612 111.921 10.8675C111.611 11.1231 111.369 11.54 111.167 12.1318C110.966 12.7236 110.885 13.5441 110.885 14.5932Z"
        fill="#D4AF37" />
    <path
        d="M120.784 20.807V12.737C120.784 12.0242 120.69 11.4459 120.502 11.0155C120.313 10.5851 119.856 10.3564 119.143 10.3564H118.901V9.64356H121.255C121.793 9.64356 122.21 9.71081 122.519 9.84531C122.828 9.97981 123.071 10.2085 123.245 10.5178C123.528 10.2488 123.931 9.99327 124.469 9.76462C124.994 9.52252 125.747 9.41492 126.716 9.41492C127.684 9.41492 128.545 9.56286 129.204 9.87221C129.863 10.1816 130.374 10.6389 130.71 11.2845C131.046 11.93 131.221 12.7639 131.221 13.7861V20.8204H128.141V13.7727C128.141 12.9926 128.047 12.3739 127.845 11.9166C127.644 11.4593 127.388 11.123 127.052 10.9213C126.716 10.7196 126.325 10.612 125.895 10.612C125.465 10.612 125.061 10.6658 124.725 10.7734C124.389 10.881 124.106 11.0289 123.878 11.2038V20.8204H120.798L120.784 20.807Z"
        fill="#D4AF37" />
    <path
        d="M140.919 20.8069V8.05641C140.919 7.34356 140.825 6.76522 140.623 6.33482C140.421 5.90442 139.964 5.67578 139.264 5.67578H138.861V5.12433H141.188C141.739 5.12433 142.17 5.20503 142.479 5.36643C142.788 5.52783 143.003 5.81027 143.138 6.22722C143.259 6.64417 143.326 7.24941 143.326 8.04295V19.8251H151.679V20.7935H140.919V20.8069Z"
        fill="currentColor" />
    <path
        d="M153.763 20.807V12.5622C153.763 11.8494 153.669 11.271 153.468 10.8406C153.266 10.4102 152.808 10.1816 152.096 10.1816H151.692V9.63015H153.992C154.544 9.63015 154.974 9.71085 155.283 9.87225C155.593 10.0336 155.808 10.3161 155.942 10.733C156.063 11.15 156.131 11.7552 156.131 12.5488V20.7936H153.75L153.763 20.807ZM154.839 8.27172C154.409 8.27172 154.059 8.11032 153.79 7.78752C153.521 7.46473 153.387 7.08812 153.387 6.65773C153.387 6.30803 153.494 6.03903 153.71 5.83728C153.925 5.63553 154.194 5.54138 154.53 5.54138C154.96 5.54138 155.31 5.70279 155.579 6.01214C155.848 6.32148 155.983 6.69807 155.983 7.12847C155.983 7.47817 155.875 7.76062 155.66 7.96237C155.445 8.16412 155.176 8.27172 154.839 8.27172Z"
        fill="currentColor" />
    <path
        d="M159.735 20.807V12.5622C159.735 11.8494 159.641 11.271 159.439 10.8406C159.237 10.4102 158.78 10.1816 158.067 10.1816H157.664V9.63014H159.843C160.434 9.63014 160.878 9.71083 161.188 9.87223C161.497 10.0336 161.726 10.2623 161.86 10.5582C162.183 10.2892 162.613 10.0336 163.151 9.77808C163.703 9.52254 164.362 9.40149 165.129 9.40149C165.895 9.40149 166.581 9.52254 167.2 9.77808C167.818 10.0336 168.33 10.464 168.706 11.0827C169.083 11.7014 169.271 12.5757 169.271 13.692V20.7936H166.904V13.692C166.904 12.8985 166.783 12.2663 166.541 11.809C166.299 11.3383 165.989 11.002 165.613 10.8003C165.236 10.5985 164.819 10.4909 164.375 10.4909C163.905 10.4909 163.474 10.5985 163.084 10.8272C162.694 11.0558 162.371 11.2979 162.102 11.5804V20.7936H159.708L159.735 20.807Z"
        fill="currentColor" />
    <path
        d="M180.999 21.049C180.381 21.049 179.789 20.9145 179.211 20.6321C178.632 20.3496 178.081 19.8654 177.543 19.1526L174.839 15.5615V20.8069H172.459V8.05641C172.459 7.34356 172.365 6.76522 172.163 6.33482C171.961 5.90442 171.504 5.67578 170.804 5.67578H170.374V5.12433H172.701C173.252 5.12433 173.683 5.20503 173.992 5.36643C174.301 5.52783 174.517 5.81027 174.651 6.22722C174.772 6.64417 174.839 7.24941 174.839 8.04295V14.9697L177.785 11.244C178.175 10.7598 178.619 10.3563 179.076 10.0739C179.547 9.77799 180.166 9.63004 180.959 9.63004H181.605V10.2218C181.174 10.2218 180.771 10.316 180.381 10.4908C179.991 10.6791 179.641 10.9481 179.318 11.3382L176.776 14.5258L179.789 18.4263C180.246 19.0181 180.677 19.4619 181.053 19.7578C181.443 20.0537 181.86 20.2555 182.304 20.3227V20.7935C182.183 20.8607 181.995 20.9145 181.739 20.9549C181.484 20.9952 181.242 21.0221 180.986 21.0221L180.999 21.049Z"
        fill="currentColor" />
    <path
        d="M87.0048 35.1848V29.4282C87.0048 29.1055 86.9644 28.8499 86.8703 28.6616C86.7761 28.4599 86.5744 28.3657 86.2516 28.3657H86.0364V28.1505H90.569C90.8111 28.1505 91.0128 28.1909 91.1339 28.2716C91.2549 28.3523 91.3491 28.4599 91.4029 28.5944C91.4567 28.7289 91.4701 28.8634 91.4701 28.9979V29.7914H91.2549C91.2549 29.361 91.1339 29.0517 90.9052 28.8634C90.6766 28.6616 90.3403 28.5675 89.9234 28.5675H87.9463V31.3381H90.8245V31.7685H87.9463V34.7544H89.8158C90.3 34.7544 90.6766 34.6603 90.959 34.4854C91.2415 34.3106 91.4567 34.0012 91.6315 33.5843L91.8467 33.6381L91.4701 34.6468C91.4163 34.8082 91.3222 34.9427 91.1877 35.0369C91.0532 35.131 90.8783 35.1848 90.6766 35.1848H87.0048Z"
        fill="currentColor" />
    <path
        d="M93.1245 35.1849V30.5985H92.3848V30.1681H93.1245V29.8453C93.1245 29.3476 93.2187 28.971 93.407 28.7155C93.5953 28.4599 93.8239 28.2716 94.1198 28.1775C94.4157 28.0833 94.6982 28.0295 94.994 28.0295C95.2092 28.0295 95.3975 28.0295 95.5589 28.0699C95.7069 28.0968 95.8279 28.1371 95.9086 28.1909C95.9893 28.2447 96.0566 28.312 96.1104 28.3927C96.1642 28.4734 96.218 28.5675 96.2852 28.6751L95.9624 28.9441C95.8548 28.7827 95.7203 28.6617 95.5455 28.581C95.3706 28.5003 95.1823 28.4599 94.9537 28.4599C94.7116 28.4599 94.5098 28.5541 94.3484 28.7558C94.1871 28.9576 94.1064 29.3207 94.1064 29.8453V30.1681H95.5993V30.5985H94.1064V35.1849H93.1514H93.1245Z"
        fill="currentColor" />
    <path
        d="M96.7156 35.1849V30.5985H95.9758V30.1681H96.7156V29.8453C96.7156 29.3476 96.8097 28.971 96.998 28.7155C97.1863 28.4599 97.415 28.2716 97.7109 28.1775C98.0068 28.0833 98.2892 28.0295 98.5851 28.0295C98.8003 28.0295 98.9886 28.0295 99.15 28.0699C99.298 28.0968 99.419 28.1371 99.4997 28.1909C99.5804 28.2447 99.6477 28.312 99.7015 28.3927C99.7553 28.4734 99.809 28.5675 99.8763 28.6751L99.5535 28.9441C99.4459 28.7827 99.3114 28.6617 99.1366 28.581C98.9617 28.5003 98.7734 28.4599 98.5448 28.4599C98.3027 28.4599 98.1009 28.5541 97.9395 28.7558C97.7781 28.9576 97.6974 29.3207 97.6974 29.8453V30.1681H99.1904V30.5985H97.6974V35.1849H96.7425H96.7156Z"
        fill="currentColor" />
    <path
        d="M102.028 35.2925C101.531 35.2925 101.114 35.1715 100.764 34.9428C100.414 34.7142 100.145 34.3914 99.9704 33.9879C99.7821 33.5844 99.688 33.154 99.688 32.6832C99.688 32.2125 99.7821 31.7552 99.9704 31.3652C100.159 30.9751 100.414 30.6523 100.764 30.4237C101.114 30.195 101.531 30.074 102.028 30.074C102.526 30.074 102.943 30.195 103.293 30.4237C103.642 30.6523 103.911 30.9751 104.086 31.3652C104.274 31.7552 104.369 32.1991 104.369 32.6832C104.369 33.1674 104.274 33.5978 104.086 33.9879C103.898 34.3914 103.629 34.7007 103.293 34.9428C102.943 35.1715 102.526 35.2925 102.028 35.2925ZM102.028 34.8621C102.297 34.8621 102.539 34.768 102.728 34.5662C102.929 34.3645 103.077 34.1089 103.185 33.7727C103.293 33.4364 103.346 33.0733 103.346 32.6698C103.346 32.2663 103.293 31.8897 103.185 31.5669C103.077 31.2441 102.916 30.9751 102.728 30.7868C102.526 30.5851 102.297 30.4909 102.028 30.4909C101.759 30.4909 101.531 30.5851 101.329 30.7868C101.127 30.9886 100.966 31.2441 100.858 31.5669C100.751 31.8897 100.697 32.2663 100.697 32.6698C100.697 33.0733 100.751 33.4364 100.858 33.7727C100.966 34.1089 101.127 34.3645 101.329 34.5662C101.531 34.768 101.759 34.8621 102.028 34.8621Z"
        fill="currentColor" />
    <path
        d="M105.714 35.1849V31.4593C105.714 31.1365 105.673 30.881 105.579 30.6927C105.485 30.4909 105.283 30.3968 104.96 30.3968H104.853V30.1816H105.7C105.969 30.1816 106.171 30.2219 106.319 30.3026C106.453 30.3833 106.561 30.5044 106.615 30.6658C106.736 30.5447 106.911 30.4102 107.139 30.2757C107.368 30.1412 107.637 30.074 107.946 30.074C108.054 30.074 108.161 30.074 108.283 30.1143C108.404 30.1412 108.498 30.1816 108.578 30.2354C108.659 30.2892 108.726 30.3564 108.78 30.4371C108.834 30.5178 108.888 30.612 108.955 30.7196L108.525 31.0424C108.444 30.9348 108.336 30.8541 108.175 30.8003C108.027 30.7465 107.852 30.7196 107.664 30.7196C107.449 30.7196 107.26 30.7734 107.072 30.8675C106.884 30.9617 106.749 31.0962 106.642 31.2576V35.1984H105.687L105.714 35.1849Z"
        fill="currentColor" />
    <path
        d="M111.336 35.2926C110.959 35.2926 110.65 35.185 110.421 34.9563C110.179 34.7411 110.058 34.3914 110.058 33.9072V30.5986H109.318V30.1682H110.058V29.2132L110.596 28.5676H111.026V30.1682H112.304V30.5986H111.026V33.9072C111.026 34.23 111.094 34.4721 111.215 34.6201C111.336 34.7815 111.524 34.8622 111.779 34.8622C111.968 34.8622 112.116 34.8353 112.237 34.7949C112.358 34.7546 112.465 34.7008 112.573 34.647L112.681 34.8622C112.573 34.9429 112.412 35.037 112.21 35.1446C112.008 35.2388 111.726 35.2926 111.349 35.2926H111.336Z"
        fill="currentColor" />
    <path
        d="M113.501 35.1848V29.4282C113.501 29.1055 113.461 28.8499 113.367 28.6616C113.272 28.4599 113.071 28.3657 112.748 28.3657H112.533V28.1505H113.488C113.743 28.1505 113.932 28.1774 114.066 28.2447C114.201 28.3119 114.308 28.433 114.362 28.6213C114.416 28.8096 114.443 29.0786 114.443 29.4282V35.1848H113.488H113.501Z"
        fill="currentColor" />
    <path
        d="M117.98 35.2925C117.482 35.2925 117.065 35.1715 116.742 34.9428C116.406 34.7142 116.164 34.3914 116.003 33.9879C115.841 33.5844 115.747 33.154 115.747 32.6832C115.747 32.2125 115.828 31.7552 116.003 31.3652C116.177 30.9751 116.42 30.6523 116.742 30.4237C117.065 30.195 117.442 30.074 117.886 30.074C118.37 30.074 118.773 30.1681 119.083 30.343C119.392 30.5178 119.634 30.7868 119.782 31.1365C119.93 31.4862 120.011 31.9166 120.011 32.4143L119.984 32.8447H116.756C116.756 33.423 116.877 33.9072 117.132 34.2972C117.388 34.6873 117.738 34.8756 118.195 34.8756C118.545 34.8756 118.827 34.7949 119.069 34.6469C119.298 34.499 119.513 34.2838 119.688 34.0148L119.903 34.1762C119.742 34.4452 119.567 34.6604 119.379 34.8218C119.177 34.9832 118.975 35.1042 118.733 35.1849C118.504 35.2656 118.249 35.2925 117.98 35.2925ZM116.756 32.4143H118.988C118.988 31.7956 118.894 31.3248 118.706 30.9886C118.518 30.6523 118.235 30.4909 117.859 30.4909C117.644 30.4909 117.455 30.5716 117.294 30.7465C117.132 30.9213 116.998 31.1365 116.89 31.4324C116.783 31.7283 116.742 32.0511 116.742 32.4143H116.756Z"
        fill="currentColor" />
    <path
        d="M122.903 35.2925C122.472 35.2925 122.122 35.2522 121.853 35.1849C121.584 35.1042 121.383 35.0101 121.248 34.8756C121.114 34.7411 121.033 34.5931 121.02 34.4183C120.993 34.2434 120.993 34.0282 120.993 33.7592H121.208C121.262 34.1089 121.41 34.3779 121.652 34.5797C121.894 34.7814 122.244 34.8756 122.701 34.8756C123.104 34.8756 123.4 34.8083 123.589 34.6604C123.777 34.5124 123.871 34.3376 123.871 34.1224C123.871 33.9072 123.79 33.7323 123.629 33.5844C123.467 33.4365 123.225 33.3019 122.903 33.1674L122.27 32.8985C121.867 32.7371 121.544 32.5353 121.329 32.3201C121.1 32.0915 120.993 31.809 120.993 31.4593C120.993 31.0155 121.154 30.6658 121.49 30.4371C121.827 30.195 122.244 30.074 122.741 30.074C123.145 30.074 123.481 30.1143 123.736 30.1816C124.005 30.2623 124.194 30.3564 124.328 30.4909C124.463 30.6254 124.543 30.7734 124.557 30.9482C124.57 31.1231 124.584 31.3383 124.584 31.6073H124.369C124.315 31.2576 124.167 30.9886 123.925 30.7868C123.683 30.5851 123.36 30.4909 122.929 30.4909C122.58 30.4909 122.311 30.5582 122.136 30.7061C121.961 30.8541 121.867 31.0289 121.867 31.2441C121.867 31.4324 121.948 31.5938 122.096 31.7552C122.244 31.9032 122.459 32.0377 122.728 32.1587L123.36 32.4277C123.817 32.616 124.153 32.8178 124.396 33.0329C124.624 33.2481 124.745 33.544 124.745 33.9206C124.745 34.3645 124.57 34.7142 124.207 34.9428C123.858 35.1849 123.414 35.306 122.876 35.306L122.903 35.2925Z"
        fill="currentColor" />
    <path
        d="M127.65 35.2925C127.22 35.2925 126.87 35.2522 126.601 35.1849C126.332 35.1042 126.131 35.0101 125.996 34.8756C125.862 34.7411 125.781 34.5931 125.767 34.4183C125.74 34.2434 125.74 34.0282 125.74 33.7592H125.956C126.009 34.1089 126.157 34.3779 126.4 34.5797C126.642 34.7814 126.991 34.8756 127.449 34.8756C127.852 34.8756 128.148 34.8083 128.336 34.6604C128.525 34.5124 128.619 34.3376 128.619 34.1224C128.619 33.9072 128.538 33.7323 128.377 33.5844C128.215 33.4365 127.973 33.3019 127.65 33.1674L127.018 32.8985C126.615 32.7371 126.292 32.5353 126.077 32.3201C125.848 32.0915 125.74 31.809 125.74 31.4593C125.74 31.0155 125.902 30.6658 126.238 30.4371C126.574 30.195 126.991 30.074 127.489 30.074C127.892 30.074 128.229 30.1143 128.484 30.1816C128.753 30.2623 128.942 30.3564 129.076 30.4909C129.211 30.6254 129.291 30.7734 129.305 30.9482C129.318 31.1231 129.332 31.3383 129.332 31.6073H129.116C129.063 31.2576 128.915 30.9886 128.673 30.7868C128.43 30.5851 128.108 30.4909 127.677 30.4909C127.328 30.4909 127.059 30.5582 126.884 30.7061C126.709 30.8541 126.615 31.0289 126.615 31.2441C126.615 31.4324 126.695 31.5938 126.843 31.7552C126.991 31.9032 127.207 32.0377 127.476 32.1587L128.108 32.4277C128.565 32.616 128.901 32.8178 129.143 33.0329C129.372 33.2481 129.493 33.544 129.493 33.9206C129.493 34.3645 129.318 34.7142 128.955 34.9428C128.605 35.1849 128.161 35.306 127.623 35.306L127.65 35.2925Z"
        fill="currentColor" />
    <path
        d="M133.757 35.1848V29.4282C133.757 29.1055 133.716 28.8499 133.622 28.6616C133.528 28.4599 133.326 28.3657 133.004 28.3657H132.788V28.1505H137.038C137.281 28.1505 137.482 28.1909 137.603 28.2716C137.724 28.3523 137.819 28.4599 137.872 28.5944C137.926 28.7289 137.94 28.8634 137.94 28.9979V29.7914H137.724C137.724 29.361 137.603 29.0517 137.375 28.8634C137.146 28.6616 136.81 28.5675 136.393 28.5675H134.698V31.3919H137.106V31.8223H134.698V35.1848H133.743H133.757Z"
        fill="currentColor" />
    <path
        d="M139.204 35.1848V29.4282C139.204 29.1055 139.164 28.8499 139.069 28.6616C138.975 28.4599 138.774 28.3657 138.451 28.3657H138.236V28.1505H139.191C139.446 28.1505 139.634 28.1774 139.769 28.2447C139.903 28.3119 140.011 28.433 140.065 28.6213C140.119 28.8096 140.145 29.0786 140.145 29.4282V35.1848H139.191H139.204Z"
        fill="currentColor" />
    <path
        d="M143.79 35.2925C143.293 35.2925 142.876 35.1715 142.526 34.9428C142.176 34.7142 141.907 34.3914 141.732 33.9879C141.544 33.5844 141.45 33.154 141.45 32.6832C141.45 32.2125 141.544 31.7552 141.732 31.3652C141.921 30.9751 142.176 30.6523 142.526 30.4237C142.876 30.195 143.293 30.074 143.79 30.074C144.288 30.074 144.705 30.195 145.055 30.4237C145.404 30.6523 145.673 30.9751 145.848 31.3652C146.036 31.7552 146.131 32.1991 146.131 32.6832C146.131 33.1674 146.036 33.5978 145.848 33.9879C145.66 34.3914 145.391 34.7007 145.055 34.9428C144.705 35.1715 144.288 35.2925 143.79 35.2925ZM143.79 34.8621C144.059 34.8621 144.301 34.768 144.49 34.5662C144.691 34.3645 144.839 34.1089 144.947 33.7727C145.055 33.4364 145.108 33.0733 145.108 32.6698C145.108 32.2663 145.055 31.8897 144.947 31.5669C144.839 31.2441 144.678 30.9751 144.49 30.7868C144.288 30.5851 144.059 30.4909 143.79 30.4909C143.521 30.4909 143.293 30.5851 143.091 30.7868C142.889 30.9886 142.728 31.2441 142.62 31.5669C142.512 31.8897 142.459 32.2663 142.459 32.6698C142.459 33.0733 142.512 33.4364 142.62 33.7727C142.728 34.1089 142.889 34.3645 143.091 34.5662C143.293 34.768 143.521 34.8621 143.79 34.8621Z"
        fill="currentColor" />
    <path
        d="M149.09 35.2925L147.543 31.4055C147.381 31.002 147.22 30.733 147.059 30.5716C146.897 30.4102 146.682 30.3295 146.427 30.316V30.1008C146.427 30.1008 146.48 30.1008 146.534 30.1008C146.588 30.1008 146.628 30.1008 146.682 30.1008C146.736 30.1008 146.776 30.1008 146.803 30.1008C147.153 30.1008 147.476 30.195 147.785 30.3698C148.094 30.5447 148.35 30.9078 148.565 31.4324L149.466 33.6651L150.367 31.3786C150.26 31.1365 150.152 30.9347 150.058 30.7868C149.95 30.6388 149.843 30.5312 149.722 30.4505C149.601 30.3698 149.466 30.3295 149.305 30.3295V30.1143C149.305 30.1143 149.385 30.1143 149.48 30.1143C149.574 30.1143 149.628 30.1143 149.681 30.1143C150.031 30.1143 150.354 30.2084 150.663 30.3833C150.973 30.5581 151.228 30.9213 151.443 31.4458L152.344 33.6785L153.73 30.2219H154.268L152.197 35.3328H151.981L150.65 32.0242L149.318 35.3328H149.103L149.09 35.2925Z"
        fill="currentColor" />
</svg>