<svg viewBox="0 0 100 100" fill="none" xmlns="http://www.w3.org/2000/svg">
<g clip-path="url(#clip0_1398_31162)">
<path d="M0 41.2138C0 35.2559 0.843235 29.7893 2.54248 24.7821C4.22895 19.775 6.59256 15.4334 9.60777 11.7256C12.623 8.01775 16.1492 5.14974 20.1738 3.08984C24.1983 1.02995 28.555 0 33.2311 0C39.1338 0 44.4615 1.56869 49.2015 4.69022C53.9415 7.81176 57.6977 12.2326 60.4574 17.9052C63.2298 23.5937 64.6097 30.2171 64.6097 37.7595C64.6097 45.3019 63.8559 50.816 62.3483 55.3953C60.8407 59.9746 59.1031 63.3339 57.1356 65.473C55.6024 66.9941 53.5965 67.8815 51.1307 68.1033C48.6649 68.3251 46.3907 68.4519 44.2954 68.4519V65.0135C49.9553 63.5557 54.0693 60.8937 56.6117 56.9957C59.167 53.0978 60.4446 47.8371 60.4446 41.1979C60.4446 36.6186 59.7036 32.7365 58.2343 29.5833C56.7523 26.4142 54.7208 23.8156 52.14 21.8032C49.5592 19.775 46.6334 18.3172 43.3755 17.3982C40.1175 16.4792 36.7318 16.0196 33.2183 16.0196C25.7698 16.0196 19.8927 17.1447 15.5871 19.3947C11.2815 21.6447 8.21515 24.6712 6.40092 28.4899C4.58669 32.3087 3.67957 36.5394 3.67957 41.1979C3.67957 44.6363 3.89677 47.5677 4.33116 50.0079C4.76556 52.4481 5.34049 54.6665 6.08151 56.6471H22.5118C23.8022 56.6471 25.0926 56.9007 26.383 57.3919C27.6734 57.8831 28.8872 58.8972 30.0243 60.4183C31.1614 61.9395 32.0685 64.1737 32.7456 67.1209C33.4228 70.0523 33.755 73.9661 33.755 78.8623H31.4424C31.4424 76.2637 30.6759 74.3939 29.1299 73.253C27.5968 72.1122 25.4376 71.5418 22.6651 71.5418H6.18372C4.02453 67.1209 2.46582 62.4148 1.48205 57.4552C0.498275 52.4956 0 47.0765 0 41.1979L0 41.2138Z" fill="#D4AF37"/>
<path d="M100 58.7862C100 64.7441 99.1571 70.2107 97.4578 75.2179C95.7714 80.225 93.4077 84.5666 90.3925 88.2744C87.3773 91.9822 83.8511 94.8503 79.8266 96.9102C75.802 98.97 71.4453 100 66.7692 100C60.8665 100 55.5388 98.4313 50.7988 95.3098C46.0588 92.1882 42.3026 87.7674 39.5429 82.0948C36.7705 76.4063 35.3906 69.7829 35.3906 62.2405C35.3906 54.6981 36.1444 49.184 37.652 44.6047C39.1596 40.0254 40.8972 36.6661 42.8648 34.527C44.3979 33.0059 46.4038 32.1185 48.8696 31.8967C51.3354 31.6749 53.6096 31.5481 55.7049 31.5481V34.9865C50.045 36.4443 45.9311 39.1063 43.3886 43.0043C40.8333 46.9022 39.5557 52.1629 39.5557 58.8021C39.5557 63.3814 40.2967 67.2635 41.766 70.4167C43.248 73.5858 45.2795 76.1844 47.8603 78.1968C50.4411 80.225 53.3669 81.6828 56.6248 82.6018C59.8828 83.5208 63.2685 83.9803 66.782 83.9803C74.2305 83.9803 80.1076 82.8553 84.4132 80.6053C88.7188 78.3552 91.7852 75.3288 93.5994 71.5101C95.4136 67.6913 96.3207 63.4606 96.3207 58.8021C96.3207 55.3637 96.1035 52.4323 95.6691 49.9921C95.2348 47.5519 94.6598 45.3335 93.9188 43.3529H77.4885C76.1981 43.3529 74.9077 43.0993 73.6173 42.6081C72.3269 42.1169 71.1131 41.1028 69.976 39.5817C68.8389 38.0605 67.9318 35.8263 67.2547 32.8791C66.5775 29.9477 66.2454 26.0339 66.2454 21.1377H68.5579C68.5579 23.7363 69.3244 25.6061 70.8704 26.7469C72.4035 27.8878 74.5627 28.4582 77.3352 28.4582H93.8549C96.0141 32.8791 97.5728 37.5852 98.5566 42.5448C99.5404 47.5044 100.039 52.9235 100.039 58.8021L100 58.7862Z" fill="currentColor"/>
</g>
<defs>
<clipPath id="clip0_1398_31162">
<rect width="100" height="100" fill="white"/>
</clipPath>
</defs>
</svg>
