<svg viewBox="0 0 202 129" fill="none" xmlns="http://www.w3.org/2000/svg">
    <g clip-path="url(#clip0_1770_41046)">
        <path
            d="M-67.0824 37.1962L-67.1147 36.7602L-9.51466 32.4963L22.6437 -15.6079L22.75 -15.6158L80.3496 -19.8795L112.509 -67.9844L112.615 -67.9922L170.215 -72.2559L202.376 -120.362L202.483 -120.37L260.191 -124.643L260.223 -124.206L202.621 -119.941L170.46 -71.8354L170.354 -71.8275L112.754 -67.5638L80.5945 -19.4589L80.4883 -19.4513L22.8886 -15.1874L-9.26974 32.9168L-9.37602 32.9245L-67.0824 37.1962Z"
            fill="url(#paint0_linear_1770_41046)" />
        <g opacity="0.9">
            <path
                d="M-67.0825 46.3372L-67.1149 45.9011L-9.51479 41.637L22.6436 -6.4672L22.7498 -6.47507L80.3495 -10.7387L112.509 -58.8436L112.615 -58.8515L170.215 -63.1151L202.376 -111.221L202.483 -111.229L260.191 -115.502L260.223 -115.066L202.621 -110.801L170.46 -62.6948L170.354 -62.6867L112.754 -58.4231L80.5944 -10.3182L80.4881 -10.3105L22.8885 -6.04667L-9.26986 42.0576L-9.37614 42.0652L-67.0825 46.3372Z"
                fill="url(#paint1_linear_1770_41046)" />
        </g>
        <g opacity="0.8">
            <path
                d="M-67.0824 55.4775L-67.1147 55.0414L-9.51466 50.7773L22.6437 2.67309L22.75 2.66544L80.3496 -1.59843L112.509 -49.7031L112.615 -49.711L170.215 -53.9751L202.376 -102.081L202.483 -102.088L260.191 -106.361L260.223 -105.925L202.621 -101.66L170.46 -53.5545L170.354 -53.5467L112.754 -49.2828L80.5945 -1.17791L80.4883 -1.17025L22.8886 3.09362L-9.26974 51.1976L-9.37602 51.2055L-67.0824 55.4775Z"
                fill="url(#paint2_linear_1770_41046)" />
        </g>
        <g opacity="0.7">
            <path
                d="M-67.0824 64.6181L-67.1147 64.1818L-9.51466 59.9177L22.6437 11.8137L22.75 11.8061L80.3496 7.54219L112.509 -40.5627L112.615 -40.5704L170.215 -44.8342L202.376 -92.94L202.483 -92.9479L260.191 -97.2207L260.223 -96.7846L202.622 -92.5195L170.46 -44.4137L170.354 -44.406L112.754 -40.1422L80.5945 7.9625L80.4883 7.97059L22.8886 12.2342L-9.26974 60.3383L-9.37602 60.3461L-67.0824 64.6181Z"
                fill="url(#paint3_linear_1770_41046)" />
        </g>
        <g opacity="0.6">
            <path
                d="M-67.0824 73.757L-67.1147 73.3207L-9.51466 69.0568L22.6437 20.9526L22.75 20.9449L80.3496 16.6811L112.509 -31.4238L112.615 -31.4315L170.215 -35.6953L202.376 -83.8011L202.483 -83.809L260.191 -88.082L260.223 -87.6458L202.622 -83.3806L170.46 -35.2748L170.354 -35.2672L112.754 -31.0033L80.5945 17.1014L80.4883 17.1095L22.8886 21.3731L-9.26974 69.4774L-9.37602 69.485L-67.0824 73.757Z"
                fill="url(#paint4_linear_1770_41046)" />
        </g>
        <g opacity="0.5">
            <path
                d="M-67.0825 82.8977L-67.1149 82.4617L-9.51479 78.1976L22.6436 30.0934L22.7498 30.0855L80.3495 25.8218L112.509 -22.2831L112.615 -22.2907L170.215 -26.5546L202.376 -74.6606L202.483 -74.6682L260.191 -78.9413L260.223 -78.505L202.621 -74.2401L170.46 -26.1343L170.354 -26.1264L112.754 -21.8625L80.5944 26.2424L80.4881 26.2502L22.8885 30.5139L-9.26986 78.6179L-9.37614 78.6258L-67.0825 82.8977Z"
                fill="url(#paint5_linear_1770_41046)" />
        </g>
        <g opacity="0.4">
            <path
                d="M-67.0824 92.0382L-67.1147 91.602L-9.51466 87.3381L22.6437 39.2339L22.75 39.226L80.3496 34.9623L112.509 -13.1423L112.615 -13.1504L170.215 -17.4141L202.376 -65.5198L202.483 -65.5277L260.191 -69.8008L260.223 -69.3645L202.621 -65.0993L170.46 -16.9938L170.354 -16.9859L112.754 -12.722L80.5945 35.3829L80.4883 35.3907L22.8886 39.6544L-9.26974 87.7584L-9.37602 87.7663L-67.0824 92.0382Z"
                fill="url(#paint6_linear_1770_41046)" />
        </g>
        <g opacity="0.3">
            <path
                d="M-67.0824 101.179L-67.1147 100.743L-9.51466 96.4787L22.6437 48.3745L22.75 48.3666L80.3496 44.103L112.509 -4.00193L112.615 -4.00981L170.215 -8.27346L202.376 -56.3792L202.483 -56.3871L260.191 -60.6602L260.223 -60.2239L202.621 -55.9587L170.46 -7.85293L170.354 -7.84506L112.754 -3.58141L80.5945 44.5235L80.4883 44.5311L22.8886 48.795L-9.26974 96.8992L-9.37602 96.9069L-67.0824 101.179Z"
                fill="url(#paint7_linear_1770_41046)" />
        </g>
        <g opacity="0.2">
            <path
                d="M-67.0824 110.319L-67.1147 109.883L-9.51466 105.619L22.6437 57.5151L22.75 57.5072L80.3496 53.2436L112.509 5.13868L112.615 5.13081L170.215 0.867161L202.376 -47.2386L202.483 -47.2465L260.191 -51.5195L260.223 -51.0833L202.621 -46.8181L170.46 1.28747L170.354 1.29556L112.754 5.5592L80.5945 53.6641L80.4883 53.6718L22.8886 57.9356L-9.26974 106.04L-9.37602 106.048L-67.0824 110.319Z"
                fill="url(#paint8_linear_1770_41046)" />
        </g>
        <g opacity="0.1">
            <path
                d="M-67.0824 119.46L-67.1147 119.024L-9.51466 114.76L22.6437 66.6555L22.75 66.6479L80.3496 62.384L112.509 14.2793L112.615 14.2714L170.215 10.0074L202.376 -38.0982L202.483 -38.1061L260.191 -42.3789L260.223 -41.9428L202.621 -37.6779L170.46 10.4279L170.354 10.436L112.754 14.6998L80.5945 62.8045L80.4883 62.8122L22.8886 67.076L-9.26974 115.18L-9.37602 115.188L-67.0824 119.46Z"
                fill="url(#paint9_linear_1770_41046)" />
        </g>
        <g opacity="0.08">
            <path
                d="M-67.0824 128.601L-67.1147 128.164L-9.51466 123.9L22.6437 75.7961L22.75 75.7885L80.3496 71.5246L112.509 23.4199L112.615 23.4121L170.215 19.1482L202.376 -28.9576L202.483 -28.9654L260.191 -33.2383L260.223 -32.8022L202.622 -28.537L170.46 19.5687L170.354 19.5764L112.754 23.8403L80.5945 71.9449L80.4883 71.953L22.8886 76.2167L-9.26974 124.321L-9.37602 124.329L-67.0824 128.601Z"
                fill="url(#paint10_linear_1770_41046)" />
        </g>
        <g opacity="0.05">
            <path
                d="M-67.0824 137.741L-67.1147 137.305L-9.51466 133.041L22.6437 84.937L22.75 84.9291L80.3496 80.6655L112.509 32.5606L112.615 32.5527L170.215 28.289L202.376 -19.8167L202.483 -19.8246L260.191 -24.0977L260.223 -23.6614L202.621 -19.3962L170.46 28.7096L170.354 28.7174L112.754 32.9811L80.5945 81.086L80.4883 81.0938L22.8886 85.3575L-9.26974 133.462L-9.37602 133.469L-67.0824 137.741Z"
                fill="url(#paint11_linear_1770_41046)" />
        </g>
        <g opacity="0.03">
            <path
                d="M-67.0825 146.882L-67.1149 146.446L-9.51479 142.182L22.6436 94.0777L22.7498 94.0696L80.3495 89.806L112.509 41.7011L112.615 41.6934L170.215 37.4295L202.376 -10.6762L202.483 -10.6841L260.191 -14.9572L260.223 -14.5209L202.621 -10.2559L170.46 37.8498L170.354 37.8577L112.754 42.1216L80.5944 90.2265L80.4881 90.2344L22.8885 94.498L-9.26986 142.602L-9.37614 142.61L-67.0825 146.882Z"
                fill="url(#paint12_linear_1770_41046)" />
        </g>
        <g opacity="0.02">
            <path
                d="M-67.0824 156.019L-67.1147 155.583L-9.51466 151.319L22.6437 103.215L22.75 103.206L80.3496 98.9428L112.509 50.8381L112.615 50.8303L170.215 46.5664L202.376 -1.53938L202.483 -1.54726L260.191 -5.82031L260.223 -5.38404L202.621 -1.11886L170.46 46.9867L170.354 46.9946L112.754 51.2587L80.5945 99.3633L80.4883 99.3712L22.8886 103.635L-9.26974 151.739L-9.37602 151.747L-67.0824 156.019Z"
                fill="url(#paint13_linear_1770_41046)" />
        </g>
    </g>
    <defs>
        <linearGradient id="paint0_linear_1770_41046" x1="-60.8005" y1="47.9762" x2="253.909" y2="-135.422"
            gradientUnits="userSpaceOnUse">
            <stop stop-color="#D4AF37" />
            <stop offset="1" stop-color="#D4AF37" stop-opacity="0.654902" />
        </linearGradient>
        <linearGradient id="paint1_linear_1770_41046" x1="-60.8007" y1="57.1169" x2="253.909" y2="-126.282"
            gradientUnits="userSpaceOnUse">
            <stop stop-color="#D4AF37" />
            <stop offset="1" stop-color="#BFA76F" />
        </linearGradient>
        <linearGradient id="paint2_linear_1770_41046" x1="-60.8006" y1="66.2572" x2="253.909" y2="-117.141"
            gradientUnits="userSpaceOnUse">
            <stop stop-color="#D4AF37" />
            <stop offset="1" stop-color="#BFA76F" />
        </linearGradient>
        <linearGradient id="paint3_linear_1770_41046" x1="-60.8005" y1="75.3979" x2="253.909" y2="-108.001"
            gradientUnits="userSpaceOnUse">
            <stop stop-color="#D4AF37" />
            <stop offset="1" stop-color="#BFA76F" />
        </linearGradient>
        <linearGradient id="paint4_linear_1770_41046" x1="-60.8005" y1="84.5368" x2="253.909" y2="-98.8616"
            gradientUnits="userSpaceOnUse">
            <stop stop-color="#D4AF37" />
            <stop offset="1" stop-color="#BFA76F" />
        </linearGradient>
        <linearGradient id="paint5_linear_1770_41046" x1="-60.8007" y1="93.6775" x2="253.909" y2="-89.721"
            gradientUnits="userSpaceOnUse">
            <stop stop-color="#D4AF37" />
            <stop offset="1" stop-color="#BFA76F" />
        </linearGradient>
        <linearGradient id="paint6_linear_1770_41046" x1="-60.8005" y1="102.818" x2="253.909" y2="-80.5805"
            gradientUnits="userSpaceOnUse">
            <stop stop-color="#D4AF37" />
            <stop offset="1" stop-color="#BFA76F" />
        </linearGradient>
        <linearGradient id="paint7_linear_1770_41046" x1="-60.8005" y1="111.959" x2="253.909" y2="-71.4398"
            gradientUnits="userSpaceOnUse">
            <stop stop-color="#D4AF37" />
            <stop offset="1" stop-color="#BFA76F" />
        </linearGradient>
        <linearGradient id="paint8_linear_1770_41046" x1="-60.8006" y1="121.099" x2="253.909" y2="-62.2992"
            gradientUnits="userSpaceOnUse">
            <stop stop-color="#D4AF37" />
            <stop offset="1" stop-color="#BFA76F" />
        </linearGradient>
        <linearGradient id="paint9_linear_1770_41046" x1="-60.8006" y1="130.24" x2="253.909" y2="-53.1588"
            gradientUnits="userSpaceOnUse">
            <stop stop-color="#D4AF37" />
            <stop offset="1" stop-color="#BFA76F" />
        </linearGradient>
        <linearGradient id="paint10_linear_1770_41046" x1="-60.8005" y1="139.38" x2="253.909" y2="-44.0181"
            gradientUnits="userSpaceOnUse">
            <stop stop-color="#D4AF37" />
            <stop offset="1" stop-color="#BFA76F" />
        </linearGradient>
        <linearGradient id="paint11_linear_1770_41046" x1="-60.8006" y1="148.521" x2="253.909" y2="-34.8773"
            gradientUnits="userSpaceOnUse">
            <stop stop-color="#D4AF37" />
            <stop offset="1" stop-color="#BFA76F" />
        </linearGradient>
        <linearGradient id="paint12_linear_1770_41046" x1="-60.8006" y1="157.662" x2="253.909" y2="-25.7368"
            gradientUnits="userSpaceOnUse">
            <stop stop-color="#D4AF37" />
            <stop offset="1" stop-color="#BFA76F" />
        </linearGradient>
        <linearGradient id="paint13_linear_1770_41046" x1="-60.8005" y1="166.798" x2="253.909" y2="-16.6"
            gradientUnits="userSpaceOnUse">
            <stop stop-color="#D4AF37" />
            <stop offset="1" stop-color="#BFA76F" />
        </linearGradient>
        <clipPath id="clip0_1770_41046">
            <rect width="202" height="129" fill="white" />
        </clipPath>
    </defs>
</svg>