<svg viewBox="0 0 40 40" fill="none" xmlns="http://www.w3.org/2000/svg">
    <rect width="40" height="40" rx="8" fill="url(#paint0_linear_1398_31322)" />
    <path
        d="M20 10C17.38 10 15.25 12.13 15.25 14.75C15.25 17.32 17.26 19.4 19.88 19.49C19.96 19.48 20.04 19.48 20.1 19.49C20.12 19.49 20.13 19.49 20.15 19.49C20.16 19.49 20.16 19.49 20.17 19.49C22.73 19.4 24.74 17.32 24.75 14.75C24.75 12.13 22.62 10 20 10Z"
        fill="white" />
    <path
        d="M25.0809 22.1499C22.2909 20.2899 17.7409 20.2899 14.9309 22.1499C13.6609 22.9999 12.9609 24.1499 12.9609 25.3799C12.9609 26.6099 13.6609 27.7499 14.9209 28.5899C16.3209 29.5299 18.1609 29.9999 20.0009 29.9999C21.8409 29.9999 23.6809 29.5299 25.0809 28.5899C26.3409 27.7399 27.0409 26.5999 27.0409 25.3599C27.0309 24.1299 26.3409 22.9899 25.0809 22.1499ZM22.0009 26.1299H20.7509V27.3799C20.7509 27.7899 20.4109 28.1299 20.0009 28.1299C19.5909 28.1299 19.2509 27.7899 19.2509 27.3799V26.1299H18.0009C17.5909 26.1299 17.2509 25.7899 17.2509 25.3799C17.2509 24.9699 17.5909 24.6299 18.0009 24.6299H19.2509V23.3799C19.2509 22.9699 19.5909 22.6299 20.0009 22.6299C20.4109 22.6299 20.7509 22.9699 20.7509 23.3799V24.6299H22.0009C22.4109 24.6299 22.7509 24.9699 22.7509 25.3799C22.7509 25.7899 22.4109 26.1299 22.0009 26.1299Z"
        fill="white" />
    <defs>
        <linearGradient id="paint0_linear_1398_31322" x1="3.33333" y1="4.68085" x2="40.7259" y2="39.214"
            gradientUnits="userSpaceOnUse">
            <stop stop-color="#3C70EB" />
            <stop offset="1" stop-color="#193E93" />
        </linearGradient>
    </defs>
</svg>