<svg viewBox="0 0 40 40" fill="none" xmlns="http://www.w3.org/2000/svg">
    <rect width="40" height="40" rx="8" fill="url(#paint0_linear_1398_31336)" />
    <path
        d="M23.8434 10.8335H16.1618C12.8251 10.8335 10.8359 12.8227 10.8359 16.1593V23.8318C10.8359 27.1777 12.8251 29.1668 16.1618 29.1668H23.8343C27.1709 29.1668 29.1601 27.1777 29.1601 23.841V16.1593C29.1693 12.8227 27.1801 10.8335 23.8434 10.8335ZM15.9968 25.6377C15.9968 26.0135 15.6851 26.3252 15.3093 26.3252C14.9334 26.3252 14.6218 26.0135 14.6218 25.6377V23.7402C14.6218 23.3643 14.9334 23.0527 15.3093 23.0527C15.6851 23.0527 15.9968 23.3643 15.9968 23.7402V25.6377ZM20.6901 25.6377C20.6901 26.0135 20.3784 26.3252 20.0026 26.3252C19.6268 26.3252 19.3151 26.0135 19.3151 25.6377V21.8335C19.3151 21.4577 19.6268 21.146 20.0026 21.146C20.3784 21.146 20.6901 21.4577 20.6901 21.8335V25.6377ZM25.3834 25.6377C25.3834 26.0135 25.0718 26.3252 24.6959 26.3252C24.3201 26.3252 24.0084 26.0135 24.0084 25.6377V19.936C24.0084 19.5602 24.3201 19.2485 24.6959 19.2485C25.0718 19.2485 25.3834 19.5602 25.3834 19.936V25.6377ZM25.3834 17.0393C25.3834 17.4152 25.0718 17.7268 24.6959 17.7268C24.3201 17.7268 24.0084 17.4152 24.0084 17.0393V16.1502C21.6709 18.5518 18.7468 20.2477 15.4743 21.0635C15.4193 21.0818 15.3643 21.0818 15.3093 21.0818C14.9976 21.0818 14.7226 20.871 14.6401 20.5593C14.5484 20.1927 14.7684 19.8168 15.1443 19.7252C18.2334 18.9552 20.9834 17.3327 23.1651 15.041H22.0193C21.6434 15.041 21.3318 14.7293 21.3318 14.3535C21.3318 13.9777 21.6434 13.666 22.0193 13.666H24.7051C24.7418 13.666 24.7693 13.6843 24.8059 13.6843C24.8518 13.6935 24.8976 13.6935 24.9434 13.7118C24.9893 13.7302 25.0259 13.7577 25.0718 13.7852C25.0993 13.8035 25.1268 13.8127 25.1543 13.831C25.1634 13.8402 25.1634 13.8493 25.1726 13.8493C25.2093 13.886 25.2368 13.9227 25.2643 13.9593C25.2918 13.996 25.3193 14.0235 25.3284 14.0602C25.3468 14.0968 25.3468 14.1335 25.3559 14.1793C25.3651 14.2252 25.3834 14.271 25.3834 14.326C25.3834 14.3352 25.3926 14.3443 25.3926 14.3535V17.0393H25.3834Z"
        fill="white" />
    <defs>
        <linearGradient id="paint0_linear_1398_31336" x1="3.33333" y1="4.68085" x2="40.7259" y2="39.214"
            gradientUnits="userSpaceOnUse">
            <stop stop-color="#169D48" />
            <stop offset="1" stop-color="#158640" />
        </linearGradient>
    </defs>
</svg>