<svg viewBox="0 0 40 39" fill="none" xmlns="http://www.w3.org/2000/svg">
    <rect width="40" height="39" rx="8" fill="url(#paint0_linear_1398_31352)" />
    <path
        d="M17.4974 11.1665C15.3141 11.1665 13.5391 12.9415 13.5391 15.1248C13.5391 17.2665 15.2141 18.9998 17.3974 19.0748C17.4641 19.0665 17.5307 19.0665 17.5807 19.0748C17.5974 19.0748 17.6057 19.0748 17.6224 19.0748C17.6307 19.0748 17.6307 19.0748 17.6391 19.0748C19.7724 18.9998 21.4474 17.2665 21.4557 15.1248C21.4557 12.9415 19.6807 11.1665 17.4974 11.1665Z"
        fill="white" />
    <path
        d="M21.7328 21.2919C19.4078 19.7419 15.6161 19.7419 13.2745 21.2919C12.2161 22.0002 11.6328 22.9586 11.6328 23.9836C11.6328 25.0086 12.2161 25.9586 13.2661 26.6586C14.4328 27.4419 15.9661 27.8336 17.4995 27.8336C19.0328 27.8336 20.5661 27.4419 21.7328 26.6586C22.7828 25.9502 23.3661 25.0002 23.3661 23.9669C23.3578 22.9419 22.7828 21.9919 21.7328 21.2919Z"
        fill="white" />
    <path
        d="M26.6578 15.6166C26.7911 17.2333 25.6411 18.6499 24.0495 18.8416C24.0411 18.8416 24.0411 18.8416 24.0328 18.8416H24.0078C23.9578 18.8416 23.9078 18.8416 23.8661 18.8583C23.0578 18.8999 22.3161 18.6416 21.7578 18.1666C22.6161 17.3999 23.1078 16.2499 23.0078 14.9999C22.9495 14.3249 22.7161 13.7083 22.3661 13.1833C22.6828 13.0249 23.0495 12.9249 23.4245 12.8916C25.0578 12.7499 26.5161 13.9666 26.6578 15.6166Z"
        fill="white" />
    <path
        d="M28.3229 23.3252C28.2562 24.1335 27.7396 24.8335 26.8729 25.3085C26.0396 25.7668 24.9896 25.9835 23.9479 25.9585C24.5479 25.4168 24.8979 24.7418 24.9646 24.0252C25.0479 22.9918 24.5563 22.0002 23.5729 21.2085C23.0146 20.7668 22.3646 20.4168 21.6562 20.1585C23.4979 19.6252 25.8146 19.9835 27.2396 21.1335C28.0062 21.7502 28.3979 22.5252 28.3229 23.3252Z"
        fill="white" />
    <defs>
        <linearGradient id="paint0_linear_1398_31352" x1="2.5" y1="3.79167" x2="36.0726" y2="38.2251"
            gradientUnits="userSpaceOnUse">
            <stop stop-color="#FFAF68" />
            <stop offset="1" stop-color="#FF8922" />
        </linearGradient>
    </defs>
</svg>