<svg viewBox="0 0 40 40" fill="none" xmlns="http://www.w3.org/2000/svg">
    <rect width="40" height="40" rx="8" fill="url(#paint0_linear_1398_31344)" />
    <path
        d="M29.4944 16.581L29.2286 14.0418C28.8436 11.2735 27.5877 10.146 24.9019 10.146H22.7386H21.3819H18.5952H17.2386H15.0386C12.3436 10.146 11.0969 11.2735 10.7027 14.0693L10.4552 16.5902C10.3636 17.571 10.6294 18.5243 11.2069 19.2668C11.9036 20.1743 12.9761 20.6877 14.1677 20.6877C15.3227 20.6877 16.4319 20.1102 17.1286 19.1843C17.7519 20.1102 18.8152 20.6877 19.9977 20.6877C21.1802 20.6877 22.2161 20.1377 22.8486 19.221C23.5544 20.1285 24.6452 20.6877 25.7819 20.6877C27.0011 20.6877 28.1011 20.1468 28.7886 19.1935C29.3386 18.4602 29.5861 17.5343 29.4944 16.581Z"
        fill="white" />
    <path
        d="M19.4035 24.2716C18.2394 24.3907 17.3594 25.3807 17.3594 26.5541V29.0657C17.3594 29.3132 17.561 29.5149 17.8085 29.5149H22.181C22.4285 29.5149 22.6302 29.3132 22.6302 29.0657V26.8749C22.6394 24.9591 21.5119 24.0516 19.4035 24.2716Z"
        fill="white" />
    <path
        d="M28.5924 22.2001V24.9317C28.5924 27.4617 26.5391 29.5151 24.0091 29.5151C23.7616 29.5151 23.5599 29.3134 23.5599 29.0659V26.8751C23.5599 25.7017 23.2024 24.7851 22.5057 24.1617C21.8916 23.6026 21.0574 23.3276 20.0216 23.3276C19.7924 23.3276 19.5632 23.3367 19.3157 23.3642C17.6841 23.5292 16.4466 24.9042 16.4466 26.5542V29.0659C16.4466 29.3134 16.2449 29.5151 15.9974 29.5151C13.4674 29.5151 11.4141 27.4617 11.4141 24.9317V22.2184C11.4141 21.5767 12.0466 21.1459 12.6424 21.3567C12.8899 21.4392 13.1374 21.5034 13.3941 21.5401C13.5041 21.5584 13.6232 21.5767 13.7332 21.5767C13.8799 21.5951 14.0266 21.6042 14.1732 21.6042C15.2366 21.6042 16.2816 21.2101 17.1066 20.5317C17.8949 21.2101 18.9216 21.6042 20.0032 21.6042C21.0941 21.6042 22.1024 21.2284 22.8907 20.5501C23.7157 21.2192 24.7424 21.6042 25.7874 21.6042C25.9524 21.6042 26.1174 21.5951 26.2732 21.5767C26.3832 21.5676 26.4841 21.5584 26.5849 21.5401C26.8691 21.5034 27.1257 21.4209 27.3824 21.3384C27.9782 21.1367 28.5924 21.5767 28.5924 22.2001Z"
        fill="white" />
    <defs>
        <linearGradient id="paint0_linear_1398_31344" x1="3.33333" y1="4.68085" x2="40.7259" y2="39.214"
            gradientUnits="userSpaceOnUse">
            <stop stop-color="#E6560C" />
            <stop offset="1" stop-color="#C8450C" />
        </linearGradient>
    </defs>
</svg>