<svg viewBox="0 0 21 21" fill="none" xmlns="http://www.w3.org/2000/svg">
    <path
        d="M10.5 20.5C16.0228 20.5 20.5 16.0228 20.5 10.5C20.5 4.97715 16.0228 0.5 10.5 0.5M10.5 20.5C4.97715 20.5 0.5 16.0228 0.5 10.5C0.5 4.97715 4.97715 0.5 10.5 0.5M10.5 20.5C13.2273 20.5 14.1364 15.9545 14.1364 10.5C14.1364 5.04545 13.2273 0.5 10.5 0.5M10.5 20.5C7.77273 20.5 6.86364 15.9545 6.86364 10.5C6.86364 5.04545 7.77273 0.5 10.5 0.5M1.40909 14.1364H19.5909M1.40909 6.86364H19.5909"
        stroke="currentColor" />
</svg>