<svg viewBox="0 0 15 17" fill="none" xmlns="http://www.w3.org/2000/svg">
    <path
        d="M13.5579 8.03778C12.9492 7.32691 12.6726 6.71088 12.6726 5.6643V5.30844C12.6726 3.94461 12.3587 3.06589 11.6762 2.18716C10.6244 0.822494 8.85365 0 7.12019 0H7.04648C5.34946 0 3.63422 0.784726 2.56416 2.094C1.84444 2.99035 1.49411 3.90685 1.49411 5.30844V5.6643C1.49411 6.71088 1.2357 7.32691 0.60874 8.03778C0.147423 8.56149 0 9.23459 0 9.96309C0 10.6924 0.239355 11.3831 0.719721 11.9446C1.34668 12.6177 2.23205 13.0474 3.13646 13.1221C4.44587 13.2715 5.75529 13.3278 7.08375 13.3278C8.41138 13.3278 9.72079 13.2338 11.031 13.1221C11.9346 13.0474 12.82 12.6177 13.4469 11.9446C13.9265 11.3831 14.1667 10.6924 14.1667 9.96309C14.1667 9.23459 14.0192 8.56149 13.5579 8.03778Z"
        fill="currentColor" />
    <path
        d="M8.75722 14.357C8.34062 14.268 5.80214 14.268 5.38554 14.357C5.02941 14.4393 4.64429 14.6306 4.64429 15.0503C4.66499 15.4506 4.89938 15.8039 5.22404 16.028L5.22321 16.0289C5.64312 16.3562 6.13591 16.5643 6.65189 16.639C6.92686 16.6768 7.20679 16.6751 7.4917 16.639C8.00685 16.5643 8.49964 16.3562 8.91955 16.0289L8.91872 16.028C9.24338 15.8039 9.47777 15.4506 9.49847 15.0503C9.49847 14.6306 9.11335 14.4393 8.75722 14.357Z"
        fill="currentColor" />
</svg>