<svg viewBox="0 0 16 16" fill="none" xmlns="http://www.w3.org/2000/svg">
    <path
        d="M7.88281 12.8994C8.27857 12.8994 8.59957 13.2205 8.59961 13.6162V15.0498C8.59948 15.4455 8.27852 15.7666 7.88281 15.7666C7.48725 15.7664 7.16614 15.4454 7.16602 15.0498V13.6162C7.16606 13.2206 7.48719 12.8996 7.88281 12.8994ZM2.95312 11.9736C3.23299 11.6938 3.68693 11.6938 3.9668 11.9736C4.24659 12.2535 4.24659 12.7065 3.9668 12.9863L2.95312 14C2.67327 14.2797 2.22025 14.2798 1.94043 14C1.66057 13.7201 1.66057 13.2662 1.94043 12.9863L2.95312 11.9736ZM11.9727 11.9727C12.2524 11.693 12.7065 11.6931 12.9863 11.9727L14 12.9863C14.2798 13.2662 14.2798 13.7201 14 14C13.7201 14.2799 13.2662 14.2799 12.9863 14L11.9727 12.9863C11.6931 12.7064 11.6929 12.2524 11.9727 11.9727ZM7.88281 3.58301C10.2574 3.58301 12.1824 5.50826 12.1826 7.88281C12.1826 10.2575 10.2575 12.1826 7.88281 12.1826C5.50823 12.1825 3.58301 10.2574 3.58301 7.88281C3.58321 5.50836 5.50835 3.58317 7.88281 3.58301ZM2.15039 7.16699C2.54588 7.16719 2.866 7.48732 2.86621 7.88281C2.86621 8.27848 2.54601 8.59941 2.15039 8.59961H0.716797C0.321009 8.59961 0 8.2786 0 7.88281C0.000206823 7.4872 0.321137 7.16699 0.716797 7.16699H2.15039ZM15.0498 7.16699C15.4453 7.16716 15.7664 7.48731 15.7666 7.88281C15.7666 8.2785 15.4454 8.59944 15.0498 8.59961H13.6162C13.2204 8.59961 12.8994 8.2786 12.8994 7.88281C12.8996 7.4872 13.2206 7.167 13.6162 7.16699H15.0498ZM1.94043 1.94043C2.22026 1.66068 2.67328 1.66071 2.95312 1.94043L3.9668 2.9541C4.24656 3.23395 4.24656 3.68695 3.9668 3.9668C3.68693 4.24666 3.23299 4.24666 2.95312 3.9668L1.94043 2.9541C1.66057 2.67424 1.66057 2.22029 1.94043 1.94043ZM12.9863 1.94043C13.2662 1.66057 13.7201 1.66057 14 1.94043C14.2798 2.2203 14.2798 2.67425 14 2.9541L12.9863 3.96777C12.7065 4.24728 12.2524 4.24748 11.9727 3.96777C11.6929 3.68802 11.6931 3.23399 11.9727 2.9541L12.9863 1.94043ZM7.88281 0C8.27859 0 8.5996 0.321022 8.59961 0.716797V2.15039C8.59945 2.54604 8.2785 2.86719 7.88281 2.86719C7.48726 2.86702 7.16617 2.54594 7.16602 2.15039V0.716797C7.16603 0.321124 7.48717 0.00016612 7.88281 0Z"
        fill="currentColor" />
</svg>