<svg width="256" height="163" viewBox="0 0 256 163" fill="none" xmlns="http://www.w3.org/2000/svg">
    <g clip-path="url(#clip0_1770_41639)">
        <path
            d="M340.003 116L340.044 116.551L267.263 121.939L226.629 182.722L226.494 182.732L153.713 188.119L113.078 248.903L112.943 248.913L40.1622 254.3L-0.475525 315.085L-0.609863 315.095L-73.5281 320.494L-73.5687 319.943L-0.785004 314.553L39.8525 253.769L39.9871 253.759L112.768 248.371L153.404 187.588L153.538 187.578L226.319 182.19L266.953 121.407L267.088 121.398L340.003 116Z"
            fill="url(#paint0_linear_1770_41639)" />
        <g opacity="0.9">
            <path
                d="M340.003 104.45L340.044 105.001L267.263 110.389L226.629 171.172L226.494 171.182L153.713 176.569L113.078 237.353L112.943 237.363L40.1622 242.75L-0.475525 303.535L-0.609863 303.545L-73.5281 308.944L-73.5687 308.393L-0.785004 303.004L39.8525 242.219L39.9871 242.209L112.768 236.821L153.404 176.038L153.538 176.028L226.319 170.64L266.953 109.857L267.088 109.848L340.003 104.45Z"
                fill="url(#paint1_linear_1770_41639)" />
        </g>
        <g opacity="0.8">
            <path
                d="M340.003 92.9005L340.044 93.4515L267.263 98.8395L226.629 159.622L226.494 159.632L153.713 165.02L113.078 225.803L112.943 225.813L40.1622 231.201L-0.475525 291.986L-0.609863 291.996L-73.5281 297.395L-73.5687 296.844L-0.785004 291.454L39.8525 230.67L39.9871 230.66L112.768 225.272L153.404 164.488L153.538 164.479L226.319 159.091L266.953 98.3084L267.088 98.2984L340.003 92.9005Z"
                fill="url(#paint2_linear_1770_41639)" />
        </g>
        <g opacity="0.7">
            <path
                d="M340.003 81.3508L340.044 81.902L267.263 87.29L226.629 148.073L226.494 148.082L153.713 153.47L113.078 214.254L112.943 214.263L40.1622 219.651L-0.475525 280.436L-0.609863 280.446L-73.5281 285.845L-73.5687 285.294L-0.785309 279.904L39.8525 219.12L39.9871 219.11L112.768 213.722L153.404 152.939L153.538 152.929L226.319 147.541L266.953 86.7586L267.088 86.7487L340.003 81.3508Z"
                fill="url(#paint3_linear_1770_41639)" />
        </g>
        <g opacity="0.6">
            <path
                d="M340.003 69.8032L340.044 70.3544L267.263 75.7421L226.629 136.525L226.494 136.535L153.713 141.922L113.078 202.706L112.943 202.716L40.1622 208.103L-0.475525 268.888L-0.609863 268.898L-73.5281 274.297L-73.5687 273.746L-0.785309 268.357L39.8525 207.572L39.9871 207.562L112.768 202.175L153.404 141.391L153.538 141.381L226.319 135.994L266.953 75.2107L267.088 75.2011L340.003 69.8032Z"
                fill="url(#paint4_linear_1770_41639)" />
        </g>
        <g opacity="0.5">
            <path
                d="M340.003 58.2533L340.044 58.8043L267.263 64.1923L226.629 124.975L226.494 124.985L153.713 130.372L113.078 191.156L112.943 191.166L40.1622 196.554L-0.475525 257.339L-0.609863 257.348L-73.5281 262.748L-73.5687 262.196L-0.785309 256.807L39.8525 196.022L39.9871 196.013L112.768 190.625L153.404 129.841L153.538 129.831L226.319 124.444L266.953 63.6612L267.088 63.6512L340.003 58.2533Z"
                fill="url(#paint5_linear_1770_41639)" />
        </g>
        <g opacity="0.4">
            <path
                d="M340.003 46.7036L340.044 47.2549L267.263 52.6425L226.629 113.425L226.494 113.435L153.713 118.823L113.078 179.606L112.943 179.616L40.1622 185.004L-0.475525 245.789L-0.609863 245.799L-73.5281 251.198L-73.5687 250.647L-0.785004 245.257L39.8525 184.473L39.9871 184.463L112.768 179.075L153.404 118.291L153.538 118.281L226.319 112.894L266.953 52.1115L267.088 52.1015L340.003 46.7036Z"
                fill="url(#paint6_linear_1770_41639)" />
        </g>
        <g opacity="0.3">
            <path
                d="M340.003 35.1538L340.044 35.7051L267.263 41.0928L226.629 101.876L226.494 101.886L153.713 107.273L113.078 168.057L112.943 168.067L40.1622 173.454L-0.475525 234.239L-0.609863 234.249L-73.5281 239.648L-73.5687 239.097L-0.785004 233.707L39.8525 172.923L39.9871 172.913L112.768 167.525L153.404 106.742L153.538 106.732L226.319 101.344L266.953 40.5614L267.088 40.5518L340.003 35.1538Z"
                fill="url(#paint7_linear_1770_41639)" />
        </g>
        <g opacity="0.2">
            <path
                d="M340.003 23.6041L340.044 24.1551L267.263 29.543L226.629 90.3259L226.494 90.3358L153.713 95.7232L113.078 156.507L112.943 156.517L40.1622 161.904L-0.475525 222.689L-0.609863 222.699L-73.5281 228.098L-73.5687 227.547L-0.785004 222.158L39.8525 161.373L39.9871 161.363L112.768 155.976L153.404 95.1919L153.538 95.1822L226.319 89.7945L266.953 29.0116L267.088 29.002L340.003 23.6041Z"
                fill="url(#paint8_linear_1770_41639)" />
        </g>
        <g opacity="0.1">
            <path
                d="M340.003 12.0545L340.044 12.6055L267.263 17.9935L226.629 78.7764L226.494 78.786L153.713 84.1737L113.078 144.957L112.943 144.967L40.1622 150.355L-0.475525 211.14L-0.609863 211.15L-73.5281 216.549L-73.5687 215.998L-0.785004 210.609L39.8525 149.824L39.9871 149.813L112.768 144.426L153.404 83.6423L153.538 83.6327L226.319 78.245L266.953 17.4621L267.088 17.4524L340.003 12.0545Z"
                fill="url(#paint9_linear_1770_41639)" />
        </g>
        <g opacity="0.08">
            <path
                d="M340.003 0.50473L340.044 1.05598L267.263 6.44366L226.629 67.2265L226.494 67.2362L153.713 72.6239L113.078 133.407L112.943 133.417L40.1622 138.805L-0.475525 199.59L-0.609863 199.6L-73.5281 204.999L-73.5687 204.448L-0.785309 199.058L39.8525 138.274L39.9871 138.264L112.768 132.876L153.404 72.0928L153.538 72.0826L226.319 66.6952L266.953 5.91258L267.088 5.90263L340.003 0.50473Z"
                fill="url(#paint10_linear_1770_41639)" />
        </g>
        <g opacity="0.05">
            <path
                d="M340.003 -11.0453L340.044 -10.4943L267.263 -5.10635L226.629 55.6765L226.494 55.6865L153.713 61.0739L113.078 121.858L112.943 121.868L40.1622 127.255L-0.475525 188.04L-0.609863 188.05L-73.5281 193.449L-73.5687 192.898L-0.785004 187.508L39.8525 126.724L39.9871 126.714L112.768 121.326L153.404 60.5425L153.538 60.5326L226.319 55.1452L266.953 -5.63773L267.088 -5.64738L340.003 -11.0453Z"
                fill="url(#paint11_linear_1770_41639)" />
        </g>
        <g opacity="0.03">
            <path
                d="M340.003 -22.5949L340.044 -22.0439L267.263 -16.656L226.629 44.1266L226.494 44.1368L153.713 49.5242L113.078 110.308L112.943 110.318L40.1622 115.705L-0.475525 176.49L-0.609863 176.5L-73.5281 181.899L-73.5687 181.348L-0.785309 175.959L39.8525 115.174L39.9871 115.164L112.768 109.777L153.404 48.9929L153.538 48.9829L226.319 43.5955L266.953 -17.1873L267.088 -17.197L340.003 -22.5949Z"
                fill="url(#paint12_linear_1770_41639)" />
        </g>
        <g opacity="0.02">
            <path
                d="M340.003 -34.1399L340.044 -33.5889L267.263 -28.201L226.629 32.5816L226.494 32.5918L153.713 37.9792L113.078 98.7627L112.943 98.7726L40.1622 104.16L-0.475525 164.945L-0.609863 164.955L-73.5281 170.354L-73.5687 169.803L-0.785004 164.414L39.8525 103.629L39.9871 103.619L112.768 98.2313L153.404 37.4479L153.538 37.4379L226.319 32.0505L266.953 -28.7321L267.088 -28.742L340.003 -34.1399Z"
                fill="url(#paint13_linear_1770_41639)" />
        </g>
    </g>
    <defs>
        <linearGradient id="paint0_linear_1770_41639" x1="332.066" y1="102.379" x2="-65.5905" y2="334.115"
            gradientUnits="userSpaceOnUse">
            <stop stop-color="#D4AF37" />
            <stop offset="1" stop-color="white" />
        </linearGradient>
        <linearGradient id="paint1_linear_1770_41639" x1="332.066" y1="90.8289" x2="-65.5905" y2="322.565"
            gradientUnits="userSpaceOnUse">
            <stop stop-color="#D4AF37" />
            <stop offset="1" stop-color="white" />
        </linearGradient>
        <linearGradient id="paint2_linear_1770_41639" x1="332.066" y1="79.2796" x2="-65.5904" y2="311.016"
            gradientUnits="userSpaceOnUse">
            <stop stop-color="#D4AF37" />
            <stop offset="1" stop-color="white" />
        </linearGradient>
        <linearGradient id="paint3_linear_1770_41639" x1="332.066" y1="67.7298" x2="-65.5904" y2="299.466"
            gradientUnits="userSpaceOnUse">
            <stop stop-color="#D4AF37" />
            <stop offset="1" stop-color="white" />
        </linearGradient>
        <linearGradient id="paint4_linear_1770_41639" x1="332.066" y1="56.1822" x2="-65.5904" y2="287.918"
            gradientUnits="userSpaceOnUse">
            <stop stop-color="#D4AF37" />
            <stop offset="1" stop-color="white" />
        </linearGradient>
        <linearGradient id="paint5_linear_1770_41639" x1="332.066" y1="44.6324" x2="-65.5904" y2="276.368"
            gradientUnits="userSpaceOnUse">
            <stop stop-color="#D4AF37" />
            <stop offset="1" stop-color="white" />
        </linearGradient>
        <linearGradient id="paint6_linear_1770_41639" x1="332.066" y1="33.0827" x2="-65.5904" y2="264.819"
            gradientUnits="userSpaceOnUse">
            <stop stop-color="#D4AF37" />
            <stop offset="1" stop-color="white" />
        </linearGradient>
        <linearGradient id="paint7_linear_1770_41639" x1="332.066" y1="21.5329" x2="-65.5905" y2="253.269"
            gradientUnits="userSpaceOnUse">
            <stop stop-color="#D4AF37" />
            <stop offset="1" stop-color="white" />
        </linearGradient>
        <linearGradient id="paint8_linear_1770_41639" x1="332.066" y1="9.98309" x2="-65.5905" y2="241.719"
            gradientUnits="userSpaceOnUse">
            <stop stop-color="#D4AF37" />
            <stop offset="1" stop-color="white" />
        </linearGradient>
        <linearGradient id="paint9_linear_1770_41639" x1="332.066" y1="-1.56638" x2="-65.5904" y2="230.17"
            gradientUnits="userSpaceOnUse">
            <stop stop-color="#D4AF37" />
            <stop offset="1" stop-color="white" />
        </linearGradient>
        <linearGradient id="paint10_linear_1770_41639" x1="332.066" y1="-13.1163" x2="-65.5904" y2="218.62"
            gradientUnits="userSpaceOnUse">
            <stop stop-color="#D4AF37" />
            <stop offset="1" stop-color="white" />
        </linearGradient>
        <linearGradient id="paint11_linear_1770_41639" x1="332.066" y1="-24.6663" x2="-65.5905" y2="207.07"
            gradientUnits="userSpaceOnUse">
            <stop stop-color="#D4AF37" />
            <stop offset="1" stop-color="white" />
        </linearGradient>
        <linearGradient id="paint12_linear_1770_41639" x1="332.066" y1="-36.2158" x2="-65.5904" y2="195.52"
            gradientUnits="userSpaceOnUse">
            <stop stop-color="#D4AF37" />
            <stop offset="1" stop-color="white" />
        </linearGradient>
        <linearGradient id="paint13_linear_1770_41639" x1="332.066" y1="-47.7609" x2="-65.5905" y2="183.975"
            gradientUnits="userSpaceOnUse">
            <stop stop-color="#D4AF37" />
            <stop offset="1" stop-color="white" />
        </linearGradient>
        <clipPath id="clip0_1770_41639">
            <rect width="255.24" height="163" fill="white" transform="matrix(-1 0 0 -1 255.24 163)" />
        </clipPath>
    </defs>
</svg>