<svg width="255" height="163" viewBox="0 0 255 163" fill="none" xmlns="http://www.w3.org/2000/svg">
    <g clip-path="url(#clip0_1770_41593)">
        <path
            d="M-84.6833 46.9999L-84.7241 46.4489L-12.0111 41.0613L28.5848 -19.7216L28.719 -19.7316L101.431 -25.119L142.029 -85.9027L142.163 -85.9126L214.876 -91.3L255.475 -152.085L255.609 -152.095L328.459 -157.494L328.499 -156.943L255.784 -151.553L215.185 -90.7687L215.051 -90.7587L142.338 -85.3713L101.741 -24.5876L101.606 -24.5779L28.894 -19.1902L-11.702 41.5926L-11.8361 41.6023L-84.6833 46.9999Z"
            fill="url(#paint0_linear_1770_41593)" />
        <g opacity="0.9">
            <path
                d="M-84.6834 58.5502L-84.7242 57.9992L-12.0113 52.6112L28.5847 -8.17165L28.7188 -8.18159L101.431 -13.569L142.029 -74.3527L142.163 -74.3626L214.875 -79.7501L255.475 -140.535L255.609 -140.545L328.459 -145.944L328.499 -145.393L255.784 -140.004L215.185 -79.219L215.05 -79.2087L142.338 -73.8213L101.74 -13.0376L101.606 -13.028L28.8939 -7.64029L-11.7021 53.1426L-11.8362 53.1523L-84.6834 58.5502Z"
                fill="url(#paint1_linear_1770_41593)" />
        </g>
        <g opacity="0.8">
            <path
                d="M-84.6833 70.0995L-84.7241 69.5485L-12.0111 64.1605L28.5848 3.37766L28.719 3.36798L101.431 -2.0197L142.029 -62.8031L142.163 -62.8131L214.876 -68.201L255.475 -128.986L255.609 -128.996L328.459 -134.395L328.499 -133.844L255.784 -128.454L215.185 -67.6697L215.051 -67.6597L142.338 -62.272L101.741 -1.48834L101.606 -1.47867L28.894 3.90901L-11.702 64.6916L-11.8361 64.7016L-84.6833 70.0995Z"
                fill="url(#paint2_linear_1770_41593)" />
        </g>
        <g opacity="0.7">
            <path
                d="M-84.6833 81.6492L-84.7241 81.098L-12.0111 75.71L28.5848 14.9274L28.719 14.9177L101.431 9.53006L142.029 -51.2536L142.163 -51.2633L214.876 -56.651L255.475 -117.436L255.609 -117.446L328.459 -122.845L328.499 -122.294L255.785 -116.904L215.185 -56.1196L215.051 -56.11L142.338 -50.7223L101.741 10.0611L101.606 10.0714L28.894 15.4588L-11.702 76.2414L-11.8361 76.2513L-84.6833 81.6492Z"
                fill="url(#paint3_linear_1770_41593)" />
        </g>
        <g opacity="0.6">
            <path
                d="M-84.6833 93.1968L-84.7241 92.6456L-12.0111 87.2579L28.5848 26.475L28.719 26.4653L101.431 21.0777L142.029 -39.7061L142.163 -39.7157L214.876 -45.1034L255.475 -105.888L255.609 -105.898L328.459 -111.297L328.499 -110.746L255.785 -105.357L215.185 -44.572L215.051 -44.5624L142.338 -39.1747L101.741 21.6087L101.606 21.619L28.894 27.0064L-11.702 87.7893L-11.8361 87.7989L-84.6833 93.1968Z"
                fill="url(#paint4_linear_1770_41593)" />
        </g>
        <g opacity="0.5">
            <path
                d="M-84.6834 104.747L-84.7242 104.196L-12.0113 98.8078L28.5847 38.0249L28.7188 38.0149L101.431 32.6275L142.029 -28.1562L142.163 -28.1658L214.875 -33.5535L255.475 -94.3386L255.609 -94.3483L328.459 -99.7476L328.499 -99.1963L255.784 -93.8073L215.185 -33.0224L215.05 -33.0125L142.338 -27.6248L101.74 33.1589L101.606 33.1688L28.8939 38.5562L-11.7021 99.3389L-11.8362 99.3488L-84.6834 104.747Z"
                fill="url(#paint5_linear_1770_41593)" />
        </g>
        <g opacity="0.4">
            <path
                d="M-84.6833 116.296L-84.7241 115.745L-12.0111 110.357L28.5848 49.5746L28.719 49.5646L101.431 44.1772L142.029 -16.6062L142.163 -16.6164L214.876 -22.0038L255.475 -82.7887L255.609 -82.7986L328.459 -88.1979L328.499 -87.6466L255.784 -82.2573L215.185 -21.4728L215.051 -21.4628L142.338 -16.0751L101.741 44.7086L101.606 44.7185L28.894 50.1059L-11.702 110.889L-11.8361 110.898L-84.6833 116.296Z"
                fill="url(#paint6_linear_1770_41593)" />
        </g>
        <g opacity="0.3">
            <path
                d="M-84.6833 127.846L-84.7241 127.295L-12.0111 121.907L28.5848 61.1244L28.719 61.1144L101.431 55.727L142.029 -5.0567L142.163 -5.06665L214.876 -10.4541L255.475 -71.2389L255.609 -71.2488L328.459 -76.6481L328.499 -76.0968L255.784 -70.7075L215.185 -9.92269L215.051 -9.91274L142.338 -4.52534L101.741 56.2584L101.606 56.268L28.894 61.6557L-11.702 122.439L-11.8361 122.448L-84.6833 127.846Z"
                fill="url(#paint7_linear_1770_41593)" />
        </g>
        <g opacity="0.2">
            <path
                d="M-84.6833 139.396L-84.7241 138.845L-12.0111 133.457L28.5848 72.6741L28.719 72.6642L101.431 67.2768L142.029 6.49306L142.163 6.48312L214.876 1.09571L255.475 -59.6891L255.609 -59.699L328.459 -65.0983L328.499 -64.5471L255.784 -59.1577L215.185 1.6268L215.051 1.63702L142.338 7.02442L101.741 67.8081L101.606 67.8178L28.894 73.2055L-11.702 133.988L-11.8361 133.998L-84.6833 139.396Z"
                fill="url(#paint8_linear_1770_41593)" />
        </g>
        <g opacity="0.1">
            <path
                d="M-84.6833 150.945L-84.7241 150.394L-12.0111 145.007L28.5848 84.2237L28.719 84.214L101.431 78.8263L142.029 18.0429L142.163 18.0329L214.876 12.645L255.475 -48.1396L255.609 -48.1495L328.459 -53.5485L328.499 -52.9976L255.784 -47.6085L215.185 13.1763L215.051 13.1865L142.338 18.5742L101.741 79.3577L101.606 79.3673L28.894 84.755L-11.702 145.538L-11.8361 145.548L-84.6833 150.945Z"
                fill="url(#paint9_linear_1770_41593)" />
        </g>
        <g opacity="0.08">
            <path
                d="M-84.6833 162.495L-84.7241 161.944L-12.0111 156.556L28.5848 95.7734L28.719 95.7638L101.431 90.3761L142.029 29.5927L142.163 29.5827L214.876 24.195L255.475 -36.5898L255.609 -36.5997L328.459 -41.9988L328.499 -41.4478L255.785 -36.0584L215.185 24.7264L215.051 24.7361L142.338 30.1237L101.741 90.9072L101.606 90.9174L28.894 96.3048L-11.702 157.087L-11.8361 157.097L-84.6833 162.495Z"
                fill="url(#paint10_linear_1770_41593)" />
        </g>
        <g opacity="0.05">
            <path
                d="M-84.6833 174.045L-84.7241 173.494L-12.0111 168.106L28.5848 107.323L28.719 107.314L101.431 101.926L142.029 41.1424L142.163 41.1325L214.876 35.7451L255.475 -25.0397L255.609 -25.0497L328.459 -30.449L328.499 -29.8977L255.784 -24.5084L215.185 36.2764L215.051 36.2864L142.338 41.6738L101.741 102.457L101.606 102.467L28.894 107.855L-11.702 168.638L-11.8361 168.647L-84.6833 174.045Z"
                fill="url(#paint11_linear_1770_41593)" />
        </g>
        <g opacity="0.03">
            <path
                d="M-84.6834 185.595L-84.7242 185.044L-12.0113 179.656L28.5847 118.873L28.7188 118.863L101.431 113.476L142.029 52.692L142.163 52.6824L214.875 47.2947L255.475 -13.4901L255.609 -13.5001L328.459 -18.8994L328.499 -18.3481L255.784 -12.959L215.185 47.8258L215.05 47.8357L142.338 53.2234L101.74 114.007L101.606 114.017L28.8939 119.404L-11.7021 180.187L-11.8362 180.197L-84.6834 185.595Z"
                fill="url(#paint12_linear_1770_41593)" />
        </g>
        <g opacity="0.02">
            <path
                d="M-84.6833 197.14L-84.7241 196.589L-12.0111 191.201L28.5848 130.418L28.719 130.408L101.431 125.021L142.029 64.2373L142.163 64.2274L214.876 58.8397L255.475 -1.94511L255.609 -1.95506L328.459 -7.35435L328.499 -6.80309L255.784 -1.41375L215.185 59.3708L215.051 59.3807L142.338 64.7687L101.741 125.552L101.606 125.562L28.894 130.949L-11.702 191.732L-11.8361 191.742L-84.6833 197.14Z"
                fill="url(#paint13_linear_1770_41593)" />
        </g>
    </g>
    <defs>
        <linearGradient id="paint0_linear_1770_41593" x1="-76.7532" y1="60.6211" x2="320.718" y2="-170.789"
            gradientUnits="userSpaceOnUse">
            <stop stop-color="#D4AF37" />
            <stop offset="1" stop-color="white" />
        </linearGradient>
        <linearGradient id="paint1_linear_1770_41593" x1="-76.7534" y1="72.1711" x2="320.718" y2="-159.239"
            gradientUnits="userSpaceOnUse">
            <stop stop-color="#D4AF37" />
            <stop offset="1" stop-color="white" />
        </linearGradient>
        <linearGradient id="paint2_linear_1770_41593" x1="-76.7533" y1="83.7204" x2="320.718" y2="-147.69"
            gradientUnits="userSpaceOnUse">
            <stop stop-color="#D4AF37" />
            <stop offset="1" stop-color="white" />
        </linearGradient>
        <linearGradient id="paint3_linear_1770_41593" x1="-76.7532" y1="95.2702" x2="320.718" y2="-136.14"
            gradientUnits="userSpaceOnUse">
            <stop stop-color="#D4AF37" />
            <stop offset="1" stop-color="white" />
        </linearGradient>
        <linearGradient id="paint4_linear_1770_41593" x1="-76.7532" y1="106.818" x2="320.718" y2="-124.592"
            gradientUnits="userSpaceOnUse">
            <stop stop-color="#D4AF37" />
            <stop offset="1" stop-color="white" />
        </linearGradient>
        <linearGradient id="paint5_linear_1770_41593" x1="-76.7533" y1="118.368" x2="320.718" y2="-113.043"
            gradientUnits="userSpaceOnUse">
            <stop stop-color="#D4AF37" />
            <stop offset="1" stop-color="white" />
        </linearGradient>
        <linearGradient id="paint6_linear_1770_41593" x1="-76.7532" y1="129.917" x2="320.718" y2="-101.493"
            gradientUnits="userSpaceOnUse">
            <stop stop-color="#D4AF37" />
            <stop offset="1" stop-color="white" />
        </linearGradient>
        <linearGradient id="paint7_linear_1770_41593" x1="-76.7532" y1="141.467" x2="320.718" y2="-89.9432"
            gradientUnits="userSpaceOnUse">
            <stop stop-color="#D4AF37" />
            <stop offset="1" stop-color="white" />
        </linearGradient>
        <linearGradient id="paint8_linear_1770_41593" x1="-76.7533" y1="153.017" x2="320.718" y2="-78.3935"
            gradientUnits="userSpaceOnUse">
            <stop stop-color="#D4AF37" />
            <stop offset="1" stop-color="white" />
        </linearGradient>
        <linearGradient id="paint9_linear_1770_41593" x1="-76.7533" y1="164.566" x2="320.718" y2="-66.8439"
            gradientUnits="userSpaceOnUse">
            <stop stop-color="#D4AF37" />
            <stop offset="1" stop-color="white" />
        </linearGradient>
        <linearGradient id="paint10_linear_1770_41593" x1="-76.7532" y1="176.116" x2="320.718" y2="-55.294"
            gradientUnits="userSpaceOnUse">
            <stop stop-color="#D4AF37" />
            <stop offset="1" stop-color="white" />
        </linearGradient>
        <linearGradient id="paint11_linear_1770_41593" x1="-76.7532" y1="187.666" x2="320.718" y2="-43.7441"
            gradientUnits="userSpaceOnUse">
            <stop stop-color="#D4AF37" />
            <stop offset="1" stop-color="white" />
        </linearGradient>
        <linearGradient id="paint12_linear_1770_41593" x1="-76.7533" y1="199.216" x2="320.718" y2="-32.1945"
            gradientUnits="userSpaceOnUse">
            <stop stop-color="#D4AF37" />
            <stop offset="1" stop-color="white" />
        </linearGradient>
        <linearGradient id="paint13_linear_1770_41593" x1="-76.7532" y1="210.761" x2="320.718" y2="-20.6494"
            gradientUnits="userSpaceOnUse">
            <stop stop-color="#D4AF37" />
            <stop offset="1" stop-color="white" />
        </linearGradient>
        <clipPath id="clip0_1770_41593">
            <rect width="255" height="163" fill="white" />
        </clipPath>
    </defs>
</svg>