<svg viewBox="0 0 1688 500" fill="none" xmlns="http://www.w3.org/2000/svg">
    <path d="M844 422L2022.66 -100.75H-334.661L844 422Z" fill="#2E2E2E" />
    <rect x="667" y="202" width="337" height="298" rx="50" fill="white" />
    <path d="M868.101 322.675C867.481 323.296 866.887 323.4 866.319 322.985" stroke="#FFE5DA" stroke-width="2" />
    <path
        d="M866.319 322.985C866.319 322.242 866.145 321.504 865.796 320.772C865.499 320.15 865.35 319.498 865.35 318.815L865.176 259.572C865.176 259.158 865.089 258.748 864.92 258.367C864.751 257.985 864.503 257.638 864.192 257.347C863.88 257.056 863.51 256.827 863.104 256.672C862.697 256.517 862.262 256.439 861.824 256.444L847.428 256.664C846.679 256.674 845.946 256.883 845.313 257.268C844.68 257.652 844.171 258.197 843.844 258.84C842.43 261.566 839.93 262.645 836.791 262.645C826.393 262.694 815.821 262.694 805.075 262.645C802.246 262.626 799.843 261.09 798.778 258.639C798.196 257.31 797.157 256.627 795.658 256.591C790.53 256.444 785.641 256.481 780.991 256.7C779.944 256.748 778.958 257.178 778.239 257.901C777.52 258.624 777.124 259.584 777.136 260.578C777.355 276.661 777.291 292.763 776.942 308.883C776.916 309.761 776.477 310.243 775.625 310.328"
        stroke="#F4F6FF" stroke-width="2" />
    <path d="M775.624 310.328L774.694 309.268" stroke="#FFE5DA" stroke-width="2" />
    <path d="M774.811 299.445L774.985 275.924" stroke="#FFE5DA" stroke-width="2" />
    <path d="M797.692 323.809C802.071 329.088 801.852 334.228 797.034 339.228" stroke="#B4DEB1" stroke-width="2" />
    <path
        d="M866.319 322.985C862.65 324.68 860.215 326.961 859.014 329.826C858.188 331.802 858.239 334.777 859.169 338.752C861.727 349.763 864.51 360.853 867.52 372.023"
        stroke="#F4DCDA" stroke-width="2" />
    <path
        d="M867.52 372.023C866.28 371.352 865.66 371.657 865.66 372.937C865.596 383.46 865.583 393.892 865.621 404.232C865.621 405.028 865.285 405.791 864.685 406.353C864.086 406.916 863.272 407.232 862.425 407.232C837.03 407.22 811.701 407.226 786.436 407.25C782.27 407.25 777.446 408.439 776.981 402.678C776.877 401.3 776.852 399.891 776.903 398.452"
        stroke="#F4F6FF" stroke-width="2" />
    <path
        d="M776.903 398.452C784.498 399.294 788.844 396.581 789.942 390.313C790.704 386.009 789.297 382.631 785.719 380.18C782.128 377.729 778.569 375.297 775.043 372.882"
        stroke="#F4DCDA" stroke-width="2" />
    <path
        d="M774.966 366.938C774.888 366.621 774.927 366.346 775.082 366.115C775.379 365.664 775.721 365.621 776.109 365.987C789.846 378.571 804.454 359.585 789.923 350.641C785.015 347.605 780.035 344.715 774.985 341.971"
        stroke="#F4DCDA" stroke-width="2" />
    <path
        d="M775.159 333.722C777.807 335.49 780.397 337.258 782.929 339.026C787.54 342.221 792.241 342.288 797.034 339.228"
        stroke="#F4DCDA" stroke-width="2" />
    <path
        d="M797.034 339.228C801.722 349.104 808.801 354.561 818.269 355.598C837.799 357.719 852.175 339.813 844.677 322.675C842.52 317.748 839.052 314.005 834.272 311.444C820.167 303.908 803.854 309.798 797.692 323.809"
        stroke="#A9EED7" stroke-width="2" />
    <path d="M797.693 323.809L775.625 310.328" stroke="#F4DCDA" stroke-width="2" />
    <path d="M882.051 444.38L819.993 444.289" stroke="#A6ABD2" stroke-width="2" />
    <path
        d="M777.853 411.073L864.478 411.091C864.944 411.094 865.405 411.008 865.835 410.84C866.265 410.671 866.656 410.423 866.984 410.11C867.312 409.797 867.572 409.425 867.747 409.015C867.922 408.606 868.01 408.168 868.004 407.726L867.52 372.023"
        stroke="#FFE5DA" stroke-width="2" />
    <path
        d="M776.903 398.452C776.67 398.294 776.36 398.184 775.973 398.123C775.624 398.062 775.372 398.117 775.217 398.288C775.049 398.459 774.927 398.721 774.849 399.074"
        stroke="#FFE5DA" stroke-width="2" />
    <path
        d="M834.079 318.852C833.983 318.779 833.872 318.725 833.753 318.694C833.634 318.664 833.509 318.657 833.387 318.674C833.265 318.691 833.148 318.732 833.044 318.794C832.94 318.856 832.85 318.938 832.781 319.035L820.594 336.246C820.522 336.352 820.427 336.441 820.314 336.507C820.202 336.573 820.075 336.615 819.943 336.629C819.811 336.643 819.678 336.629 819.552 336.588C819.427 336.547 819.313 336.48 819.218 336.392L811.449 329.296C811.343 329.198 811.213 329.127 811.071 329.089C810.929 329.051 810.779 329.046 810.635 329.076L807.826 329.643C807.671 329.673 807.528 329.74 807.41 329.839C807.292 329.937 807.204 330.064 807.155 330.205C807.106 330.346 807.097 330.498 807.13 330.643C807.163 330.789 807.236 330.923 807.341 331.033L819.335 343.599C819.422 343.692 819.531 343.765 819.652 343.813C819.773 343.861 819.905 343.884 820.036 343.878C820.168 343.873 820.296 343.84 820.413 343.783C820.529 343.725 820.631 343.643 820.71 343.544L837.683 322.565C837.825 322.389 837.888 322.169 837.859 321.95C837.83 321.731 837.711 321.531 837.528 321.394L834.079 318.852Z"
        stroke="#B4F8D7" stroke-width="2" />
    <path
        d="M868.101 322.675C867.481 323.296 866.887 323.4 866.319 322.985C866.319 322.242 866.144 321.504 865.796 320.772C865.499 320.15 865.35 319.498 865.35 318.815L865.176 259.572C865.176 259.158 865.089 258.748 864.92 258.367C864.751 257.985 864.503 257.638 864.192 257.347C863.88 257.056 863.51 256.827 863.103 256.672C862.697 256.517 862.262 256.439 861.824 256.444L847.428 256.664C846.679 256.674 845.946 256.883 845.313 257.268C844.68 257.652 844.171 258.197 843.844 258.84C842.429 261.566 839.93 262.645 836.791 262.645C826.393 262.694 815.821 262.694 805.074 262.645C802.246 262.626 799.843 261.09 798.777 258.639C798.196 257.31 797.156 256.627 795.658 256.591C790.53 256.444 785.641 256.481 780.991 256.7C779.944 256.748 778.958 257.178 778.239 257.901C777.519 258.624 777.124 259.584 777.136 260.578C777.355 276.661 777.291 292.763 776.942 308.883C776.916 309.761 776.477 310.243 775.624 310.328L774.694 309.268L774.811 299.445L774.985 275.924L775.043 256.664C775.043 256.133 775.154 255.607 775.369 255.117C775.584 254.626 775.9 254.181 776.297 253.805C776.695 253.43 777.167 253.132 777.686 252.929C778.206 252.726 778.763 252.622 779.325 252.622H863.664C864.841 252.622 865.97 253.061 866.802 253.843C867.634 254.625 868.101 255.686 868.101 256.792V322.675Z"
        fill="white" />
    <path
        d="M866.319 322.985C862.65 324.68 860.216 326.961 859.014 329.826C858.188 331.802 858.239 334.777 859.169 338.752C861.727 349.763 864.51 360.853 867.52 372.023C866.28 371.352 865.66 371.657 865.66 372.937C865.595 383.46 865.582 393.892 865.621 404.232C865.621 405.028 865.284 405.791 864.685 406.353C864.085 406.916 863.272 407.232 862.424 407.232C837.03 407.22 811.701 407.226 786.436 407.25C782.27 407.25 777.446 408.439 776.981 402.678C776.877 401.3 776.851 399.891 776.903 398.452C784.498 399.294 788.844 396.581 789.942 390.313C790.704 386.009 789.297 382.631 785.719 380.18C782.128 377.729 778.569 375.297 775.043 372.882L774.966 366.938C774.888 366.621 774.927 366.346 775.082 366.115C775.379 365.664 775.721 365.621 776.109 365.987C789.846 378.571 804.454 359.585 789.923 350.641C785.015 347.605 780.035 344.715 774.985 341.971L775.159 333.722C777.807 335.49 780.397 337.258 782.929 339.026C787.54 342.221 792.242 342.288 797.034 339.228C801.722 349.104 808.801 354.561 818.269 355.598C837.799 357.719 852.175 339.813 844.677 322.675C842.52 317.748 839.052 314.005 834.272 311.444C820.167 303.908 803.854 309.798 797.692 323.809L775.624 310.328C776.477 310.243 776.916 309.761 776.942 308.883C777.291 292.763 777.355 276.661 777.136 260.578C777.124 259.584 777.519 258.624 778.238 257.901C778.957 257.178 779.944 256.748 780.991 256.7C785.641 256.481 790.53 256.444 795.658 256.591C797.156 256.627 798.196 257.31 798.777 258.639C799.843 261.09 802.246 262.626 805.074 262.645C815.821 262.694 826.393 262.694 836.791 262.645C839.93 262.645 842.429 261.566 843.844 258.84C844.171 258.197 844.68 257.652 845.313 257.268C845.946 256.883 846.678 256.674 847.428 256.664L861.824 256.444C862.262 256.439 862.697 256.517 863.103 256.672C863.51 256.827 863.88 257.056 864.191 257.347C864.503 257.638 864.751 257.985 864.92 258.367C865.089 258.748 865.176 259.158 865.176 259.572L865.35 318.815C865.35 319.498 865.498 320.15 865.796 320.772C866.144 321.504 866.319 322.242 866.319 322.985Z"
        fill="#E9ECFF" />
    <path
        d="M774.985 275.924L774.811 299.445C770.574 296.885 766.48 294.373 762.527 291.91C759.518 290.032 757.574 288.136 756.695 286.221C753.925 280.259 758.071 273.692 764.794 272.595C768.359 271.997 771.756 273.107 774.985 275.924Z"
        fill="#FFCBB4" />
    <path
        d="M774.694 309.268L775.624 310.328L797.692 323.809C802.071 329.088 801.851 334.228 797.034 339.228C792.241 342.288 787.54 342.221 782.929 339.026C780.397 337.258 777.807 335.49 775.159 333.722C770.47 330.747 765.711 327.778 760.88 324.815C755.203 321.321 752.335 318.395 753.905 311.7C754.383 309.688 755.668 308.085 757.76 306.89C763.276 303.719 768.501 304.524 773.435 309.304C773.577 309.438 773.745 309.511 773.939 309.524C774.197 309.536 774.449 309.45 774.694 309.268Z"
        fill="#FFCBB4" />
    <path
        d="M797.034 339.228C801.852 334.228 802.071 329.088 797.692 323.809C803.854 309.798 820.167 303.908 834.272 311.444C839.052 314.005 842.52 317.748 844.677 322.675C852.175 339.813 837.799 357.719 818.269 355.598C808.801 354.561 801.722 349.104 797.034 339.228ZM834.079 318.852C833.983 318.779 833.872 318.725 833.753 318.694C833.634 318.664 833.509 318.657 833.387 318.674C833.265 318.691 833.148 318.732 833.044 318.794C832.939 318.856 832.85 318.938 832.781 319.035L820.594 336.246C820.522 336.352 820.427 336.441 820.314 336.507C820.201 336.573 820.075 336.615 819.943 336.629C819.811 336.643 819.678 336.629 819.552 336.588C819.427 336.547 819.313 336.48 819.218 336.392L811.449 329.296C811.343 329.198 811.213 329.127 811.071 329.089C810.929 329.051 810.779 329.046 810.635 329.076L807.826 329.643C807.671 329.673 807.528 329.74 807.41 329.839C807.292 329.937 807.204 330.064 807.155 330.205C807.106 330.346 807.097 330.498 807.13 330.643C807.162 330.789 807.235 330.923 807.341 331.033L819.334 343.599C819.422 343.692 819.531 343.765 819.652 343.813C819.773 343.861 819.904 343.884 820.036 343.878C820.167 343.873 820.296 343.84 820.413 343.783C820.529 343.725 820.631 343.643 820.71 343.544L837.682 322.565C837.824 322.389 837.888 322.169 837.859 321.95C837.83 321.731 837.711 321.531 837.527 321.394L834.079 318.852Z"
        fill="#42AF3C" />
    <path
        d="M834.079 318.852L837.528 321.394C837.711 321.531 837.83 321.731 837.859 321.95C837.888 322.168 837.825 322.389 837.683 322.565L820.71 343.544C820.631 343.643 820.529 343.725 820.413 343.783C820.296 343.84 820.168 343.873 820.036 343.878C819.905 343.884 819.773 343.861 819.652 343.813C819.531 343.765 819.422 343.692 819.335 343.599L807.341 331.033C807.236 330.923 807.163 330.788 807.13 330.643C807.097 330.498 807.106 330.346 807.155 330.205C807.204 330.064 807.292 329.937 807.41 329.839C807.528 329.74 807.671 329.673 807.826 329.643L810.635 329.076C810.779 329.046 810.929 329.051 811.071 329.089C811.213 329.127 811.343 329.198 811.449 329.296L819.218 336.392C819.313 336.48 819.427 336.547 819.552 336.588C819.678 336.629 819.811 336.643 819.943 336.629C820.075 336.615 820.202 336.573 820.314 336.507C820.427 336.441 820.522 336.352 820.594 336.246L832.781 319.035C832.85 318.938 832.94 318.856 833.044 318.794C833.148 318.732 833.265 318.691 833.387 318.674C833.509 318.657 833.634 318.664 833.753 318.694C833.872 318.725 833.983 318.779 834.079 318.852Z"
        fill="white" />
    <path
        d="M868.101 322.675L868.431 323.095C868.516 323.193 868.623 323.272 868.743 323.329C868.863 323.386 868.994 323.418 869.128 323.424C874.631 323.595 878.028 326.369 879.319 331.747C883.001 346.989 887.218 363.956 891.971 382.649C893.457 388.515 893.709 393.508 892.727 397.629C891.267 403.677 887.767 408.774 882.226 412.92C881.722 413.298 881.476 413.792 881.489 414.402L882.051 444.38L819.993 444.289L820.071 428.284C820.072 428.083 819.992 427.889 819.849 427.74C819.705 427.591 819.508 427.498 819.296 427.48C804.474 426.199 787.85 422.651 777.853 411.073L864.478 411.091C864.944 411.094 865.405 411.008 865.835 410.84C866.265 410.671 866.656 410.423 866.984 410.11C867.312 409.797 867.572 409.425 867.747 409.015C867.922 408.606 868.01 408.168 868.004 407.726L867.52 372.023C864.51 360.853 861.727 349.763 859.169 338.752C858.239 334.777 858.188 331.802 859.014 329.826C860.216 326.961 862.65 324.68 866.319 322.985C866.887 323.4 867.481 323.296 868.101 322.675Z"
        fill="#FFCBB4" />
    <path
        d="M774.985 341.971C780.035 344.715 785.015 347.605 789.923 350.641C804.454 359.585 789.845 378.571 776.109 365.987C775.721 365.621 775.379 365.664 775.082 366.115C774.927 366.346 774.888 366.621 774.965 366.938C774.823 365.865 774.559 365.206 774.171 364.962C769.715 362.255 765.181 359.487 760.57 356.658C757.896 355.012 756.101 353.537 755.184 352.232C749.371 343.983 759.33 333.887 768.242 337.764C769.237 338.191 771.484 339.593 774.985 341.971Z"
        fill="#FFCBB4" />
    <path
        d="M775.043 372.882C778.569 375.297 782.128 377.729 785.719 380.18C789.297 382.631 790.704 386.009 789.942 390.313C788.844 396.581 784.498 399.294 776.903 398.452C776.67 398.294 776.36 398.184 775.973 398.123C775.624 398.062 775.372 398.117 775.217 398.288C775.049 398.459 774.927 398.721 774.849 399.074C774.836 398.184 774.488 397.483 773.803 396.971C769.308 393.642 764.619 390.301 759.737 386.948C757.773 385.606 756.617 383.655 756.269 381.095C755.997 379.046 756.437 377.016 757.586 375.004C761.371 368.456 767.19 367.749 775.043 372.882Z"
        fill="#FFCBB4" />
    <path
        d="M867.52 372.023L868.004 407.726C868.009 408.168 867.922 408.606 867.747 409.015C867.571 409.425 867.312 409.797 866.984 410.11C866.656 410.423 866.265 410.671 865.835 410.84C865.405 411.008 864.943 411.094 864.478 411.091L777.852 411.073L776.496 410.268C776.083 410.012 775.727 410.067 775.43 410.433C775.314 410.579 775.256 410.744 775.256 410.927C775.269 411.353 775.237 411.353 775.159 410.927C774.513 406.976 774.41 403.025 774.849 399.074C774.927 398.721 775.049 398.459 775.217 398.288C775.372 398.117 775.624 398.062 775.973 398.123C776.36 398.184 776.67 398.294 776.903 398.452C776.851 399.891 776.877 401.3 776.98 402.678C777.445 408.439 782.27 407.25 786.435 407.25C811.7 407.226 837.03 407.22 862.424 407.232C863.272 407.232 864.085 406.916 864.685 406.353C865.284 405.791 865.621 405.028 865.621 404.232C865.582 393.892 865.595 383.46 865.66 372.937C865.66 371.657 866.28 371.352 867.52 372.023Z"
        fill="white" />
    <path
        d="M819.993 444.289L882.051 444.38L888.155 443.923C889.162 443.838 889.692 444.277 889.743 445.24L890.383 458.519C890.434 459.58 889.905 460.116 888.794 460.128L807.109 460.567C806.308 460.58 805.998 460.22 806.179 459.488C807.122 455.647 807.393 451.538 806.993 447.16C806.812 445.209 807.755 444.24 809.821 444.252L819.993 444.289Z"
        fill="#D5D4D7" />
</svg>