<svg viewBox="0 0 34 34" fill="none" xmlns="http://www.w3.org/2000/svg">
    <rect width="34.0029" height="33.9998" rx="8" fill="url(#paint0_linear_1398_31976)" />
    <path fill-rule="evenodd" clip-rule="evenodd"
        d="M20.0267 21.9463C19.6601 21.9463 19.3629 22.2487 19.3629 22.6219C19.3629 22.9951 19.6601 23.2976 20.0267 23.2976H22.0178V25.3246C22.0178 25.6977 22.3149 26.0002 22.6815 26.0002C23.048 26.0002 23.3452 25.6977 23.3452 25.3246V23.2976H25.3363C25.7028 23.2976 26 22.9951 26 22.6219C26 22.2487 25.7028 21.9463 25.3363 21.9463H23.3452V19.9193C23.3452 19.5461 23.048 19.2437 22.6815 19.2437C22.3149 19.2437 22.0178 19.5461 22.0178 19.9193V21.9463H20.0267Z"
        fill="white" />
    <path
        d="M11.9751 17.9282C13.1935 17.9282 13.8027 17.9282 14.2842 18.1279C14.9463 18.4025 15.4716 18.9373 15.7413 19.6113C15.9375 20.1015 15.9375 20.7217 15.9375 21.962C15.9375 23.2024 15.9375 23.8225 15.7413 24.3128C15.4716 24.9868 14.9463 25.5215 14.2842 25.7961C13.8027 25.9958 13.1935 25.9958 11.9751 25.9958C10.7567 25.9958 10.1475 25.9958 9.66592 25.7961C9.00386 25.5215 8.47853 24.9868 8.2088 24.3128C8.0127 23.8225 8.0127 23.2024 8.0127 21.962C8.0127 20.7217 8.0127 20.1015 8.2088 19.6113C8.47853 18.9373 9.00386 18.4025 9.66592 18.1279C10.1475 17.9282 10.7567 17.9282 11.9751 17.9282Z"
        fill="white" />
    <path
        d="M22.0376 8C23.256 8 23.8652 8 24.3468 8.19971C25.0088 8.47427 25.5342 9.00905 25.8038 9.68303C26 10.1733 26 10.7934 26 12.0338C26 13.2741 26 13.8943 25.8038 14.3845C25.5342 15.0585 25.0088 15.5933 24.3468 15.8679C23.8652 16.0675 23.256 16.0675 22.0376 16.0675C20.8192 16.0675 20.21 16.0675 19.7284 15.8679C19.0663 15.5933 18.541 15.0585 18.2714 14.3845C18.0752 13.8943 18.0752 13.2741 18.0752 12.0338C18.0752 10.7934 18.0752 10.1733 18.2714 9.68303C18.541 9.00905 19.0663 8.47427 19.7284 8.19971C20.21 8 20.8192 8 22.0376 8Z"
        fill="white" />
    <path
        d="M11.9673 8C13.1857 8 13.7949 8 14.2764 8.19972C14.9385 8.47431 15.4639 9.00907 15.7335 9.68302C15.9297 10.1733 15.9297 10.7934 15.9297 12.0338C15.9297 13.2742 15.9297 13.8944 15.7335 14.3845C15.4639 15.0586 14.9385 15.5933 14.2764 15.8679C13.7949 16.0676 13.1857 16.0676 11.9673 16.0676C10.7489 16.0676 10.1397 16.0676 9.65813 15.8679C8.99602 15.5933 8.47072 15.0586 8.20108 14.3845C8.00489 13.8944 8.00489 13.2742 8.00489 12.0338C8.00489 10.7934 8.00489 10.1733 8.20108 9.68302C8.47072 9.00907 8.99602 8.47431 9.65813 8.19972C10.1397 8 10.7489 8 11.9673 8Z"
        fill="white" />
    <defs>
        <linearGradient id="paint0_linear_1398_31976" x1="2.83358" y1="3.97869" x2="34.6172" y2="33.3347"
            gradientUnits="userSpaceOnUse">
            <stop stop-color="#3C70EB" />
            <stop offset="1" stop-color="#193E93" />
        </linearGradient>
    </defs>
</svg>