<svg width="34" height="34" viewBox="0 0 34 34" fill="none" xmlns="http://www.w3.org/2000/svg">
<g clip-path="url(#clip0_8132_216)">
<path d="M26.0029 0H8C3.58172 0 0 3.58172 0 8V25.9998C0 30.4181 3.58172 33.9998 8 33.9998H26.0029C30.4212 33.9998 34.0029 30.4181 34.0029 25.9998V8C34.0029 3.58172 30.4212 0 26.0029 0Z" fill="url(#paint0_linear_8132_216)"/>
<path d="M10.9999 7C11.2448 7.00003 11.4812 7.08996 11.6642 7.25272C11.8473 7.41547 11.9642 7.63975 11.9929 7.883L11.9999 8V9.068L25.0709 10.003C25.3278 10.0212 25.5678 10.1378 25.7409 10.3286C25.9139 10.5193 26.0067 10.7695 25.9999 11.027L25.9899 11.141L24.9899 18.141C24.9588 18.3602 24.8558 18.5629 24.697 18.7173C24.5383 18.8716 24.3329 18.969 24.1129 18.994L23.9999 19H11.9999V21H21.9999C22.5857 21 23.1587 21.1716 23.6482 21.4935C24.1377 21.8154 24.5222 22.2736 24.7543 22.8115C24.9863 23.3494 25.0559 23.9435 24.9542 24.5205C24.8526 25.0974 24.5842 25.632 24.1823 26.0582C23.7804 26.4844 23.2625 26.7836 22.6925 26.9189C22.1224 27.0542 21.5253 27.0196 20.9747 26.8195C20.4241 26.6193 19.9442 26.2623 19.5941 25.7926C19.2441 25.3228 19.0392 24.7608 19.0049 24.176L18.9999 24L19.0049 23.824C19.0219 23.536 19.0789 23.26 19.1709 23H13.8289C13.9716 23.4048 14.0258 23.8356 13.9878 24.2632C13.9498 24.6907 13.8204 25.1052 13.6085 25.4785C13.3966 25.8518 13.107 26.1753 12.7594 26.4271C12.4118 26.6789 12.0141 26.8532 11.5933 26.9381C11.1726 27.0231 10.7385 27.0168 10.3204 26.9196C9.90224 26.8224 9.50985 26.6366 9.16969 26.3748C8.82953 26.113 8.54952 25.7812 8.34857 25.4019C8.14763 25.0225 8.03042 24.6045 8.00488 24.176L7.99988 24L8.00488 23.824C8.03948 23.2344 8.24721 22.6682 8.60207 22.1961C8.95693 21.724 9.44316 21.3671 9.99988 21.17V9H8.99988C8.75494 8.99997 8.51854 8.91004 8.33551 8.74728C8.15247 8.58453 8.03554 8.36025 8.00688 8.117L7.99988 8C7.99991 7.75507 8.08983 7.51866 8.25259 7.33563C8.41535 7.15259 8.63963 7.03566 8.88288 7.007L8.99988 7H10.9999ZM10.9999 23C10.7347 23 10.4803 23.1054 10.2928 23.2929C10.1052 23.4804 9.99988 23.7348 9.99988 24C9.99988 24.2652 10.1052 24.5196 10.2928 24.7071C10.4803 24.8946 10.7347 25 10.9999 25C11.2651 25 11.5194 24.8946 11.707 24.7071C11.8945 24.5196 11.9999 24.2652 11.9999 24C11.9999 23.7348 11.8945 23.4804 11.707 23.2929C11.5194 23.1054 11.2651 23 10.9999 23ZM21.9999 23C21.7347 23 21.4803 23.1054 21.2928 23.2929C21.1052 23.4804 20.9999 23.7348 20.9999 24C20.9999 24.2652 21.1052 24.5196 21.2928 24.7071C21.4803 24.8946 21.7347 25 21.9999 25C22.2651 25 22.5194 24.8946 22.707 24.7071C22.8945 24.5196 22.9999 24.2652 22.9999 24C22.9999 23.7348 22.8945 23.4804 22.707 23.2929C22.5194 23.1054 22.2651 23 21.9999 23Z" fill="white"/>
</g>
<defs>
<linearGradient id="paint0_linear_8132_216" x1="2.83358" y1="3.97869" x2="34.6172" y2="33.3347" gradientUnits="userSpaceOnUse">
<stop stop-color="#C23CEB"/>
<stop offset="1" stop-color="#931987"/>
</linearGradient>
<clipPath id="clip0_8132_216">
<rect width="34" height="34" fill="white"/>
</clipPath>
</defs>
</svg>
