<svg viewBox="0 0 34 34" fill="none" xmlns="http://www.w3.org/2000/svg">
    <g clip-path="url(#clip0_8127_15)">
        <path
            d="M26.0029 0H8C3.58172 0 0 3.58172 0 8V25.9998C0 30.4181 3.58172 33.9998 8 33.9998H26.0029C30.4212 33.9998 34.0029 30.4181 34.0029 25.9998V8C34.0029 3.58172 30.4212 0 26.0029 0Z"
            fill="url(#paint0_linear_8127_15)" />
        <mask id="mask0_8127_15" style="mask-type:luminance" maskUnits="userSpaceOnUse" x="5" y="5" width="24"
            height="24">
            <path d="M29 5H5V29H29V5Z" fill="white" />
        </mask>
        <g mask="url(#mask0_8127_15)">
            <path d="M27 24V27H7V24C7 23.45 7.45 23 8 23H26C26.55 23 27 23.45 27 24Z" fill="white" />
            <path
                d="M26.25 24C26.25 23.8642 26.1358 23.75 26 23.75H8C7.86421 23.75 7.75 23.8642 7.75 24V26.25H26.25V24ZM27.75 27C27.75 27.4142 27.4142 27.75 27 27.75H7C6.58579 27.75 6.25 27.4142 6.25 27V24C6.25 23.0358 7.03579 22.25 8 22.25H26C26.9642 22.25 27.75 23.0358 27.75 24V27Z"
                fill="white" />
            <path d="M12 16H10V23H12V16Z" fill="white" />
            <path d="M16 16H14V23H16V16Z" fill="white" />
            <path d="M20 16H18V23H20V16Z" fill="white" />
            <path d="M24 16H22V23H24V16Z" fill="white" />
            <path
                d="M28 27.75H6C5.59 27.75 5.25 27.41 5.25 27C5.25 26.59 5.59 26.25 6 26.25H28C28.41 26.25 28.75 26.59 28.75 27C28.75 27.41 28.41 27.75 28 27.75Z"
                fill="white" />
            <path
                d="M26.37 10.7498L17.37 7.14984C17.17 7.06984 16.83 7.06984 16.63 7.14984L7.63 10.7498C7.28 10.8898 7 11.2998 7 11.6798V14.9998C7 15.5498 7.45 15.9998 8 15.9998H26C26.55 15.9998 27 15.5498 27 14.9998V11.6798C27 11.2998 26.72 10.8898 26.37 10.7498ZM17 13.4998C16.17 13.4998 15.5 12.8298 15.5 11.9998C15.5 11.1698 16.17 10.4998 17 10.4998C17.83 10.4998 18.5 11.1698 18.5 11.9998C18.5 12.8298 17.83 13.4998 17 13.4998Z"
                fill="white" />
        </g>
    </g>
    <defs>
        <linearGradient id="paint0_linear_8127_15" x1="2.83358" y1="3.97869" x2="34.6172" y2="33.3347"
            gradientUnits="userSpaceOnUse">
            <stop stop-color="#EB823C" />
            <stop offset="1" stop-color="#935C19" />
        </linearGradient>
        <clipPath id="clip0_8127_15">
            <rect width="34" height="34" fill="white" />
        </clipPath>
    </defs>
</svg>