<svg width="34" height="37" viewBox="0 0 34 37" fill="none" xmlns="http://www.w3.org/2000/svg">
<rect width="34.0005" height="36.4851" rx="8" fill="url(#paint0_linear_4014_29344)"/>
<path d="M23.3641 10.6361C25.0164 12.2882 25.9614 14.5182 25.9993 16.8545C26.0372 19.1908 25.1649 21.4502 23.5671 23.1551L23.3641 23.3651L19.1211 27.6071C18.5827 28.1451 17.8599 28.4584 17.0992 28.4834C16.3385 28.5085 15.5967 28.2435 15.0241 27.7421L14.8801 27.6071L10.6361 23.3641C8.94822 21.6762 8 19.387 8 17.0001C8 14.6131 8.94822 12.3239 10.6361 10.6361C12.3239 8.94822 14.6131 8 17.0001 8C19.387 8 21.6762 8.94822 23.3641 10.6361ZM17.0001 14.0001C16.6061 14.0001 16.216 14.0777 15.852 14.2284C15.488 14.3792 15.1573 14.6002 14.8787 14.8787C14.6002 15.1573 14.3792 15.488 14.2284 15.852C14.0777 16.216 14.0001 16.6061 14.0001 17.0001C14.0001 17.394 14.0777 17.7841 14.2284 18.1481C14.3792 18.5121 14.6002 18.8428 14.8787 19.1214C15.1573 19.4 15.488 19.6209 15.852 19.7717C16.216 19.9225 16.6061 20.0001 17.0001 20.0001C17.7957 20.0001 18.5588 19.684 19.1214 19.1214C19.684 18.5588 20.0001 17.7957 20.0001 17.0001C20.0001 16.2044 19.684 15.4413 19.1214 14.8787C18.5588 14.3161 17.7957 14.0001 17.0001 14.0001Z" fill="white"/>
<defs>
<linearGradient id="paint0_linear_4014_29344" x1="2.83337" y1="4.26953" x2="36.6663" y2="33.3875" gradientUnits="userSpaceOnUse">
<stop stop-color="#19938B"/>
<stop offset="1" stop-color="#19938B"/>
</linearGradient>
</defs>
</svg>
