<svg viewBox="0 0 34 34" fill="none" xmlns="http://www.w3.org/2000/svg">
    <rect width="34" height="34" rx="8" fill="url(#paint0_linear_1533_49209)" />
    <path
        d="M16.9972 18.5C13.2397 18.5 10.1797 21.02 10.1797 24.125C10.1797 24.335 10.3447 24.5 10.5547 24.5H23.4397C23.6497 24.5 23.8147 24.335 23.8147 24.125C23.8147 21.02 20.7547 18.5 16.9972 18.5Z"
        fill="white" />
    <path
        d="M17 9.5C16.115 9.5 15.305 9.8075 14.66 10.325C13.7975 11.0075 13.25 12.065 13.25 13.25C13.25 13.955 13.445 14.615 13.7975 15.1775C14.4425 16.265 15.6275 17 17 17C17.945 17 18.8075 16.655 19.4675 16.0625C19.76 15.815 20.015 15.515 20.21 15.1775C20.555 14.615 20.75 13.955 20.75 13.25C20.75 11.18 19.07 9.5 17 9.5ZM18.9425 12.845L16.94 14.69C16.805 14.8175 16.6325 14.8775 16.46 14.8775C16.28 14.8775 16.1 14.81 15.965 14.675L15.0425 13.745C14.765 13.4675 14.765 13.025 15.0425 12.7475C15.32 12.47 15.7625 12.47 16.04 12.7475L16.4825 13.19L17.99 11.8025C18.275 11.54 18.7175 11.555 18.98 11.84C19.2425 12.1325 19.2275 12.5825 18.9425 12.845Z"
        fill="white" />
    <defs>
        <linearGradient id="paint0_linear_1533_49209" x1="2.125" y1="3.30556" x2="31.4028" y2="32.5833"
            gradientUnits="userSpaceOnUse">
            <stop stop-color="#FFAF68" />
            <stop offset="1" stop-color="#FF8922" />
        </linearGradient>
    </defs>
</svg>