<svg viewBox="0 0 34 34" fill="none" xmlns="http://www.w3.org/2000/svg">
    <rect width="34" height="34" rx="8" fill="url(#paint0_linear_1533_53038)" />
    <path
        d="M23 17V21.5C23 23.1575 21.6575 24.5 20 24.5H14C12.3425 24.5 11 23.1575 11 21.5V17C11 16.5875 11.3375 16.25 11.75 16.25H13.2275C13.64 16.25 13.9775 16.5875 13.9775 17V19.355C13.9775 19.91 14.285 20.42 14.7725 20.6825C14.99 20.8025 15.23 20.8625 15.4775 20.8625C15.7625 20.8625 16.0475 20.78 16.295 20.615L17.0075 20.15L17.6675 20.5925C18.125 20.9 18.71 20.9375 19.1975 20.675C19.6925 20.4125 20 19.91 20 19.3475V17C20 16.5875 20.3375 16.25 20.75 16.25H22.25C22.6625 16.25 23 16.5875 23 17Z"
        fill="white" />
    <path
        d="M24.125 13.25V14C24.125 14.825 23.7275 15.5 22.625 15.5H11.375C10.2275 15.5 9.875 14.825 9.875 14V13.25C9.875 12.425 10.2275 11.75 11.375 11.75H22.625C23.7275 11.75 24.125 12.425 24.125 13.25Z"
        fill="white" />
    <path
        d="M16.732 11.7481H12.592C12.337 11.4706 12.3445 11.0431 12.6145 10.7731L13.6795 9.70813C13.957 9.43062 14.4145 9.43062 14.692 9.70813L16.732 11.7481Z"
        fill="white" />
    <path
        d="M21.4056 11.7481H17.2656L19.3056 9.70813C19.5831 9.43062 20.0406 9.43062 20.3181 9.70813L21.3831 10.7731C21.6531 11.0431 21.6606 11.4706 21.4056 11.7481Z"
        fill="white" />
    <path
        d="M18.4756 16.25C18.8881 16.25 19.2256 16.5875 19.2256 17V19.3475C19.2256 19.9475 18.5581 20.3075 18.0631 19.97L17.3881 19.52C17.1406 19.355 16.8181 19.355 16.5631 19.52L15.8581 19.985C15.3631 20.315 14.7031 19.955 14.7031 19.3625V17C14.7031 16.5875 15.0406 16.25 15.4531 16.25H18.4756Z"
        fill="white" />
    <defs>
        <linearGradient id="paint0_linear_1533_53038" x1="2.125" y1="3.30556" x2="31.4028" y2="32.5833"
            gradientUnits="userSpaceOnUse">
            <stop stop-color="#FFAF68" />
            <stop offset="1" stop-color="#FF8922" />
        </linearGradient>
    </defs>
</svg>