<svg viewBox="0 0 34 34" fill="none" xmlns="http://www.w3.org/2000/svg">
    <rect width="34" height="34" rx="8" fill="url(#paint0_linear_1533_53936)" />
    <path
        d="M22.5064 18.8675L21.7564 17.6225C21.5989 17.345 21.4564 16.82 21.4564 16.5125V14.615C21.4564 12.8525 20.4214 11.33 18.9289 10.6175C18.5389 9.9275 17.8189 9.5 16.9939 9.5C16.1764 9.5 15.4414 9.9425 15.0514 10.64C13.5889 11.3675 12.5764 12.875 12.5764 14.615V16.5125C12.5764 16.82 12.4339 17.345 12.2764 17.615L11.5189 18.8675C11.2189 19.37 11.1514 19.925 11.3389 20.435C11.5189 20.9375 11.9464 21.3275 12.5014 21.515C13.9564 22.01 15.4864 22.25 17.0164 22.25C18.5464 22.25 20.0764 22.01 21.5314 21.5225C22.0564 21.35 22.4614 20.9525 22.6564 20.435C22.8514 19.9175 22.7989 19.3475 22.5064 18.8675Z"
        fill="white" />
    <path
        d="M19.1203 23.0075C18.8053 23.8775 17.9728 24.5 16.9978 24.5C16.4053 24.5 15.8203 24.26 15.4078 23.8325C15.1678 23.6075 14.9878 23.3075 14.8828 23C14.9803 23.015 15.0778 23.0225 15.1828 23.0375C15.3553 23.06 15.5353 23.0825 15.7153 23.0975C16.1428 23.135 16.5778 23.1575 17.0128 23.1575C17.4403 23.1575 17.8678 23.135 18.2878 23.0975C18.4453 23.0825 18.6028 23.075 18.7528 23.0525C18.8728 23.0375 18.9928 23.0225 19.1203 23.0075Z"
        fill="white" />
    <defs>
        <linearGradient id="paint0_linear_1533_53936" x1="2.125" y1="3.30556" x2="31.4028" y2="32.5833"
            gradientUnits="userSpaceOnUse">
            <stop stop-color="#FFAF68" />
            <stop offset="1" stop-color="#FF8922" />
        </linearGradient>
    </defs>
</svg>