<svg viewBox="0 0 34 34" fill="none" xmlns="http://www.w3.org/2000/svg">
    <g clip-path="url(#clip0_8127_144)">
        <path
            d="M26.0029 0H8C3.58172 0 0 3.58172 0 8V25.9998C0 30.4181 3.58172 33.9998 8 33.9998H26.0029C30.4212 33.9998 34.0029 30.4181 34.0029 25.9998V8C34.0029 3.58172 30.4212 0 26.0029 0Z"
            fill="url(#paint0_linear_8127_144)" />
        <mask id="mask0_8127_144" style="mask-type:luminance" maskUnits="userSpaceOnUse" x="5" y="5" width="24"
            height="24">
            <path d="M29 5H5V29H29V5Z" fill="white" />
        </mask>
        <g mask="url(#mask0_8127_144)">
            <path
                d="M19 7.92V16.23C19 17.25 18.17 18.08 17.15 18.08H8C7.45 18.08 7 17.63 7 17.08V10.69C7 8.65 8.65 7 10.69 7H18.07C18.59 7 19 7.41 19 7.92Z"
                fill="white" />
            <path
                d="M26.5 20.5C26.78 20.5 27 20.72 27 21V22C27 23.66 25.66 25 24 25C24 23.35 22.65 22 21 22C19.35 22 18 23.35 18 25H16C16 23.35 14.65 22 13 22C11.35 22 10 23.35 10 25C8.34 25 7 23.66 7 22V20C7 19.45 7.45 19 8 19H17.5C18.88 19 20 17.88 20 16.5V11C20 10.45 20.45 10 21 10H21.84C22.56 10 23.22 10.39 23.58 11.01L24.22 12.13C24.31 12.29 24.19 12.5 24 12.5C22.62 12.5 21.5 13.62 21.5 15V18C21.5 19.38 22.62 20.5 24 20.5H26.5Z"
                fill="white" />
            <path
                d="M13 27C14.1046 27 15 26.1046 15 25C15 23.8954 14.1046 23 13 23C11.8954 23 11 23.8954 11 25C11 26.1046 11.8954 27 13 27Z"
                fill="white" />
            <path
                d="M21 27C22.1046 27 23 26.1046 23 25C23 23.8954 22.1046 23 21 23C19.8954 23 19 23.8954 19 25C19 26.1046 19.8954 27 21 27Z"
                fill="white" />
            <path
                d="M27 17.53V19H24C23.45 19 23 18.55 23 18V15C23 14.45 23.45 14 24 14H25.29L26.74 16.54C26.91 16.84 27 17.18 27 17.53Z"
                fill="white" />
        </g>
    </g>
    <defs>
        <linearGradient id="paint0_linear_8127_144" x1="2.83358" y1="3.97869" x2="34.6172" y2="33.3347"
            gradientUnits="userSpaceOnUse">
            <stop stop-color="#3CCBEB" />
            <stop offset="1" stop-color="#196E93" />
        </linearGradient>
        <clipPath id="clip0_8127_144">
            <rect width="34" height="34" fill="white" />
        </clipPath>
    </defs>
</svg>