<svg viewBox="0 0 34 34" fill="none" xmlns="http://www.w3.org/2000/svg">
    <rect width="34" height="34" rx="8" fill="url(#paint0_linear_1398_33302)" />
    <path
        d="M14.4974 8.66699C12.3141 8.66699 10.5391 10.442 10.5391 12.6253C10.5391 14.767 12.2141 16.5003 14.3974 16.5753C14.4641 16.567 14.5307 16.567 14.5807 16.5753C14.5974 16.5753 14.6057 16.5753 14.6224 16.5753C14.6307 16.5753 14.6307 16.5753 14.6391 16.5753C16.7724 16.5003 18.4474 14.767 18.4557 12.6253C18.4557 10.442 16.6807 8.66699 14.4974 8.66699Z"
        fill="white" />
    <path
        d="M18.7328 18.7914C16.4078 17.2414 12.6161 17.2414 10.2745 18.7914C9.21615 19.4997 8.63281 20.4581 8.63281 21.4831C8.63281 22.5081 9.21615 23.4581 10.2661 24.1581C11.4328 24.9414 12.9661 25.3331 14.4995 25.3331C16.0328 25.3331 17.5661 24.9414 18.7328 24.1581C19.7828 23.4497 20.3661 22.4997 20.3661 21.4664C20.3578 20.4414 19.7828 19.4914 18.7328 18.7914Z"
        fill="white" />
    <path
        d="M23.6578 13.1171C23.7911 14.7337 22.6411 16.1504 21.0495 16.3421C21.0411 16.3421 21.0411 16.3421 21.0328 16.3421H21.0078C20.9578 16.3421 20.9078 16.3421 20.8661 16.3587C20.0578 16.4004 19.3161 16.1421 18.7578 15.6671C19.6161 14.9004 20.1078 13.7504 20.0078 12.5004C19.9495 11.8254 19.7161 11.2087 19.3661 10.6837C19.6828 10.5254 20.0495 10.4254 20.4245 10.3921C22.0578 10.2504 23.5161 11.4671 23.6578 13.1171Z"
        fill="white" />
    <path
        d="M25.3229 20.8247C25.2562 21.633 24.7396 22.333 23.8729 22.808C23.0396 23.2663 21.9896 23.483 20.9479 23.458C21.5479 22.9163 21.8979 22.2413 21.9646 21.5247C22.0479 20.4913 21.5563 19.4997 20.5729 18.708C20.0146 18.2663 19.3646 17.9163 18.6562 17.658C20.4979 17.1247 22.8146 17.483 24.2396 18.633C25.0062 19.2497 25.3979 20.0247 25.3229 20.8247Z"
        fill="white" />
    <defs>
        <linearGradient id="paint0_linear_1398_33302" x1="2.125" y1="3.30556" x2="31.4028" y2="32.5833"
            gradientUnits="userSpaceOnUse">
            <stop stop-color="#FFAF68" />
            <stop offset="1" stop-color="#FF8922" />
        </linearGradient>
    </defs>
</svg>