<svg viewBox="0 0 34 34" fill="none" xmlns="http://www.w3.org/2000/svg">
    <rect width="34" height="34" rx="8" fill="url(#paint0_linear_1398_32629)" />
    <path
        d="M14.75 9.5C12.785 9.5 11.1875 11.0975 11.1875 13.0625C11.1875 14.99 12.695 16.55 14.66 16.6175C14.72 16.61 14.78 16.61 14.825 16.6175C14.84 16.6175 14.8475 16.6175 14.8625 16.6175C14.87 16.6175 14.87 16.6175 14.8775 16.6175C16.7975 16.55 18.305 14.99 18.3125 13.0625C18.3125 11.0975 16.715 9.5 14.75 9.5Z"
        fill="white" />
    <path
        d="M18.5588 18.6127C16.4662 17.2177 13.0538 17.2177 10.9462 18.6127C9.99375 19.2502 9.46875 20.1127 9.46875 21.0352C9.46875 21.9577 9.99375 22.8127 10.9388 23.4427C11.9887 24.1477 13.3687 24.5002 14.7487 24.5002C16.1287 24.5002 17.5087 24.1477 18.5588 23.4427C19.5037 22.8052 20.0288 21.9502 20.0288 21.0202C20.0213 20.0977 19.5037 19.2427 18.5588 18.6127Z"
        fill="white" />
    <path
        d="M22.9959 13.5046C23.1159 14.9596 22.0809 16.2346 20.6484 16.4071C20.6409 16.4071 20.6409 16.4071 20.6334 16.4071H20.6109C20.5659 16.4071 20.5209 16.4071 20.4834 16.4221C19.7559 16.4596 19.0884 16.2271 18.5859 15.7996C19.3584 15.1096 19.8009 14.0746 19.7109 12.9496C19.6584 12.3421 19.4484 11.7871 19.1334 11.3146C19.4184 11.1721 19.7484 11.0821 20.0859 11.0521C21.5559 10.9246 22.8684 12.0196 22.9959 13.5046Z"
        fill="white" />
    <path
        d="M24.4922 20.4428C24.4322 21.1703 23.9672 21.8003 23.1872 22.2278C22.4372 22.6403 21.4922 22.8353 20.5547 22.8128C21.0947 22.3253 21.4097 21.7178 21.4697 21.0728C21.5447 20.1428 21.1022 19.2503 20.2172 18.5378C19.7147 18.1403 19.1297 17.8253 18.4922 17.5928C20.1497 17.1128 22.2347 17.4353 23.5172 18.4703C24.2072 19.0253 24.5597 19.7228 24.4922 20.4428Z"
        fill="white" />
    <defs>
        <linearGradient id="paint0_linear_1398_32629" x1="2.83333" y1="3.97872" x2="34.617" y2="33.3319"
            gradientUnits="userSpaceOnUse">
            <stop stop-color="#3C70EB" />
            <stop offset="1" stop-color="#193E93" />
        </linearGradient>
    </defs>
</svg>