<svg viewBox="0 0 20 20" fill="none" xmlns="http://www.w3.org/2000/svg">
    <path
        d="M12.9193 9.375H7.08594C6.74427 9.375 6.46094 9.09167 6.46094 8.75C6.46094 8.40833 6.74427 8.125 7.08594 8.125H12.9193C13.2609 8.125 13.5443 8.40833 13.5443 8.75C13.5443 9.09167 13.2609 9.375 12.9193 9.375Z"
        fill="white" />
    <path
        d="M13.3307 18.6018C13.0474 18.6018 12.7641 18.5185 12.5224 18.3602L8.97239 15.9935H5.83073C2.96406 15.9935 1.03906 14.0685 1.03906 11.2018V6.20182C1.03906 3.33516 2.96406 1.41016 5.83073 1.41016H14.1641C17.0307 1.41016 18.9557 3.33516 18.9557 6.20182V11.2018C18.9557 13.8518 17.3057 15.7018 14.7891 15.9602V17.1435C14.7891 17.6852 14.4974 18.1768 14.0224 18.4268C13.8057 18.5435 13.5641 18.6018 13.3307 18.6018ZM5.83073 2.65181C3.68073 2.65181 2.28906 4.04348 2.28906 6.19348V11.1935C2.28906 13.3435 3.68073 14.7351 5.83073 14.7351H9.16406C9.28906 14.7351 9.40574 14.7685 9.51407 14.8435L13.2224 17.3102C13.3141 17.3685 13.3974 17.3435 13.4391 17.3185C13.4807 17.2935 13.5474 17.2435 13.5474 17.1352V15.3601C13.5474 15.0185 13.8307 14.7351 14.1724 14.7351C16.3224 14.7351 17.7141 13.3435 17.7141 11.1935V6.19348C17.7141 4.04348 16.3224 2.65181 14.1724 2.65181H5.83073Z"
        fill="white" />
</svg>