<svg viewBox="0 0 103 118" fill="none" xmlns="http://www.w3.org/2000/svg">
    <path
        d="M83.3796 27.9561C83.8196 27.9172 84.2886 27.8717 84.7286 27.9178C85.5006 27.9985 86.3936 28.6161 86.8286 29.2417C87.2736 29.8799 87.3696 30.7028 87.2096 31.4529C86.9506 32.6625 86.0976 33.2676 85.1316 33.9063C84.8376 33.9358 84.5406 33.9613 84.2446 33.9464C83.4646 33.9072 82.5726 33.4169 82.0706 32.8268C81.5576 32.2244 81.4106 31.4055 81.5056 30.6359C81.6626 29.347 82.4396 28.7218 83.3796 27.9561Z"
        fill="#667085" />
    <path
        d="M40.702 14.9023C40.986 14.9184 41.272 14.9394 41.552 14.9974C42.31 15.1543 43.164 15.7227 43.573 16.384C43.977 17.037 44.012 17.8263 43.806 18.5531C43.462 19.7663 42.591 20.3668 41.549 20.9667C41.053 20.9776 40.504 20.9342 40.037 20.7505C39.238 20.4365 38.522 19.8628 38.191 19.0569C37.895 18.3355 37.935 17.51 38.254 16.8028C38.761 15.6796 39.624 15.3194 40.702 14.9023Z"
        fill="#667085" />
    <path
        d="M26.8339 25.9854C28.2199 26.3505 29.4449 27.8926 30.4269 28.883C30.9849 28.2267 31.7129 27.1753 32.5009 26.8137C33.1189 26.5302 33.5229 26.5655 34.1419 26.7851L34.3859 27.3712C34.2259 28.8479 33.0539 29.5663 31.9819 30.435C32.7409 31.1284 33.9019 31.9941 34.3309 32.9404C34.7059 33.7649 34.4119 34.2438 34.1069 35.0257C32.3989 34.725 31.4329 33.4491 30.3069 32.2444C29.7489 32.8749 29.1179 33.6963 28.4189 34.1666C27.9029 34.513 27.3829 34.5913 26.7809 34.4779C26.4729 34.1243 26.3446 34.066 26.3679 33.5709C26.4269 32.307 27.8159 31.3438 28.6789 30.5599C27.9459 29.9026 26.4669 28.854 26.214 27.8864C26.0005 27.0711 26.4179 26.635 26.8339 25.9854Z"
        fill="#667085" />
    <path
        d="M55.303 0C56.104 0.0595 56.775 0.192 57.472 0.6105C58.317 1.1174 58.93 1.9163 59.165 2.8758C59.432 3.9661 59.19 5.1454 58.604 6.0922C57.853 7.3033 56.887 7.6336 55.578 7.9508C54.667 7.905 53.98 7.7638 53.206 7.2568C52.294 6.6587 51.678 5.7426 51.49 4.6634C51.305 3.5942 51.565 2.4722 52.201 1.5933C53.012 0.4721 53.989 0.1982 55.303 0Z"
        fill="#667085" />
    <path
        d="M54.3934 1.87695C55.1504 1.89175 56.0304 1.88505 56.6504 2.39265C57.0604 2.72865 57.2424 3.11735 57.3074 3.63505C57.4194 4.51545 56.8564 5.28755 56.3604 5.95505C55.5524 5.96905 54.6484 5.94115 53.9864 5.41895C53.5914 5.10635 53.3994 4.69265 53.3494 4.20335C53.2504 3.22775 53.8074 2.59155 54.3934 1.87695Z"
        fill="white" />
    <path
        d="M65.6514 20.3853C66.4434 19.4997 67.3974 18.3502 68.3694 17.6767C69.0804 17.1837 69.8184 16.8718 70.6644 17.0399L70.8134 17.581C70.2754 19.5855 68.6984 20.734 67.2344 22.0817C68.3164 23.0581 70.3164 24.5312 70.7554 25.9582C70.9854 26.7071 70.6824 27.0919 70.3474 27.7382C68.2794 27.2851 66.9354 25.3683 65.5304 23.8838C64.6694 24.7711 63.7124 25.9356 62.6764 26.599C61.9964 27.0348 61.2744 27.3199 60.4884 27.1405L60.3654 26.6757C60.8764 24.727 62.3734 23.5824 63.7814 22.2629C62.5624 21.0793 60.4934 19.5288 60.2324 17.7994C60.5074 17.052 60.6924 17.0178 61.3394 16.5928C62.9284 17.2032 64.4664 19.1765 65.6514 20.3853Z"
        fill="#667085" />
    <path
        d="M39.0561 40.248C42.0621 40.7923 48.7331 47.797 51.1761 50.0426C54.6951 46.838 58.4371 42.7431 62.4791 40.267C65.8981 40.3099 98.8561 49.2105 99.9051 50.3347C100.084 50.5261 100.309 50.9215 100.301 51.1924C100.243 53.1006 91.9061 59.8593 90.1501 61.5244C92.3621 63.7012 101.201 74.1922 102.001 76.5952C102.221 77.2582 102.251 77.5492 101.941 78.1682C99.1771 80.0742 93.6401 80.9232 90.3081 81.7952C90.4771 89.7552 90.3911 97.7682 90.3 105.731C86.623 107.819 73.0491 111.313 68.1741 112.825C64.2021 113.961 54.9531 117.506 51.4551 117.638C49.1961 117.723 16.7949 107.628 13.2466 106.077L13.4719 106.008L12.673 105.796C11.8319 103.2 12.427 86.2422 12.3703 81.9522C9.99886 81.4182 1.73596 79.7842 0.288357 78.3202C0.120457 78.1502 0.00575993 77.9762 0.000659926 77.7372C-0.0190401 76.8162 0.405256 75.9892 0.879856 75.2222C2.06196 73.3132 3.74166 71.5882 5.16716 69.8502C7.48606 67.0232 9.73406 64.0672 12.253 61.4163C9.70516 58.6336 3.88766 54.8174 2.40646 51.7848C2.39716 51.2192 2.36755 50.8721 2.70565 50.3844C3.12795 49.7751 4.16496 49.4602 4.84966 49.2361C10.6238 47.3462 16.7553 46.0563 22.6402 44.4759C27.9751 43.0432 33.6121 41.0595 39.0561 40.248Z"
        fill="#667085" />
    <path
        d="M38.2123 42.9713L38.9443 42.8896C41.6483 44.1456 46.4743 48.986 48.6283 51.2536C45.2043 51.6823 41.6023 53.0134 38.2523 53.9144C30.7793 55.9247 23.3143 57.9932 15.8083 59.8801L14.9881 59.9501C13.3264 59.4354 7.02463 53.2152 5.51953 51.6642C16.437 48.8682 27.2533 45.5874 38.2123 42.9713Z"
        fill="white" />
    <path
        d="M63.0263 42.8474C66.1493 42.7863 70.0913 44.3936 73.1393 45.2203C81.1143 47.3838 89.1933 49.98 97.2783 51.6421C94.2533 54.5412 91.0203 57.3564 87.7563 59.9842C85.7023 60.0972 57.3423 52.033 53.5723 50.8787C56.8933 48.5101 60.0283 45.6124 63.0263 42.8474Z"
        fill="white" />
    <path
        d="M88.2957 63.9824C88.4857 63.9994 88.8197 63.9814 88.9877 64.0434C89.7967 64.3414 98.1837 75.1084 99.5507 76.7374C88.0097 79.6264 76.5707 83.3604 64.9477 85.8644L64.2907 85.8044C61.2167 83.0164 56.6177 76.6594 53.8047 73.2244L88.2957 63.9824Z"
        fill="white" />
    <path
        d="M71.6404 86.7523C76.9554 85.3163 82.6744 84.1913 87.8524 82.3633C87.8874 89.6193 87.6954 96.9303 87.9364 104.176C81.6494 106.37 75.1724 108.128 68.8014 110.075C64.2304 111.473 59.5314 113.235 54.8604 114.217C54.7234 113.559 54.8524 112.75 54.8894 112.075C57.4304 108.519 71.2444 89.1303 71.6404 86.7523Z"
        fill="white" />
    <path
        d="M82.4849 94.0117C83.0229 93.9107 83.17 93.8487 83.685 94.0857C83.976 94.6427 84.0789 94.7527 83.9659 95.3967C82.8759 96.7297 80.2789 97.0327 78.6529 97.4157C78.4909 97.4347 78.339 97.4527 78.176 97.4487C77.49 97.4317 77.3259 97.2767 76.8729 96.7987C76.7909 96.3447 76.6989 96.2037 76.9699 95.8037C77.8009 94.5797 81.1609 94.2307 82.4849 94.0117Z"
        fill="#667085" />
    <path
        d="M82.1424 99.2221C82.2454 99.1991 82.3504 99.1711 82.4564 99.1621C83.2074 99.0961 83.6004 99.4081 84.1494 99.8531C84.2094 100.148 84.3204 100.346 84.1544 100.618C83.1254 102.296 75.9784 103.477 73.9024 103.988C73.2904 104.069 73.1144 104.103 72.5324 103.837C72.2784 103.273 72.1934 103.157 72.3314 102.527C74.0424 100.651 79.6494 99.8681 82.1424 99.2221Z"
        fill="#667085" />
    <path
        d="M13.602 63.5869C17.5939 64.9929 21.9063 65.9139 25.9994 67.0179L49.0766 73.1549C45.3216 77.3909 42.1646 82.1929 38.1636 86.2099C35.7036 86.1059 30.4986 84.2749 27.9156 83.5799L2.45312 76.7439C6.07932 73.5339 10.2004 67.4729 13.602 63.5869Z"
        fill="white" />
    <path
        d="M52.6004 53.2305C58.5904 55.0632 64.7014 56.5779 70.7474 58.2193C75.6264 59.5441 80.5454 61.0904 85.5004 62.0737C82.7124 63.0687 79.7274 63.7037 76.8614 64.4697L60.6544 68.7677C58.0194 69.9657 54.3984 70.2927 51.5574 71.3567C45.8994 69.4707 39.9044 68.1407 34.1334 66.5917C28.5994 65.1057 22.7817 63.0587 17.1035 62.4067C21.117 61.0055 25.2952 59.9843 29.3964 58.8737L49.6114 53.478C50.8344 53.7104 49.1994 61.1135 50.7824 62.8707C51.3754 63.0437 51.4804 63.0767 52.0904 62.8587C53.1114 61.3469 52.5974 55.2709 52.6004 53.2305Z"
        fill="white" />
    <path
        d="M51.5451 74.3066C53.7171 76.9996 60.6861 86.5566 63.3131 88.0276C65.2441 89.1086 69.5631 87.3306 71.6411 86.7526C71.2451 89.1306 57.4311 108.52 54.8901 112.076C54.8531 112.751 54.7241 113.56 54.8611 114.218C54.1711 114.518 53.3021 114.668 52.5711 114.875C52.5621 111.087 53.0471 90.5656 52.1671 88.4866C51.9241 87.9096 51.7281 87.6726 51.1541 87.4546C51.0501 87.5166 50.9851 87.5456 50.9031 87.6276C50.3501 88.1826 50.2191 89.4246 50.1501 90.1816C49.9051 92.8816 50.1511 95.7696 50.1581 98.4936L50.1321 114.867C38.2801 111.735 26.5801 107.719 14.8203 104.232L14.8374 82.6546C19.7756 83.9266 34.3691 88.5796 38.3711 88.4656C40.7671 88.3976 49.1701 76.7566 51.5451 74.3066Z"
        fill="white" />
    <path
        d="M51.0798 79.5449L51.8808 79.8579C52.5158 80.5419 52.7348 81.4189 52.7258 82.3429C52.7158 83.3779 52.6278 84.3999 51.8648 85.1549C51.3298 84.9579 50.8288 84.8809 50.4798 84.4059C49.9368 83.6689 49.8388 82.5509 49.9898 81.6739L50.0168 81.5239C50.1758 80.5979 50.3558 80.1609 51.0798 79.5449Z"
        fill="#667085" />
</svg>