<svg viewBox="0 0 48 48" fill="none" xmlns="http://www.w3.org/2000/svg">
    <rect width="48" height="48" rx="24" fill="currentColor" />
    <path
        d="M31.7695 23.6453C31.039 22.7923 30.7071 22.0531 30.7071 20.7972V20.3701C30.7071 18.7335 30.3304 17.6791 29.5115 16.6246C28.2493 14.987 26.1244 14 24.0442 14H23.9558C21.9194 14 19.8611 14.9417 18.577 16.5128C17.7133 17.5884 17.2929 18.6882 17.2929 20.3701V20.7972C17.2929 22.0531 16.9828 22.7923 16.2305 23.6453C15.6769 24.2738 15.5 25.0815 15.5 25.9557C15.5 26.8309 15.7872 27.6598 16.3637 28.3336C17.116 29.1413 18.1785 29.6569 19.2638 29.7466C20.835 29.9258 22.4063 29.9933 24.0005 29.9933C25.5937 29.9933 27.165 29.8805 28.7372 29.7466C29.8215 29.6569 30.884 29.1413 31.6363 28.3336C32.2118 27.6598 32.5 26.8309 32.5 25.9557C32.5 25.0815 32.3231 24.2738 31.7695 23.6453Z"
        fill="#D9D9D9" />
    <path
        d="M26.0058 31.2285C25.5059 31.1217 22.4597 31.1217 21.9598 31.2285C21.5325 31.3272 21.0703 31.5568 21.0703 32.0604C21.0952 32.5408 21.3764 32.9648 21.766 33.2337L21.765 33.2347C22.2689 33.6275 22.8603 33.8773 23.4794 33.9669C23.8094 34.0122 24.1453 34.0102 24.4872 33.9669C25.1054 33.8773 25.6967 33.6275 26.2006 33.2347L26.1996 33.2337C26.5892 32.9648 26.8705 32.5408 26.8953 32.0604C26.8953 31.5568 26.4332 31.3272 26.0058 31.2285Z"
        fill="#D9D9D9" />
</svg>