<svg viewBox="0 0 38 22" fill="none" xmlns="http://www.w3.org/2000/svg">
    <path
        d="M7.65244 19C10.498 19 12.8049 16.5935 12.8049 13.625C12.8049 10.6565 10.498 8.25 7.65244 8.25C4.80683 8.25 2.5 10.6565 2.5 13.625C2.5 16.5935 4.80683 19 7.65244 19Z"
        fill="white" />
    <path
        d="M12.8049 13.625C12.8049 16.5935 10.498 19 7.65244 19C4.80683 19 2.5 16.5935 2.5 13.625C2.5 10.6565 4.80683 8.25 7.65244 8.25C10.498 8.25 12.8049 10.6565 12.8049 13.625ZM12.8049 13.625H25.4284M25.4284 13.625H32.8994C33.184 13.625 33.4146 13.8656 33.4146 14.1625V19M25.4284 13.625V19"
        stroke="#2563EB" stroke-width="5" stroke-linecap="round" stroke-linejoin="round" />
    <path
        d="M15.9002 6.5C17.6357 6.5 19.0427 5.04493 19.0427 3.25C19.0427 1.45507 17.6357 0 15.9002 0C14.1647 0 12.7578 1.45507 12.7578 3.25C12.7578 5.04493 14.1647 6.5 15.9002 6.5Z"
        fill="#2563EB" />
    <path
        d="M25.1591 6.5C26.8477 6.5 28.2165 5.04493 28.2165 3.25C28.2165 1.45507 26.8477 0 25.1591 0C23.4704 0 22.1016 1.45507 22.1016 3.25C22.1016 5.04493 23.4704 6.5 25.1591 6.5Z"
        fill="#2563EB" />
    <path
        d="M34.4159 6.5C36.1514 6.5 37.5583 5.04493 37.5583 3.25C37.5583 1.45507 36.1514 0 34.4159 0C32.6803 0 31.2734 1.45507 31.2734 3.25C31.2734 5.04493 32.6803 6.5 34.4159 6.5Z"
        fill="#2563EB" />
</svg>