<svg viewBox="0 0 40 40" fill="none" xmlns="http://www.w3.org/2000/svg">
    <path
        d="M30.6666 12.2985C30.3652 12.2125 30.09 12.0525 29.8661 11.833C29.6423 11.6135 29.4769 11.3415 29.385 11.0418C28.8746 9.31188 28.0185 7.70349 26.8686 6.31396C25.7187 4.92444 24.2988 3.78266 22.6948 2.95774C21.0909 2.13281 19.3362 1.64188 17.5371 1.51466C15.7379 1.38743 13.9317 1.62656 12.2276 2.21757C10.5235 2.80857 8.9571 3.73917 7.62307 4.95305C6.28904 6.16693 5.21516 7.63884 4.46642 9.27973C3.71767 10.9206 3.30963 12.6964 3.26698 14.4995C3.22433 16.3026 3.54797 18.0957 4.21829 19.7701C4.37229 20.1225 4.40544 20.5159 4.3126 20.8891C4.21975 21.2623 4.00612 21.5943 3.70496 21.8335C2.37784 22.8185 1.3417 24.1439 0.706212 25.6696C0.070721 27.1952 -0.140481 28.8643 0.0949598 30.5001C0.462382 32.7116 1.6105 34.7181 3.33093 36.1553C5.05136 37.5926 7.23007 38.3654 9.47163 38.3335H18.3333C18.7753 38.3335 19.1992 38.1579 19.5118 37.8453C19.8244 37.5328 20 37.1088 20 36.6668C20 36.2248 19.8244 35.8009 19.5118 35.4883C19.1992 35.1757 18.7753 35.0001 18.3333 35.0001H9.47163C8.03209 35.0351 6.62767 34.5531 5.5129 33.6417C4.39812 32.7302 3.64675 31.4496 3.39496 30.0318C3.23529 28.9897 3.3647 27.9237 3.76908 26.9501C4.17346 25.9765 4.83731 25.1325 5.68829 24.5101C6.58216 23.8421 7.22877 22.896 7.52652 21.8205C7.82428 20.745 7.75631 19.6011 7.33329 18.5685C6.49688 16.3596 6.45387 13.9288 7.21163 11.6918C7.81696 9.93943 8.90093 8.3916 10.3408 7.22365C11.7806 6.0557 13.5187 5.31431 15.3583 5.08347C15.785 5.02854 16.2147 5.00071 16.645 5.00014C18.8001 4.99303 20.8995 5.68419 22.6289 6.97013C24.3583 8.25606 25.6246 10.0676 26.2383 12.1335C26.4778 12.9208 26.9095 13.6361 27.4942 14.2151C28.079 14.794 28.7987 15.2185 29.5883 15.4501C31.5208 16.0217 33.2326 17.1699 34.4945 18.7412C35.7564 20.3124 36.5081 22.2316 36.6492 24.2419C36.7902 26.2522 36.3137 28.2576 35.2836 29.9897C34.2534 31.7217 32.7187 33.0977 30.885 33.9335C30.6136 34.0724 30.3867 34.2849 30.2302 34.5466C30.0737 34.8082 29.9939 35.1086 30 35.4135C29.9967 35.6893 30.0628 35.9614 30.1921 36.205C30.3215 36.4486 30.5099 36.6559 30.7402 36.8077C30.9705 36.9595 31.2352 37.051 31.5101 37.0738C31.7849 37.0967 32.0611 37.0502 32.3133 36.9385C39.2033 33.6268 42.9466 24.9151 37.1133 16.4985C35.5071 14.4033 33.2321 12.9212 30.6666 12.2985Z"
        fill="#4285F4" />
    <path
        d="M31.1785 27.8448C31.491 27.5322 31.6665 27.1084 31.6665 26.6665C31.6665 26.2245 31.491 25.8007 31.1785 25.4881L28.5352 22.8448C27.5976 21.9074 26.326 21.3809 25.0002 21.3809C23.6744 21.3809 22.4028 21.9074 21.4652 22.8448L18.8219 25.4881C18.5183 25.8025 18.3503 26.2235 18.3541 26.6605C18.3579 27.0975 18.5331 27.5155 18.8422 27.8245C19.1512 28.1335 19.5692 28.3088 20.0062 28.3126C20.4432 28.3164 20.8642 28.1484 21.1785 27.8448L23.3335 25.6898V38.3331C23.3335 38.7752 23.5091 39.1991 23.8217 39.5116C24.1342 39.8242 24.5582 39.9998 25.0002 39.9998C25.4422 39.9998 25.8661 39.8242 26.1787 39.5116C26.4913 39.1991 26.6669 38.7752 26.6669 38.3331V25.6898L28.8219 27.8448C29.1344 28.1572 29.5582 28.3328 30.0002 28.3328C30.4421 28.3328 30.866 28.1572 31.1785 27.8448Z"
        fill="#4285F4" />
</svg>